<svg id="Beta_Logo_Views" xmlns="http://www.w3.org/2000/svg" viewBox="0 0 200 100"><style type="text/css">
   <![CDATA[
    @font-face {
        font-family: "Gibson-Semibold";
        src: url('../fonts/gibson/gibson-semibold/webfonts/gibson-semibold.ttf') format("truetype");
    }
   ]]><text transform="translate(43.173 43.784)"><tspan x="0" y="0" fill="#FFF" font-family="Gibson-SemiBold" font-size="25">C</tspan><tspan x="16" y="0" fill="#FFF" font-family="Gibson-SemiBold" font-size="25">u</tspan><tspan x="30.1" y="0" fill="#FFF" font-family="Gibson-SemiBold" font-size="25">r</tspan><tspan x="40.149" y="0" fill="#FFF" font-family="Gibson-SemiBold" font-size="25">a</tspan><tspan x="53.299" y="0" fill="#FFF" font-family="Gibson-SemiBold" font-size="25">t</tspan><tspan x="62.374" y="0" fill="#FFF" font-family="Gibson-SemiBold" font-size="25">e</tspan></text><text transform="translate(44.213 64.784)"><tspan x="0" y="0" fill="#FFF" font-family="Gibson-SemiBold" font-size="25">S</tspan><tspan x="13.8" y="0" fill="#FFF" font-family="Gibson-SemiBold" font-size="25">c</tspan><tspan x="25.6" y="0" fill="#FFF" font-family="Gibson-SemiBold" font-size="25">i</tspan><tspan x="31.974" y="0" fill="#FFF" font-family="Gibson-SemiBold" font-size="25">e</tspan><tspan x="45.799" y="0" fill="#FFF" font-family="Gibson-SemiBold" font-size="25">n</tspan><tspan x="60.099" y="0" fill="#FFF" font-family="Gibson-SemiBold" font-size="25">c</tspan><tspan x="71.899" y="0" fill="#FFF" font-family="Gibson-SemiBold" font-size="25">e</tspan></text><path d="M140 21c-6.296 0-13.564 1.903-14.798 10h18.51c.386-.882 1.265-1.5 2.288-1.5 1.38 0 2.5 1.12 2.5 2.5s-1.12 2.5-2.5 2.5c-1.023 0-1.902-.618-2.288-1.5h-10.646c.072 1.735.487 3.4 4.75 3.806.427-.774 1.24-1.306 2.184-1.306 1.38 0 2.5 1.12 2.5 2.5s-1.12 2.5-2.5 2.5c-1.027 0-1.91-.622-2.293-1.51-5.86-.55-6.72-3.274-6.798-5.99h-5.885c-.004.17-.025.325-.025.5 0 10.237 8.096 12.5 15 12.5v5s15-2.263 15-17.5c0-10.237-8.096-12.5-15-12.5z" fill="#85D3F5"/><text transform="translate(44.214 77.784)" fill="#FECE08" font-family="Gibson-Regular" font-size="12">BETA</text></svg>
