<?xml version="1.0" encoding="iso-8859-1"?>
<!-- Generator: Adobe Illustrator 17.1.0, SVG Export Plug-In . SVG Version: 6.00 Build 0)  -->
<!DOCTYPE svg PUBLIC "-//W3C//DTD SVG 1.1//EN" "http://www.w3.org/Graphics/SVG/1.1/DTD/svg11.dtd">
<svg version="1.1" id="Layer_1" xmlns="http://www.w3.org/2000/svg" xmlns:xlink="http://www.w3.org/1999/xlink" x="0px" y="0px"
	 viewBox="0 0 40 32" style="enable-background:new 0 0 40 32;" xml:space="preserve">
<g>
	<path d="M39.982727,7.467468C39.707458,3.215454,35.986938,0,31.725952,0H24c-3.323608,0-6.169739,2.028503-7.376953,4.914001
		c-0.324524,0.775818-1.138855,1.214722-1.977234,1.149109c-0.000366,0-0.000793-0.000061-0.000793-0.000061
		c-0.520569-0.039001-1.055969-0.061035-1.610474-0.06189C13.024048,6.00116,13.014526,6,13.004028,6l0.000122,0.000122
		C13.002747,6.000122,13.001404,6,13,6C4.495422,6,0,10.495422,0,19s4.495422,13,13,13s13-4.495422,13-13v-0.000427l0,0
		c0-0.324158-0.006531-0.642517-0.019592-0.955078C25.933594,16.922791,26.855103,16,27.977844,16H32
		C36.594482,16,40.284424,12.126831,39.982727,7.467468z"/>
</g>
</svg>
