<?xml version="1.0" encoding="iso-8859-1"?>
<!-- Generator: Adobe Illustrator 17.1.0, SVG Export Plug-In . SVG Version: 6.00 Build 0)  -->
<!DOCTYPE svg PUBLIC "-//W3C//DTD SVG 1.1//EN" "http://www.w3.org/Graphics/SVG/1.1/DTD/svg11.dtd">
<svg version="1.1" id="Layer_1" xmlns="http://www.w3.org/2000/svg" xmlns:xlink="http://www.w3.org/1999/xlink" x="0px" y="0px"
	 viewBox="0 0 830 440" style="enable-background:new 0 0 830 440;" xml:space="preserve">
<g style="opacity:0.05;">
	<g>
		<path style="fill:#FFFFFF;" d="M399.282654,369.966156v38.37677c-2.151459,0.239258-3.82901,2.042938-3.82901,4.257935
			c-0.000946,2.377594,1.928009,4.30658,4.307526,4.30658c2.378448,0,4.306549-1.928986,4.306549-4.30658
			c0-2.215881-1.678497-4.018677-3.828033-4.257935l-0.000977-38.377716c2.150513-0.241058,3.82901-2.042938,3.82901-4.258881
			c-0.000946-2.378479-1.929047-4.305603-4.306549-4.305603c-2.379517,0-4.306549,1.927124-4.306549,4.305603
			C395.453644,367.922272,397.131195,369.724152,399.282654,369.966156z"/>
		<path style="fill:#FFFFFF;" d="M460.699585,393.41861l-27.137421,27.137421
			c-1.690674-1.352356-4.151428-1.26355-5.717773,0.302795c-1.681274,1.681274-1.681274,4.407501,0.000946,6.091553
			c1.682251,1.68045,4.408386,1.68045,6.089661-0.000854c1.566437-1.566437,1.654297-4.028046,0.304718-5.716888
			l27.136566-27.136475c1.689697,1.348541,4.151428,1.260681,5.717743-0.305664c1.682251-1.68222,1.680328-4.408386,0-6.088806
			c-1.68222-1.683167-4.407501-1.683167-6.089752-0.001801C459.436981,389.266235,459.348175,391.72699,460.699585,393.41861z"/>
		<path style="fill:#FFFFFF;" d="M425.049072,405.154144h-38.378571c-0.240234-2.150482-2.042084-3.828033-4.25708-3.828033
			c-2.378479,0-4.306549,1.928009-4.307526,4.306549c0.001923,2.379425,1.929047,4.306549,4.307526,4.307404
			c2.214996,0,4.016846-1.678497,4.25708-3.828888h38.378571c0.239227,2.149445,2.04303,3.828888,4.257935,3.828888
			c2.37854-0.000854,4.305573-1.929901,4.305573-4.305573c0-2.379425-1.927032-4.306549-4.30368-4.307526
			C427.092102,401.326111,425.2883,403.003662,425.049072,405.154144z"/>
		<path style="fill:#FFFFFF;" d="M434.197601,330.048248l-27.13739-27.137421
			c1.350433-1.689789,1.262573-4.151428-0.303772-5.717773c-1.68222-1.681366-4.409332-1.681366-6.090698,0
			c-1.681274,1.682251-1.681274,4.409332,0,6.091583c1.566345,1.566345,4.0271,1.654205,5.717743,0.302795l27.137512,27.137421
			c-1.351379,1.690735-1.262665,4.152374,0.302795,5.717865c1.682251,1.68222,4.409363,1.681274,6.091583,0
			c1.681366-1.681396,1.68222-4.408478,0-6.090729C438.34903,328.785645,435.887299,328.697815,434.197601,330.048248z"/>
		<path style="fill:#FFFFFF;" d="M450.437805,324.634216l-27.13739-27.136536
			c1.351379-1.690674,1.263519-4.151428-0.302795-5.717773c-1.682251-1.68222-4.409363-1.68222-6.091675,0
			c-1.681274,1.682251-1.680328,4.408478,0.000946,6.089752c1.566345,1.566345,4.0271,1.656128,5.716919,0.304718
			l27.13739,27.136475c-1.350433,1.691589-1.261719,4.151398,0.304718,5.717743c1.681274,1.682251,4.408386,1.682251,6.089661,0
			c1.682343-1.68222,1.682343-4.40741,0.000946-6.089661C454.59021,323.372498,452.128479,323.283783,450.437805,324.634216z"/>
		<path style="fill:#FFFFFF;" d="M383.375,374.034332l27.136566-27.137421c1.690643,1.352356,4.151428,1.26355,5.717773-0.302795
			c1.68222-1.681366,1.68222-4.408478,0-6.092529c-1.682251-1.68042-4.409332-1.68042-6.090637,0.001801
			c-1.566437,1.566345-1.654266,4.028076-0.303741,5.715973l-27.136566,27.137421
			c-1.690643-1.348633-4.152374-1.260803-5.718719,0.305634c-1.681274,1.682251-1.680298,4.40744,0.000977,6.088806
			c1.68222,1.683197,4.407501,1.683197,6.088776,0.000854C384.636749,378.186707,384.725555,375.725952,383.375,374.034332z"/>
		<path style="fill:#FFFFFF;" d="M463.2276,338.845459l27.136566-27.136536c1.690643,1.35141,4.151337,1.26355,5.717773-0.302795
			c1.68222-1.682251,1.68222-4.408386,0-6.091583c-1.682251-1.681274-4.409454-1.68222-6.091675,0
			c-1.566345,1.566345-1.654205,4.028076-0.302795,5.717773l-27.136475,27.136536
			c-1.69162-1.349579-4.15332-1.261719-5.719666,0.304626c-1.68042,1.682251-1.68042,4.408478,0.001801,6.089752
			c1.682343,1.682251,4.407532,1.682251,6.088898,0.001923C464.489227,342.998718,464.578064,340.537079,463.2276,338.845459z"/>
		<path style="fill:#FFFFFF;" d="M484.880951,425.464417l27.137421-27.138458
			c1.690674,1.353333,4.151428,1.263641,5.717773-0.301849c1.681396-1.681274,1.682251-4.408356,0-6.091553
			c-1.682251-1.681366-4.409363-1.681366-6.091583,0.000946c-1.566345,1.565399-1.654175,4.0271-0.302795,5.715851
			l-27.137512,27.138367c-1.690643-1.349487-4.152283-1.261627-5.718719,0.303772
			c-1.680328,1.683197-1.680328,4.408478,0.000977,6.090698c1.683167,1.682251,4.408447,1.682251,6.088776,0.000946
			C486.143555,429.616699,486.231415,427.155945,484.880951,425.464417z"/>
		<path style="fill:#FFFFFF;" d="M419.025635,362.297913h38.377686c0.240112,2.151367,2.042938,3.828918,4.256989,3.828033
			c2.378479,0,4.306549-1.927124,4.307526-4.306549c-0.001923-2.37854-1.929047-4.306549-4.307526-4.306549
			c-2.21405,0-4.016876,1.678497-4.256989,3.828064h-38.377686c-0.239258-2.149567-2.04303-3.828064-4.257935-3.828064
			c-2.379517,0.000854-4.30658,1.929932-4.30658,4.305603c0,2.379425,1.927063,4.306549,4.304657,4.307495
			C416.982605,366.126831,418.7854,364.44928,419.025635,362.297913z"/>
		<path style="fill:#FFFFFF;" d="M467.287445,310.355713l27.136444,27.136444
			c-1.350433,1.689789-1.261627,4.151428,0.304718,5.717773c1.681274,1.682343,4.408478,1.682343,6.089752,0
			c1.682251-1.682251,1.682251-4.409332,0-6.090607c-1.566345-1.566345-4.0271-1.655151-5.717743-0.303772l-27.136566-27.136536
			c1.350433-1.691528,1.261719-4.152283-0.303741-5.717773c-1.682251-1.682251-4.408386-1.682251-6.090637,0
			c-1.68222,1.681366-1.68222,4.407532,0,6.089752C463.136017,311.61734,465.596802,311.7052,467.287445,310.355713z"/>
		<path style="fill:#FFFFFF;" d="M504.738953,272.015411v38.375793c-2.150482,0.240204-3.828033,2.042938-3.82901,4.258911
			c0,2.378448,1.928955,4.306549,4.307526,4.307495c2.378448-0.000946,4.307404-1.929047,4.307404-4.307495
			c-0.000854-2.215973-1.678497-4.018707-3.829865-4.257935l0.000977-38.37677
			c2.150391-0.242126,3.828033-2.04483,3.828033-4.259857c-0.000946-2.377594-1.928101-4.305573-4.306549-4.304626
			c-2.378571-0.000946-4.305695,1.927032-4.306549,4.304626C500.909943,269.971436,502.58847,271.773285,504.738953,272.015411z"/>
		<path style="fill:#FFFFFF;" d="M456.693024,262.196655v19.09729c-2.151459,0.239258-3.828979,2.042938-3.828979,4.257935
			c-0.000977,2.377594,1.927979,4.306549,4.307495,4.306549c2.378479,0,4.306549-1.928955,4.306549-4.306549
			c0-2.215881-1.678497-4.018677-3.828033-4.257935l-0.000977-19.098236c2.150513-0.241058,3.82901-2.042938,3.82901-4.258881
			c-0.000946-2.378479-1.929047-4.305588-4.306549-4.305588c-2.379517,0-4.306549,1.927109-4.306549,4.305588
			C452.864044,260.152771,454.541565,261.954651,456.693024,262.196655z"/>
		<path style="fill:#FFFFFF;" d="M438.257446,301.557526l-27.136536,27.137512
			c-1.69162-1.352356-4.151428-1.263641-5.717773,0.302795c-1.682251,1.681274-1.682251,4.408356,0,6.091553
			c1.68222,1.681274,4.409332,1.681274,6.090698-0.000946c1.566345-1.566315,1.654205-4.028076,0.303772-5.716797
			l27.136444-27.137512c1.690674,1.349579,4.152374,1.261719,5.718719-0.304626
			c1.681274-1.68222,1.68042-4.407532-0.000946-6.089752c-1.682251-1.682251-4.40744-1.682251-6.089661-0.000946
			C436.995728,297.405151,436.906036,299.865906,438.257446,301.557526z"/>
		<path style="fill:#FFFFFF;" d="M482.459442,278.105164h-38.378571c-0.240204-2.150482-2.042084-3.828033-4.25708-3.828033
			c-2.378479,0-4.306549,1.927979-4.307526,4.306549c0.001923,2.379425,1.929047,4.306549,4.307526,4.307404
			c2.214996,0,4.016876-1.678497,4.25708-3.828888h38.378571c0.239258,2.149445,2.04303,3.828888,4.257935,3.828888
			c2.37854-0.000854,4.305603-1.929901,4.305603-4.305573c0-2.379425-1.927063-4.30658-4.30368-4.307526
			C484.502472,274.27713,482.6987,275.954681,482.459442,278.105164z"/>
		<path style="fill:#FFFFFF;" d="M553.761536,363.781952l0.000916-38.376648c2.149475-0.240234,3.827087-2.044006,3.827087-4.258911
			c0-2.377563-1.92804-4.305695-4.305603-4.305695c-2.379456-0.000854-4.308411,1.928131-4.308411,4.307526
			c0,2.214996,1.678467,4.016846,3.829956,4.25708l-0.000977,38.376648c-2.150513,0.24118-3.828979,2.044952-3.828979,4.259857
			c0.000916,2.377594,1.928955,4.304718,4.307495,4.304718c2.378479,0.001831,4.306519-1.927124,4.306519-4.306549
			C557.589539,365.824982,555.911926,364.023132,553.761536,363.781952z"/>
		<path style="fill:#FFFFFF;" d="M569.07373,371.438049v-38.375793c2.150391-0.241089,3.828003-2.042938,3.827087-4.258911
			c0.000916-2.378448-1.926208-4.305573-4.305603-4.305573c-2.378601,0-4.305603,1.927124-4.305603,4.305573
			c0,2.215973,1.675598,4.017822,3.826111,4.258057l0.000977,38.378571c-2.151489,0.239227-3.827087,2.042053-3.827087,4.257935
			c-0.000977,2.377594,1.927002,4.305573,4.306519,4.305573c2.377502,0.000977,4.304688-1.927032,4.305603-4.305573
			C572.900818,373.482025,571.224121,371.679199,569.07373,371.438049z"/>
		<path style="fill:#FFFFFF;" d="M483.653778,380.925964l27.137512-27.136566c1.688751,1.35141,4.150482,1.262695,5.716827-0.30365
			c1.68219-1.681366,1.68219-4.408478,0-6.089752c-1.682251-1.683197-4.409363-1.683197-6.089783-0.000946
			c-1.566315,1.566315-1.656006,4.028046-0.30365,5.717743l-27.13559,27.136566
			c-1.693542-1.349579-4.153351-1.261719-5.719666,0.304596c-1.682251,1.682251-1.682251,4.408508,0,6.089752
			c1.681274,1.682251,4.407501,1.682251,6.089752,0C484.915497,385.078339,485.003357,382.617584,483.653778,380.925964z"/>
		<path style="fill:#FFFFFF;" d="M513.567017,418.961548l27.136475-27.136475
			c1.690613,1.349518,4.152344,1.261627,5.717834-0.304718c1.683105-1.681274,1.681274-4.408356,0-6.091553
			c-1.682312-1.68042-4.408447-1.681396-6.090698,0.000946c-1.567322,1.567322-1.655151,4.028931-0.303772,5.718628
			l-27.136536,27.136536c-1.691528-1.349457-4.153259-1.261597-5.719604,0.304718
			c-1.68042,1.680328-1.68042,4.40744,0.001831,6.089783c1.681366,1.681244,4.407532,1.680298,6.090698,0
			C514.828613,423.112946,514.91748,420.652191,513.567017,418.961548z"/>
		<path style="fill:#FFFFFF;" d="M486.7211,358.948364h38.378693c0.239258,2.151367,2.041931,3.829865,4.256958,3.829865
			c2.377625,0,4.30658-1.928955,4.307495-4.30835c-0.000916-2.378571-1.928955-4.30658-4.307495-4.305695
			c-2.215027-0.000885-4.018677,1.678497-4.256958,3.827179H486.7211c-0.239258-2.148682-2.042938-3.828064-4.257935-3.827179
			c-2.379425,0-4.304626,1.928101-4.306549,4.305695c0,2.379395,1.927124,4.306549,4.306549,4.306549
			C484.678162,362.778229,486.480896,361.099731,486.7211,358.948364z"/>
		<path style="fill:#FFFFFF;" d="M568.069031,390.53064h38.375793c0.241089,2.151428,2.042908,3.828979,4.257935,3.828979
			c2.377625,0,4.30658-1.928955,4.30658-4.307495c0-2.378448-1.92804-4.305603-4.305603-4.305603
			c-2.216003,0-4.019653,1.677551-4.258911,3.827087l-38.37677,0.000977c-0.24115-2.151367-2.04303-3.828064-4.25885-3.828064
			c-2.378601,0-4.305603,1.927155-4.30658,4.305603c0.000977,2.37854,1.927979,4.305695,4.30658,4.307495
			C566.02417,394.359619,567.827881,392.682068,568.069031,390.53064z"/>
		<path style="fill:#FFFFFF;" d="M520.229614,375.858673l27.137451,27.138367c-1.35144,1.689697-1.26355,4.151428,0.303711,5.715942
			c1.681396,1.682251,4.407532,1.682251,6.089783,0.000854c1.682251-1.683167,1.682251-4.409332,0-6.090607
			c-1.565369-1.566345-4.0271-1.654175-5.716797-0.302795l-27.137512-27.138367
			c1.350525-1.689789,1.262695-4.151428-0.304626-5.717865c-1.682312-1.681274-4.407532-1.680328-6.088806,0
			c-1.683167,1.682343-1.682312,4.407532-0.002869,6.088806C516.076294,377.121246,518.539001,377.210083,520.229614,375.858673z"/>
		<path style="fill:#FFFFFF;" d="M591.084045,373.256744v38.37677c-2.149597,0.240204-3.827087,2.043976-3.828064,4.257935
			c0.000977,2.37854,1.928955,4.307495,4.306519,4.306549c2.379456-0.000854,4.307556-1.928009,4.307556-4.307434
			c0-2.213074-1.677673-4.016846-3.829041-4.25705v-38.37677c2.151367-0.241058,3.829041-2.04483,3.829041-4.257935
			c0-2.379395-1.928101-4.307495-4.307556-4.306549c-2.377563,0-4.304626,1.927155-4.305542,4.306549
			C587.255981,371.21286,588.934448,373.015686,591.084045,373.256744z"/>
		<path style="fill:#FFFFFF;" d="M631.27948,318.077179l-27.137512,27.137482
			c-1.687805-1.350525-4.149475-1.262665-5.716797,0.303772c-1.681274,1.682251-1.683228,4.408386-0.000977,6.090607
			c1.683228,1.683197,4.411255,1.683197,6.091675,0c1.565369-1.565369,1.65509-4.0271,0.30365-5.716797l27.137512-27.137512
			c1.690674,1.350525,4.151428,1.261719,5.716797-0.30365c1.683228-1.683197,1.682251-4.409454,0-6.091675
			c-1.681274-1.680328-4.407471-1.682251-6.088745,0C630.017761,313.925751,629.930847,316.387482,631.27948,318.077179z"/>
		<path style="fill:#FFFFFF;" d="M576.778442,346.507202l-38.378723,0.000885
			c-0.237305-2.150421-2.041077-3.828918-4.255981-3.828918c-2.37854,0-4.30658,1.928955-4.308472,4.307404
			c0.001892,2.378571,1.929932,4.307526,4.308472,4.30658c2.214905,0,4.018677-1.678528,4.255981-3.828064l38.377747-0.000854
			c0.242981,2.150391,2.044861,3.828918,4.259827,3.828918c2.378479-0.000885,4.304688-1.928009,4.305603-4.307434
			c0-2.379486-1.927124-4.306549-4.305603-4.304718C578.822327,342.679169,577.020447,344.35672,576.778442,346.507202z"/>
		<path style="fill:#FFFFFF;" d="M624.616882,361.180115l-27.136597-27.137512
			c1.350464-1.690643,1.261719-4.152283-0.302795-5.716797c-1.68219-1.68222-4.409302-1.68222-6.091553-0.000946
			c-1.682312,1.684143-1.682312,4.409424,0.000854,6.092529c1.563599,1.564514,4.026245,1.652374,5.716919,0.301941
			l27.136475,27.13739c-1.350464,1.689728-1.262634,4.151428,0.302795,5.717804
			c1.684143,1.68219,4.410278,1.680389,6.089722,0.000946c1.683228-1.683228,1.683228-4.408386,0.001892-6.089783
			C628.768311,359.917542,626.307495,359.828735,624.616882,361.180115z"/>
		<path style="fill:#FFFFFF;" d="M657.152405,427.034515l-27.137451-27.136566c1.35144-1.690643,1.26355-4.151428-0.302795-5.717743
			c-1.68219-1.68222-4.409302-1.68222-6.091675,0c-1.681274,1.68222-1.680298,4.408447,0.000977,6.089752
			c1.566345,1.566315,4.0271,1.656097,5.716919,0.304688l27.13739,27.136475c-1.350403,1.69162-1.261719,4.151428,0.304749,5.717743
			c1.681274,1.682251,4.408386,1.682251,6.089661,0c1.682312-1.68222,1.682312-4.40741,0.000916-6.08963
			C661.304749,425.772797,658.843079,425.684082,657.152405,427.034515z"/>
		<path style="fill:#FFFFFF;" d="M716.452576,358.561401v38.375793c-2.150513,0.240204-3.828064,2.042938-3.828979,4.258911
			c0,2.378448,1.928955,4.306549,4.307495,4.307495c2.378479-0.000946,4.307434-1.929047,4.307434-4.307495
			c-0.000854-2.215973-1.678528-4.018707-3.829895-4.257935l0.000977-38.37677
			c2.150391-0.242126,3.828064-2.04483,3.828064-4.259857c-0.000977-2.377594-1.928101-4.305573-4.30658-4.304626
			c-2.37854-0.000946-4.305725,1.927032-4.30658,4.304626C712.623596,356.517426,714.302063,358.319275,716.452576,358.561401z"/>
		<path style="fill:#FFFFFF;" d="M668.406677,329.463165v38.37677c-2.151489,0.239227-3.829041,2.042908-3.829041,4.257935
			c-0.000916,2.377594,1.92804,4.306549,4.307556,4.306549c2.378418,0,4.306519-1.928955,4.306519-4.306549
			c0-2.215881-1.678467-4.018707-3.828064-4.257935l-0.000916-38.377716c2.150513-0.241089,3.828979-2.042938,3.828979-4.258881
			c-0.000977-2.378479-1.929016-4.305603-4.306519-4.305603c-2.379517,0-4.30658,1.927124-4.30658,4.305603
			C664.577637,327.419281,666.255188,329.22113,668.406677,329.463165z"/>
		<path style="fill:#FFFFFF;" d="M729.823547,352.915619l-27.13739,27.13739
			c-1.690674-1.352356-4.151428-1.263519-5.717773,0.302795c-1.681274,1.681305-1.681274,4.407532,0.000977,6.091583
			c1.682251,1.68045,4.408386,1.68045,6.089661-0.000854c1.566406-1.566437,1.654297-4.028076,0.304688-5.716919
			l27.136536-27.136444c1.689758,1.348541,4.151428,1.260681,5.717773-0.305664c1.682251-1.682251,1.680359-4.408386,0-6.088806
			c-1.68219-1.683197-4.407471-1.683197-6.089722-0.001801C728.560974,348.763245,728.472168,351.223999,729.823547,352.915619z"/>
		<path style="fill:#FFFFFF;" d="M694.173035,364.651154h-38.37854c-0.240234-2.150482-2.042053-3.828033-4.25708-3.828033
			c-2.378479,0-4.30658,1.927979-4.307495,4.306549c0.001892,2.379425,1.929016,4.306549,4.307495,4.307404
			c2.215027,0,4.016846-1.678497,4.25708-3.828888h38.37854c0.239258,2.149445,2.04303,3.828888,4.257935,3.828888
			c2.378601-0.000854,4.305603-1.929901,4.305603-4.305603c0-2.379395-1.927002-4.306549-4.30365-4.307495
			C696.216064,360.82312,694.412292,362.500671,694.173035,364.651154z"/>
		<g>
			<path style="fill:#FFFFFF;" d="M694.40979,254.19017v38.376755c-2.151428,0.239258-3.828979,2.042938-3.828979,4.257935
				c-0.000977,2.377594,1.927979,4.30658,4.307495,4.30658c2.378479,0,4.30658-1.928986,4.30658-4.30658
				c0-2.215851-1.678528-4.018677-3.828064-4.257935l-0.000977-38.377716c2.150513-0.241074,3.829041-2.042923,3.829041-4.258881
				c-0.000977-2.378464-1.929077-4.305588-4.30658-4.305588c-2.379517,0-4.306519,1.927124-4.306519,4.305588
				C690.580811,252.146286,692.258362,253.948135,694.40979,254.19017z"/>
			<path style="fill:#FFFFFF;" d="M720.176208,289.378143h-38.378601c-0.240173-2.150482-2.042053-3.828033-4.257019-3.828033
				c-2.378479,0-4.30658,1.928009-4.307556,4.306549c0.001953,2.379425,1.929077,4.306549,4.307556,4.307434
				c2.214966,0,4.016846-1.678528,4.257019-3.828918h38.378601c0.239258,2.149445,2.04303,3.828918,4.257935,3.828918
				c2.37854-0.000885,4.305603-1.929932,4.305603-4.305603c0-2.379425-1.927063-4.306549-4.303711-4.307526
				C722.219238,285.55011,720.415466,287.227661,720.176208,289.378143z"/>
			<path style="fill:#FFFFFF;" d="M770.553894,292.004303v-38.377716c2.149536-0.238297,3.828064-2.041122,3.828064-4.256989
				c0.000916-2.378555-1.927185-4.306549-4.30658-4.30751c-2.379395,0.000961-4.307495,1.928955-4.306519,4.30751
				c0,2.21492,1.678467,4.018692,3.828003,4.256989v38.377716c-2.150513,0.241058-3.828003,2.043884-3.828003,4.259827
				c0,2.377533,1.92804,4.304657,4.306519,4.304657c2.37854,0,4.30658-1.927124,4.30658-4.304657
				C774.381958,294.048187,772.704407,292.245361,770.553894,292.004303z"/>
			<path style="fill:#FFFFFF;" d="M744.787476,256.81543h38.377747c0.240112,2.151367,2.042908,3.828918,4.256958,3.828064
				c2.378479,0,4.30658-1.927124,4.307495-4.306549c-0.001892-2.378555-1.929016-4.306564-4.307495-4.306564
				c-2.21405,0-4.016846,1.678513-4.256958,3.828049h-38.377747c-0.239258-2.149536-2.04303-3.828049-4.257935-3.828049
				c-2.379517,0.00087-4.306519,1.929932-4.306519,4.305588c0,2.379425,1.927002,4.30658,4.304626,4.307526
				C742.744446,260.644348,744.547302,258.966797,744.787476,256.81543z"/>
			<path style="fill:#FFFFFF;" d="M677.593872,188.697525l0.000977-38.376663
				c2.149414-0.240204,3.827087-2.043991,3.827087-4.258896c0-2.377579-1.928101-4.305695-4.305603-4.305695
				c-2.379517-0.000854-4.308472,1.928116-4.308472,4.30751c0,2.215012,1.678467,4.016876,3.829956,4.25708l-0.000977,38.376663
				c-2.150513,0.241165-3.828979,2.044937-3.828979,4.259842c0.000916,2.377609,1.928955,4.304733,4.307495,4.304733
				c2.378479,0.001831,4.30658-1.927124,4.30658-4.306549C681.421936,190.740555,679.744263,188.93869,677.593872,188.697525z"/>
			<path style="fill:#FFFFFF;" d="M692.906067,197.041489v-38.375793c2.150391-0.241074,3.828064-2.042938,3.827087-4.258896
				c0.000977-2.378448-1.926208-4.305603-4.305603-4.305603c-2.37854,0-4.305603,1.927155-4.305603,4.305603
				c0,2.215958,1.675659,4.017822,3.826111,4.258026l0.000977,38.378571c-2.151428,0.239258-3.827087,2.042084-3.827087,4.25795
				c-0.000977,2.377594,1.927063,4.305588,4.30658,4.305588c2.377502,0.000961,4.304626-1.927032,4.305603-4.305588
				C696.733154,199.08548,695.056458,197.282654,692.906067,197.041489z"/>
			<path style="fill:#FFFFFF;" d="M691.901367,216.134064h38.375793c0.241089,2.151459,2.042969,3.82901,4.257935,3.82901
				c2.377625,0,4.30658-1.928955,4.30658-4.30751c0-2.378448-1.927979-4.305603-4.305603-4.305603
				c-2.215942,0-4.019653,1.677551-4.258911,3.827103l-38.376709,0.000946c-0.241211-2.151352-2.04303-3.828049-4.258911-3.828049
				c-2.37854,0-4.305603,1.927155-4.30658,4.305603c0.000977,2.378555,1.92804,4.305695,4.30658,4.30751
				C689.856567,219.963074,691.660217,218.285522,691.901367,216.134064z"/>
			<path style="fill:#FFFFFF;" d="M714.916382,198.860199v38.37674c-2.149536,0.240219-3.827087,2.043991-3.828064,4.25795
				c0.000977,2.378555,1.928955,4.30751,4.30658,4.306549c2.379395-0.00087,4.307495-1.927994,4.307495-4.307419
				c0-2.213089-1.677673-4.016861-3.828979-4.25708v-38.37674c2.151306-0.241074,3.828979-2.044846,3.828979-4.25795
				c0-2.379395-1.928101-4.30751-4.307495-4.306549c-2.377625,0-4.304688,1.927155-4.305603,4.306549
				C711.088318,196.816299,712.766846,198.619125,714.916382,198.860199z"/>
			<path style="fill:#FFFFFF;" d="M768.51001,198.232208l-27.136536,27.136551
				c-1.689697-1.351501-4.150513-1.263641-5.716858,0.302795c-1.684143,1.68129-1.683167,4.409332-0.000916,6.091568
				c1.681274,1.681274,4.408386,1.681274,6.090698,0c1.566345-1.566345,1.656006-4.029877,0.30365-5.717758l27.136536-27.136551
				c1.690674,1.349579,4.152405,1.261719,5.71875-0.305557c1.68042-1.682251,1.68042-4.408493-0.000977-6.088821
				c-1.681274-1.682236-4.408386-1.683182-6.088806-0.001907C767.249207,194.078873,767.1604,196.540588,768.51001,198.232208z"/>
			<path style="fill:#FFFFFF;" d="M755.111816,143.680603l-27.137512,27.137512
				c-1.687744-1.350525-4.149475-1.26268-5.716797,0.303757c-1.681274,1.682251-1.683167,4.408386-0.000977,6.090622
				c1.683228,1.683182,4.411255,1.683182,6.091675,0c1.56543-1.565384,1.65509-4.027115,0.303711-5.716812l27.137451-27.137512
				c1.690674,1.35054,4.151428,1.261734,5.716858-0.303635c1.683167-1.683212,1.68219-4.409454,0-6.09169
				c-1.681274-1.680313-4.407532-1.682236-6.088806,0C753.850098,139.52919,753.763184,141.990906,755.111816,143.680603z"/>
			<path style="fill:#FFFFFF;" d="M781.956787,203.693863h-38.377686c-0.240234-2.151352-2.042114-3.828033-4.257019-3.828033
				c-2.379517,0-4.306519,1.927139-4.307495,4.306549c0.000977,2.377594,1.929932,4.306549,4.30835,4.306549
				c2.21405,0,4.016907-1.67659,4.256165-3.828049h38.37854c0.239258,2.150497,2.04303,3.828049,4.258057,3.828049
				c2.377502-0.000961,4.305603-1.928955,4.304626-4.306549c0-2.37941-1.927124-4.306549-4.302856-4.305603
				C784.000671,199.865829,782.196899,201.542511,781.956787,203.693863z"/>
			<path style="fill:#FFFFFF;" d="M700.610779,172.110657l-38.378662,0.00087
				c-0.237366-2.150406-2.041138-3.828918-4.256042-3.828918c-2.37854,0-4.30658,1.92897-4.308472,4.307419
				c0.001892,2.378555,1.929932,4.30751,4.308472,4.306549c2.214905,0,4.018677-1.678497,4.256042-3.828049l38.377686-0.000854
				c0.242981,2.150406,2.044861,3.828903,4.259888,3.828903c2.378418-0.000854,4.304626-1.927994,4.305542-4.307419
				c0-2.379486-1.927124-4.306549-4.305542-4.304733C702.654663,168.282608,700.852783,169.960159,700.610779,172.110657z"/>
			<path style="fill:#FFFFFF;" d="M748.449219,186.783569l-27.136536-27.137512
				c1.350403-1.690659,1.261719-4.152283-0.302795-5.716812c-1.682251-1.682236-4.409363-1.682236-6.091614-0.000946
				c-1.682312,1.684143-1.682312,4.409424,0.000854,6.092529c1.563599,1.564514,4.026245,1.652374,5.716919,0.301941
				l27.136475,27.137405c-1.350464,1.689713-1.262573,4.151413,0.302795,5.717773
				c1.684143,1.68222,4.410278,1.680405,6.089722,0.000961c1.683228-1.683212,1.683228-4.408401,0.001953-6.089767
				C752.600647,185.520981,750.139893,185.432175,748.449219,186.783569z"/>
			<path style="fill:#FFFFFF;" d="M722.507019,246.627625v-38.37674c2.150513-0.239243,3.828064-2.042938,3.828979-4.25795
				c0.000977-2.378464-1.927979-4.306549-4.307495-4.30751c-2.378479,0.000961-4.30658,1.929047-4.30658,4.30751
				c0,2.215012,1.678528,4.018707,3.828064,4.25795v38.37674c-2.149536,0.242035-3.828064,2.043991-3.828064,4.258896
				c0.000977,2.377594,1.929077,4.306549,4.30658,4.305603c2.37854,0.000946,4.30658-1.928009,4.30658-4.305603
				C726.335083,248.671616,724.657532,246.869659,722.507019,246.627625z"/>
			<path style="fill:#FFFFFF;" d="M788.989502,217.084579l27.136536-27.136536
				c1.690674,1.351379,4.151306,1.263519,5.717773-0.302826c1.68219-1.682236,1.68219-4.408371,0-6.091568
				c-1.682251-1.681274-4.409424-1.682236-6.091675,0c-1.566345,1.566345-1.654175,4.028061-0.302795,5.717773l-27.136475,27.136536
				c-1.691589-1.349579-4.15332-1.261719-5.719666,0.304626c-1.68042,1.682236-1.68042,4.408478,0.001831,6.089752
				c1.682312,1.682236,4.407471,1.682236,6.088867,0.001907C790.251099,221.237808,790.339905,218.776184,788.989502,217.084579z"/>
			<path style="fill:#FFFFFF;" d="M793.049316,188.594818l27.136475,27.136444
				c-1.350464,1.689789-1.261658,4.151428,0.304688,5.717773c1.681274,1.682327,4.408508,1.682327,6.089783,0
				c1.68219-1.682251,1.68219-4.409348,0-6.090622c-1.566345-1.566345-4.0271-1.655151-5.717773-0.303757l-27.136536-27.136551
				c1.350403-1.691513,1.261719-4.152283-0.303772-5.717758c-1.682251-1.682236-4.408386-1.682236-6.090637,0
				c-1.682251,1.681366-1.682251,4.407516,0,6.089752C788.897888,189.85643,791.358643,189.94429,793.049316,188.594818z"/>
			<path style="fill:#FFFFFF;" d="M782.454895,121.156281v38.376755c-2.151428,0.239258-3.828979,2.042938-3.828979,4.25795
				c-0.000977,2.377594,1.927979,4.306549,4.307495,4.306549c2.378479,0,4.30658-1.928955,4.30658-4.306549
				c0-2.215881-1.678528-4.018692-3.828064-4.25795l-0.000977-38.377708c2.150513-0.241074,3.829041-2.042931,3.829041-4.258881
				c-0.000977-2.378479-1.929077-4.305595-4.30658-4.305595c-2.379517,0-4.30658,1.927116-4.30658,4.305595
				C778.625916,119.112396,780.303467,120.914253,782.454895,121.156281z"/>
			<path style="fill:#FFFFFF;" d="M808.221313,156.344269h-38.378601c-0.240173-2.150497-2.042053-3.828049-4.25708-3.828049
				c-2.378418,0-4.306519,1.927994-4.307495,4.306564c0.001953,2.37941,1.929077,4.306549,4.307495,4.307404
				c2.215027,0,4.016907-1.678497,4.25708-3.828903h38.378601c0.239258,2.149445,2.04303,3.828903,4.257935,3.828903
				c2.37854-0.000854,4.305603-1.929901,4.305603-4.305588c0-2.379425-1.927063-4.306564-4.303711-4.30751
				C810.264343,152.51622,808.460571,154.193771,808.221313,156.344269z"/>
		</g>
		<path style="fill:#FFFFFF;" d="M560.937195,249.077896l0.000916-38.376663c2.149475-0.240204,3.827087-2.043976,3.827087-4.258896
			c0-2.377579-1.92804-4.305679-4.305542-4.305679c-2.379517-0.00087-4.308472,1.928101-4.308472,4.30751
			c0,2.214996,1.678467,4.016861,3.829956,4.257065l-0.000977,38.376663c-2.150513,0.241165-3.828979,2.044937-3.828979,4.259857
			c0.000916,2.377594,1.928955,4.304733,4.307495,4.304733c2.378479,0.001801,4.306519-1.927139,4.306519-4.306564
			C564.765198,251.120926,563.087585,249.319061,560.937195,249.077896z"/>
		<path style="fill:#FFFFFF;" d="M576.24939,256.733978V218.3582c2.150391-0.241074,3.828003-2.042938,3.827087-4.258896
			c0.000916-2.378448-1.926208-4.305603-4.305603-4.305603c-2.378601,0-4.305603,1.927155-4.305603,4.305603
			c0,2.215958,1.675598,4.017822,3.826111,4.258026l0.000977,38.378571c-2.151489,0.239258-3.827087,2.042084-3.827087,4.257935
			c-0.000977,2.377594,1.927002,4.305603,4.306519,4.305603c2.377502,0.000946,4.304688-1.927032,4.305603-4.305603
			C580.076477,258.777985,578.39978,256.975159,576.24939,256.733978z"/>
		<path style="fill:#FFFFFF;" d="M490.829437,266.221893l27.137543-27.136536c1.688721,1.351395,4.150452,1.26268,5.716797-0.303665
			c1.682251-1.681381,1.682251-4.408478,0-6.089752c-1.682251-1.683197-4.409363-1.683197-6.089783-0.000961
			c-1.566345,1.566345-1.656006,4.028061-0.30365,5.717758l-27.13559,27.136551
			c-1.693542-1.349548-4.153351-1.261719-5.719666,0.304626c-1.682251,1.68222-1.682251,4.408478,0,6.089752
			c1.681274,1.68222,4.407501,1.68222,6.089752,0C492.091187,270.374268,492.179016,267.913513,490.829437,266.221893z"/>
		<path style="fill:#FFFFFF;" d="M493.896759,244.244308h38.378693c0.239258,2.151367,2.041931,3.829865,4.256958,3.829865
			c2.377625,0,4.30658-1.92894,4.307495-4.308365c-0.000916-2.37854-1.928955-4.306549-4.307495-4.305695
			c-2.215027-0.000854-4.018677,1.678513-4.256958,3.827194h-38.378693c-0.239258-2.148682-2.042938-3.828049-4.257935-3.827194
			c-2.379425,0-4.304626,1.928116-4.306549,4.305695c0,2.379425,1.927124,4.306549,4.306549,4.306549
			C491.853821,248.074173,493.656555,246.395676,493.896759,244.244308z"/>
		<path style="fill:#FFFFFF;" d="M575.24469,275.826569h38.375793c0.241089,2.151459,2.042969,3.82901,4.257935,3.82901
			c2.377625,0,4.30658-1.928955,4.30658-4.307526c0-2.378448-1.92804-4.305573-4.305603-4.305573
			c-2.215942,0-4.019653,1.677521-4.258911,3.827087l-38.37677,0.000946c-0.24115-2.151367-2.04303-3.828033-4.25885-3.828033
			c-2.378601,0-4.305603,1.927124-4.30658,4.305573c0.000977,2.378571,1.927979,4.305695,4.30658,4.307526
			C573.199829,279.655579,575.00354,277.978027,575.24469,275.826569z"/>
		<path style="fill:#FFFFFF;" d="M527.405273,261.154633l27.137451,27.138367c-1.35144,1.689697-1.26355,4.151398,0.303711,5.715942
			c1.681396,1.68222,4.407532,1.68222,6.089783,0.000854c1.682251-1.683197,1.682251-4.409332,0-6.090607
			c-1.565369-1.566345-4.0271-1.654205-5.716797-0.302795l-27.137512-27.138397
			c1.350525-1.689789,1.262695-4.151398-0.304626-5.71785c-1.682312-1.681274-4.407532-1.680313-6.088806,0
			c-1.683167,1.682327-1.682312,4.407516-0.002869,6.088791C523.251953,262.417206,525.714661,262.506012,527.405273,261.154633z"/>
		<path style="fill:#FFFFFF;" d="M651.853333,257.924713l-27.136597,27.136536
			c-1.689697-1.351471-4.150452-1.263641-5.716797,0.302795c-1.684143,1.681305-1.683167,4.409332-0.000916,6.091583
			c1.681274,1.681274,4.408325,1.681274,6.090698,0c1.566345-1.566345,1.656006-4.029877,0.30365-5.717773l27.136536-27.136536
			c1.690674,1.349579,4.152405,1.261719,5.71875-0.305573c1.68042-1.682251,1.68042-4.408478-0.000977-6.088806
			c-1.681274-1.682236-4.408386-1.683197-6.088806-0.001907C650.592529,253.771362,650.503723,256.233093,651.853333,257.924713z"/>
		<path style="fill:#FFFFFF;" d="M638.455139,203.373108l-27.137512,27.137512
			c-1.687805-1.35054-4.149475-1.26268-5.716797,0.303757c-1.681274,1.682251-1.683167,4.408371-0.000977,6.090607
			c1.683228,1.683197,4.411255,1.683197,6.091675,0c1.565369-1.565384,1.65509-4.0271,0.30365-5.716797l27.137512-27.137512
			c1.690674,1.35054,4.151428,1.261719,5.716797-0.30365c1.683228-1.683197,1.682251-4.409439,0-6.091675
			c-1.681274-1.680328-4.407471-1.682236-6.088745,0C637.19342,199.221695,637.106506,201.683411,638.455139,203.373108z"/>
		<path style="fill:#FFFFFF;" d="M665.30011,263.386383h-38.377747c-0.240173-2.151367-2.042053-3.828064-4.256958-3.828064
			c-2.379517,0-4.30658,1.927155-4.307495,4.306549c0.000916,2.377594,1.929871,4.306549,4.30835,4.306549
			c2.21405,0,4.016846-1.676575,4.256104-3.828033h38.378601c0.239258,2.150513,2.04303,3.828033,4.257996,3.828033
			c2.377502-0.000946,4.305603-1.928955,4.304688-4.306549c0-2.379395-1.927185-4.306549-4.302856-4.305573
			C667.343994,259.558319,665.540222,261.235016,665.30011,263.386383z"/>
		<path style="fill:#FFFFFF;" d="M583.954102,231.803162l-38.378662,0.000854
			c-0.237366-2.150406-2.041138-3.828903-4.256042-3.828903c-2.37854,0-4.30658,1.92897-4.308472,4.307419
			c0.001892,2.378555,1.929932,4.30751,4.308472,4.306549c2.214905,0,4.018677-1.678497,4.256042-3.828049l38.377686-0.000854
			c0.242981,2.150406,2.044861,3.828903,4.259827,3.828903c2.378479-0.000854,4.304688-1.927994,4.305603-4.307419
			c0-2.379501-1.927124-4.306549-4.305603-4.304733C585.997986,227.975113,584.196106,229.652664,583.954102,231.803162z"/>
		<path style="fill:#FFFFFF;" d="M631.792542,246.476059l-27.136597-27.137497
			c1.350464-1.690659,1.261719-4.152283-0.302795-5.716812c-1.68219-1.682236-4.409302-1.682236-6.091553-0.000961
			c-1.682312,1.684158-1.682312,4.409439,0.000854,6.092529c1.563599,1.564529,4.026245,1.65239,5.716919,0.301956
			l27.136475,27.137405c-1.350464,1.689713-1.262634,4.151413,0.302795,5.717773
			c1.684143,1.68222,4.410278,1.680405,6.089722,0.000961c1.683228-1.683212,1.683228-4.408401,0.001892-6.089767
			C635.94397,245.213486,633.483154,245.124664,631.792542,246.476059z"/>
		<path style="fill:#FFFFFF;" d="M23.563461,173.571762v38.376755c-2.151459,0.239258-3.829004,2.042938-3.829004,4.25795
			c-0.000957,2.377594,1.927996,4.306549,4.30751,4.306549c2.378462,0,4.306553-1.928955,4.306553-4.306549
			c0-2.215881-1.678503-4.018692-3.828047-4.25795l-0.000957-38.377716c2.150501-0.241058,3.829004-2.042923,3.829004-4.258881
			c-0.000957-2.378464-1.929049-4.305588-4.306553-4.305588c-2.379515,0-4.306555,1.927124-4.306555,4.305588
			C19.734457,171.527878,21.412003,173.329742,23.563461,173.571762z"/>
		<path style="fill:#FFFFFF;" d="M84.98037,197.0242l-27.137413,27.137421c-1.690655-1.352356-4.151421-1.26355-5.717762,0.302795
			c-1.681278,1.681274-1.681278,4.407516,0.000957,6.091568c1.682236,1.680435,4.408379,1.680435,6.089657-0.000854
			c1.566437-1.566437,1.654293-4.028061,0.304714-5.716904l27.136551-27.136459
			c1.689697,1.348526,4.151421,1.260666,5.717766-0.305664c1.682236-1.682236,1.680321-4.408386,0-6.088806
			c-1.682236-1.683182-4.407524-1.683182-6.089752-0.001816C83.717789,192.871826,83.628975,195.332596,84.98037,197.0242z"/>
		<path style="fill:#FFFFFF;" d="M49.329857,208.75975H10.951288c-0.240211-2.150497-2.042072-3.828049-4.257077-3.828049
			c-2.378461,0-4.306554,1.927994-4.30751,4.306564c0.001914,2.37941,1.929049,4.306549,4.30751,4.307404
			c2.215004,0,4.016866-1.678497,4.257077-3.828903h38.378571c0.239254,2.149445,2.04303,3.828903,4.257938,3.828903
			c2.378559-0.000854,4.305599-1.929901,4.305599-4.305588c0-2.379425-1.92704-4.306564-4.303684-4.30751
			C51.372887,204.931702,49.569111,206.609253,49.329857,208.75975z"/>
		<path style="fill:#FFFFFF;" d="M58.478413,133.653839l-27.137415-27.137421
			c1.350439-1.689781,1.262587-4.151421-0.303755-5.717758c-1.682236-1.681374-4.409338-1.681374-6.090712,0
			c-1.681278,1.682236-1.681278,4.409332,0,6.091568c1.566341,1.56636,4.027107,1.654198,5.717764,0.302803l27.137508,27.137413
			c-1.351395,1.69075-1.26268,4.15239,0.302799,5.71785c1.682236,1.682236,4.409336,1.68129,6.091572,0
			c1.681374-1.681366,1.682236-4.408463,0-6.090698C62.629833,132.391251,60.16811,132.303406,58.478413,133.653839z"/>
		<path style="fill:#FFFFFF;" d="M74.718613,128.239822l-27.137409-27.136551
			c1.351395-1.690651,1.263542-4.151421-0.302799-5.717758c-1.682236-1.68222-4.409336-1.68222-6.091667,0
			c-1.681278,1.682236-1.680321,4.40847,0.000957,6.089752c1.566341,1.566338,4.027107,1.656105,5.7169,0.30471l27.137413,27.136452
			c-1.350441,1.69162-1.261726,4.151428,0.30471,5.717773c1.681282,1.682236,4.408386,1.682236,6.089661,0
			c1.682335-1.682236,1.682335-4.407425,0.000961-6.089661C78.870995,126.978104,76.409271,126.889389,74.718613,128.239822z"/>
		<path style="fill:#FFFFFF;" d="M7.655814,177.639938l27.136551-27.137436c1.690659,1.352356,4.151421,1.26355,5.717762-0.302795
			c1.682236-1.681366,1.682236-4.408478,0-6.092514c-1.682236-1.680435-4.409336-1.680435-6.090614,0.001801
			c-1.566437,1.566345-1.654289,4.028061-0.303757,5.715942L6.979207,176.962372
			c-1.690657-1.348633-4.152379-1.260788-5.71872,0.305649c-1.681279,1.682236-1.680322,4.407425,0.000957,6.088806
			c1.682236,1.683182,4.407518,1.683182,6.088797,0.000854C8.917539,181.792297,9.00635,179.331528,7.655814,177.639938z"/>
		<path style="fill:#FFFFFF;" d="M87.508408,142.451065l27.136559-27.136528c1.690651,1.351379,4.151321,1.263527,5.717758-0.302818
			c1.682236-1.682236,1.682236-4.408379,0-6.091568c-1.682236-1.681282-4.409431-1.682236-6.091667,0
			c-1.566338,1.566338-1.654198,4.028061-0.302795,5.717773L86.831802,141.77446
			c-1.691612-1.349579-4.153336-1.261719-5.719673,0.304626c-1.68042,1.682236-1.68042,4.408463,0.001816,6.089752
			c1.682327,1.682236,4.407516,1.682236,6.08889,0.001907C88.770042,146.604309,88.858849,144.142685,87.508408,142.451065z"/>
		<path style="fill:#FFFFFF;" d="M109.161766,229.070023l27.137413-27.138458
			c1.690659,1.353302,4.151413,1.263641,5.717758-0.301849c1.681381-1.681274,1.682236-4.408356,0-6.091568
			c-1.682236-1.681381-4.409332-1.681381-6.091568,0.000961c-1.566345,1.565384-1.65419,4.0271-0.302795,5.715851
			l-27.137512,27.138367c-1.690659-1.349487-4.152283-1.261627-5.718719,0.303757
			c-1.680328,1.683182-1.680328,4.408478,0.000954,6.090714c1.683189,1.682236,4.408478,1.682236,6.088799,0.000946
			C110.424347,233.222305,110.512199,230.761551,109.161766,229.070023z"/>
		<path style="fill:#FFFFFF;" d="M43.306423,165.903503h38.377712c0.240112,2.151367,2.042931,3.828918,4.256973,3.828049
			c2.378464,0,4.306557-1.927139,4.307518-4.306549c-0.001915-2.37854-1.929054-4.306549-4.307518-4.306549
			c-2.214043,0-4.016861,1.678497-4.256973,3.828049H43.306423c-0.239254-2.149551-2.04303-3.828049-4.257938-3.828049
			c-2.379513,0.000854-4.306553,1.929916-4.306553,4.305588c0,2.379425,1.92704,4.306549,4.304638,4.30751
			C41.263393,169.732422,43.066212,168.054871,43.306423,165.903503z"/>
		<path style="fill:#FFFFFF;" d="M91.568245,113.961319l27.136459,27.136444c-1.350441,1.689789-1.261627,4.151413,0.30471,5.717773
			c1.681282,1.682312,4.408478,1.682312,6.089752,0c1.682236-1.682251,1.682236-4.409348,0-6.090622
			c-1.566338-1.566345-4.027107-1.655167-5.717758-0.303757l-27.136551-27.136559
			c1.350433-1.691521,1.261719-4.152283-0.303757-5.717758c-1.682236-1.682236-4.408379-1.682236-6.090614,0
			c-1.682236,1.681374-1.682236,4.407516,0,6.089752C87.416824,115.222931,89.877586,115.310783,91.568245,113.961319z"/>
		<path style="fill:#FFFFFF;" d="M129.01976,75.621017v38.375793c-2.150505,0.240211-3.828049,2.042931-3.829002,4.258896
			c0,2.378456,1.928947,4.306549,4.307503,4.30751c2.378464-0.000961,4.307419-1.929054,4.307419-4.30751
			c-0.000854-2.215965-1.678497-4.018684-3.829865-4.257942l0.000961-38.376747
			c2.150406-0.242126,3.828049-2.044853,3.828049-4.259857c-0.000961-2.377594-1.928101-4.305595-4.306564-4.304634
			c-2.378555-0.000961-4.305687,1.92704-4.306549,4.304634C125.190758,73.577026,126.869255,75.378891,129.01976,75.621017z"/>
		<path style="fill:#FFFFFF;" d="M80.973839,65.802261v19.097267c-2.151459,0.239258-3.829002,2.042938-3.829002,4.257957
			c-0.000961,2.377586,1.927994,4.306549,4.30751,4.306549c2.378456,0,4.306549-1.928963,4.306549-4.306549
			c0-2.215881-1.678505-4.0187-3.828049-4.257957l-0.000954-19.098221c2.150497-0.241074,3.829002-2.042934,3.829002-4.258881
			c-0.000954-2.378475-1.929047-4.305595-4.306549-4.305595c-2.379517,0-4.306557,1.92712-4.306557,4.305595
			C77.144836,63.758373,78.82238,65.560234,80.973839,65.802261z"/>
		<path style="fill:#FFFFFF;" d="M142.390747,69.97522l-27.137413,27.137413
			c-1.690659-1.352356-4.151421-1.263542-5.717766,0.302795c-1.681274,1.681282-1.681274,4.407516,0.000961,6.091576
			c1.682236,1.680428,4.408379,1.680428,6.089661-0.000862c1.566437-1.566437,1.654289-4.028061,0.30471-5.716904
			l27.136543-27.136452c1.689713,1.348518,4.151428,1.260666,5.717773-0.305672c1.682236-1.682236,1.680313-4.408379,0-6.088799
			c-1.682236-1.683193-4.407516-1.683193-6.089752-0.001816C141.128159,65.822838,141.039352,68.283607,142.390747,69.97522z"/>
		<path style="fill:#FFFFFF;" d="M62.538246,105.163109l-27.136551,27.137505
			c-1.691616-1.352325-4.151423-1.263626-5.717764,0.302811c-1.682236,1.681274-1.682236,4.408371,0,6.091568
			c1.682236,1.681274,4.409338,1.681274,6.090712-0.000961c1.566341-1.56633,1.654194-4.028061,0.303757-5.716812
			l27.136456-27.137497c1.690655,1.349571,4.152378,1.261734,5.718723-0.304619
			c1.681274-1.682236,1.680412-4.407516-0.000961-6.089745c-1.682236-1.682243-4.407425-1.682243-6.089657-0.000954
			C61.276524,101.010735,61.186852,103.471512,62.538246,105.163109z"/>
		<path style="fill:#FFFFFF;" d="M106.740234,81.71077H68.361664c-0.240211-2.150505-2.042068-3.828049-4.257072-3.828049
			c-2.378464,0-4.306557,1.927994-4.307514,4.306557c0.001915,2.379417,1.92905,4.306549,4.307514,4.307411
			c2.215004,0,4.016861-1.678505,4.257072-3.828911h38.378571c0.23925,2.149452,2.04303,3.828911,4.257942,3.828911
			c2.378555-0.000862,4.305595-1.929909,4.305595-4.305595c0-2.379417-1.92704-4.306557-4.303688-4.30751
			C108.783264,77.882721,106.979485,79.560265,106.740234,81.71077z"/>
		<path style="fill:#FFFFFF;" d="M178.042313,167.387543l0.000961-38.376648c2.149445-0.240219,3.827087-2.043991,3.827087-4.258896
			c0-2.377586-1.928085-4.305695-4.305603-4.305695c-2.379501-0.000862-4.308456,1.928108-4.308456,4.30751
			c0,2.215004,1.678497,4.016861,3.829956,4.25708l-0.000961,38.376648c-2.150497,0.241165-3.828995,2.044952-3.828995,4.259857
			c0.000946,2.377594,1.928955,4.304733,4.30751,4.304733c2.378464,0.001816,4.306549-1.927139,4.306549-4.306549
			C181.870361,169.430573,180.192719,167.628708,178.042313,167.387543z"/>
		<path style="fill:#FFFFFF;" d="M193.354507,175.04364v-38.375793c2.150406-0.241074,3.828049-2.042938,3.827087-4.258896
			c0.000961-2.378448-1.926178-4.305588-4.305603-4.305588c-2.378555,0-4.305588,1.927139-4.305588,4.305588
			c0,2.215958,1.675629,4.017822,3.826126,4.258041l0.000961,38.378571c-2.151459,0.239243-3.827087,2.042068-3.827087,4.257935
			c-0.000961,2.377594,1.927032,4.305588,4.306549,4.305588c2.377502,0.000961,4.304642-1.927032,4.305603-4.305588
			C197.181595,177.087631,195.504913,175.284805,193.354507,175.04364z"/>
		<path style="fill:#FFFFFF;" d="M107.934586,184.531555l27.137512-27.136551c1.688736,1.351395,4.150467,1.26268,5.716797-0.303665
			c1.682236-1.681366,1.682236-4.408478,0-6.089752c-1.682236-1.683197-4.409332-1.683197-6.089752-0.000961
			c-1.56633,1.566345-1.656006,4.028076-0.30365,5.717773l-27.135597,27.136551
			c-1.693527-1.349564-4.153336-1.261734-5.719681,0.304611c-1.682236,1.682236-1.682236,4.408493,0,6.089752
			c1.681282,1.682236,4.407516,1.682236,6.089752,0C109.196312,188.683929,109.284164,186.22316,107.934586,184.531555z"/>
		<path style="fill:#FFFFFF;" d="M137.847809,222.567123l27.136459-27.136444
			c1.690659,1.349487,4.152374,1.261627,5.717865-0.304718c1.68309-1.681274,1.681274-4.408386,0-6.091568
			c-1.682343-1.68042-4.408478-1.681381-6.090714,0.000946c-1.567307,1.567322-1.655151,4.028931-0.303757,5.718628
			l-27.136551,27.136551c-1.691528-1.349472-4.153244-1.261612-5.719589,0.304718
			c-1.68042,1.680313-1.68042,4.407425,0.001816,6.089767c1.681381,1.681259,4.407532,1.680313,6.090714,0
			C139.109436,226.718552,139.198257,224.257782,137.847809,222.567123z"/>
		<path style="fill:#FFFFFF;" d="M111.001907,162.55397h38.378662c0.239258,2.151352,2.041977,3.829865,4.256989,3.829865
			c2.377594,0,4.306549-1.928955,4.30751-4.30838c-0.000961-2.37854-1.928955-4.306549-4.30751-4.305695
			c-2.215012-0.000854-4.018692,1.678513-4.256989,3.827194h-38.378662c-0.239258-2.148682-2.042938-3.828049-4.257942-3.827194
			c-2.379417,0-4.304634,1.928116-4.306549,4.305695c0,2.379425,1.927132,4.306564,4.306549,4.306564
			C108.958969,166.383835,110.761696,164.705322,111.001907,162.55397z"/>
		<path style="fill:#FFFFFF;" d="M192.349838,194.136215h38.375793c0.241074,2.151459,2.042923,3.82901,4.257935,3.82901
			c2.377594,0,4.306549-1.928955,4.306549-4.30751c0-2.378448-1.927994-4.305603-4.305588-4.305603
			c-2.215973,0-4.019653,1.677551-4.258896,3.827103l-38.376755,0.000946c-0.241165-2.151352-2.04303-3.828049-4.258896-3.828049
			c-2.378555,0-4.305603,1.927155-4.306549,4.305603c0.000946,2.378555,1.927994,4.305695,4.306549,4.30751
			C190.304993,197.965225,192.108673,196.287674,192.349838,194.136215z"/>
		<path style="fill:#FFFFFF;" d="M144.510437,179.464264l27.137405,27.138382
			c-1.351395,1.689697-1.263535,4.151413,0.303757,5.715942c1.681381,1.682236,4.407516,1.682236,6.089752,0.000854
			c1.682236-1.683182,1.682236-4.409332,0-6.090607c-1.565384-1.566345-4.0271-1.654205-5.716797-0.302811l-27.137512-27.138367
			c1.35054-1.689789,1.26268-4.151413-0.304611-5.71785c-1.682343-1.68129-4.407532-1.680328-6.088806,0
			c-1.683197,1.682327-1.682327,4.407516-0.002869,6.088791C140.357101,180.726852,142.819778,180.815674,144.510437,179.464264z"/>
		<path style="fill:#FFFFFF;" d="M215.364822,176.86235v38.376755c-2.149551,0.240204-3.827087,2.043976-3.828049,4.257935
			c0.000961,2.378555,1.928955,4.30751,4.306549,4.306549c2.379425-0.000854,4.30751-1.927994,4.30751-4.307419
			c0-2.213089-1.677643-4.016861-3.828995-4.257065V176.86235c2.151352-0.241074,3.828995-2.044846,3.828995-4.257935
			c0-2.37941-1.928085-4.30751-4.30751-4.306564c-2.377594,0-4.304642,1.927155-4.305588,4.306564
			C211.536774,174.818451,213.215271,176.621277,215.364822,176.86235z"/>
		<path style="fill:#FFFFFF;" d="M255.560272,121.682762l-27.137497,27.137505
			c-1.68779-1.350525-4.149506-1.26268-5.716812,0.303757c-1.681274,1.682251-1.683197,4.408386-0.000961,6.090622
			c1.683197,1.683182,4.411255,1.683182,6.091675,0c1.565384-1.565384,1.65506-4.027115,0.303665-5.716812l27.137512-27.137505
			c1.690643,1.350533,4.151398,1.261726,5.716797-0.303642c1.683197-1.683212,1.68222-4.409454,0-6.09169
			c-1.681274-1.680321-4.407532-1.682236-6.088791,0C254.298553,117.531342,254.211655,119.993065,255.560272,121.682762z"/>
		<path style="fill:#FFFFFF;" d="M201.059219,150.112808l-38.378677,0.00087
			c-0.237335-2.150406-2.041107-3.828918-4.256012-3.828918c-2.378555,0-4.306564,1.92897-4.308472,4.307419
			c0.001907,2.378555,1.929916,4.30751,4.308472,4.306549c2.214905,0,4.018677-1.678497,4.256012-3.828049l38.377716-0.000854
			c0.242981,2.150406,2.044846,3.828903,4.259857,3.828903c2.378464-0.000854,4.304642-1.927994,4.305588-4.307404
			c0-2.379501-1.927124-4.306564-4.305588-4.304749C203.103104,146.28476,201.301239,147.962311,201.059219,150.112808z"/>
		<path style="fill:#FFFFFF;" d="M248.897659,164.785721l-27.136551-27.137512
			c1.350433-1.690659,1.261719-4.152283-0.302795-5.716812c-1.682236-1.682236-4.409348-1.682236-6.091583-0.000946
			c-1.682327,1.684143-1.682327,4.409424,0.00087,6.092529c1.563568,1.564514,4.026245,1.652374,5.716904,0.301956
			l27.136444,27.13739c-1.350433,1.689713-1.262573,4.151428,0.302811,5.717773
			c1.684143,1.68222,4.410294,1.680405,6.089752,0.000961c1.683182-1.683212,1.683182-4.408401,0.001907-6.089767
			C253.049088,163.523132,250.588318,163.434326,248.897659,164.785721z"/>
		<path style="fill:#FFFFFF;" d="M281.433197,230.640106l-27.137421-27.136551
			c1.351395-1.690659,1.26355-4.151428-0.302795-5.717773c-1.682236-1.68222-4.409332-1.68222-6.091675,0
			c-1.681274,1.682236-1.680313,4.408478,0.000961,6.089752c1.566345,1.566345,4.027115,1.656113,5.716904,0.304718
			l27.137421,27.136459c-1.350433,1.691605-1.261719,4.151413,0.304718,5.717758c1.681274,1.682236,4.408356,1.682236,6.089661,0
			c1.682312-1.682236,1.682312-4.407425,0.000946-6.089661C285.585571,229.378372,283.12384,229.289658,281.433197,230.640106z"/>
		<path style="fill:#FFFFFF;" d="M340.733368,162.167007v38.375793c-2.150482,0.240204-3.828033,2.042923-3.828979,4.258881
			c0,2.378464,1.928955,4.306564,4.307495,4.307526c2.378479-0.000961,4.307434-1.929062,4.307434-4.307526
			c-0.000885-2.215958-1.678528-4.018677-3.829895-4.257935l0.000977-38.37674
			c2.150391-0.242126,3.828033-2.044861,3.828033-4.259857c-0.000946-2.377609-1.92807-4.305603-4.306549-4.304642
			c-2.37854-0.000961-4.305695,1.927032-4.306549,4.304642C336.904388,160.123016,338.582886,161.924881,340.733368,162.167007z"/>
		<path style="fill:#FFFFFF;" d="M292.687469,133.068771v38.37674c-2.151459,0.239258-3.82901,2.042938-3.82901,4.257965
			c-0.000946,2.377579,1.927979,4.306549,4.307495,4.306549c2.378479,0,4.30658-1.92897,4.30658-4.306549
			c0-2.215881-1.678528-4.018707-3.828064-4.257965l-0.000946-38.377701c2.150482-0.241074,3.82901-2.042938,3.82901-4.258881
			c-0.000977-2.378479-1.929077-4.305595-4.30658-4.305595c-2.379517,0-4.306549,1.927116-4.306549,4.305595
			C288.858459,131.024872,290.536011,132.826736,292.687469,133.068771z"/>
		<path style="fill:#FFFFFF;" d="M354.10437,156.52121l-27.137421,27.137405
			c-1.690643-1.352356-4.151428-1.263535-5.717743,0.302795c-1.681305,1.68129-1.681305,4.407516,0.000946,6.091583
			c1.68222,1.68042,4.408386,1.68042,6.089661-0.00087c1.566437-1.566437,1.654297-4.028061,0.304718-5.716904l27.136536-27.136444
			c1.689697,1.348511,4.151428,1.260666,5.717773-0.305679c1.68222-1.682236,1.680328-4.408371,0-6.088791
			c-1.682251-1.683197-4.407532-1.683197-6.089752-0.001816C352.841797,152.36882,352.75296,154.82959,354.10437,156.52121z"/>
		<path style="fill:#FFFFFF;" d="M318.453857,168.25676h-38.378571c-0.240204-2.150513-2.042084-3.828049-4.25708-3.828049
			c-2.378448,0-4.306549,1.927994-4.307495,4.306549c0.001892,2.379425,1.929047,4.306549,4.307495,4.307419
			c2.214996,0,4.016876-1.678513,4.25708-3.828918h38.378571c0.239258,2.14946,2.04303,3.828918,4.257935,3.828918
			c2.378571-0.00087,4.305603-1.929916,4.305603-4.305603c0-2.37941-1.927032-4.306549-4.30368-4.30751
			C320.496887,164.428711,318.693115,166.106247,318.453857,168.25676z"/>
		<path style="fill:#FFFFFF;" d="M401.572845,187.900635v38.376755c-2.151459,0.239258-3.82901,2.042938-3.82901,4.25795
			c-0.000977,2.377579,1.927979,4.306549,4.307495,4.306549c2.378479,0,4.306549-1.92897,4.306549-4.306549
			c0-2.215881-1.678497-4.018692-3.828033-4.25795l-0.000946-38.377716c2.150482-0.241058,3.828979-2.042923,3.828979-4.258881
			c-0.000946-2.378464-1.929047-4.305588-4.306549-4.305588c-2.379517,0-4.306549,1.927124-4.306549,4.305588
			C397.743835,185.85675,399.421387,187.658615,401.572845,187.900635z"/>
		<path style="fill:#FFFFFF;" d="M427.339233,223.088623h-38.378571c-0.240204-2.150497-2.042084-3.828049-4.25708-3.828049
			c-2.378448,0-4.306549,1.927994-4.307495,4.306549c0.001892,2.379425,1.929047,4.306564,4.307495,4.307419
			c2.214996,0,4.016876-1.678497,4.25708-3.828903h38.378571c0.239258,2.149445,2.04303,3.828903,4.257935,3.828903
			c2.378571-0.000854,4.305603-1.929901,4.305603-4.305588c0-2.379425-1.927032-4.306564-4.30368-4.30751
			C429.382263,219.260574,427.578491,220.938126,427.339233,223.088623z"/>
		<path style="fill:#FFFFFF;" d="M477.716919,225.714752v-38.377701c2.149536-0.238297,3.828033-2.041122,3.828033-4.256989
			c0.000977-2.378555-1.927124-4.306549-4.306549-4.30751c-2.379425,0.000961-4.307495,1.928955-4.306549,4.30751
			c0,2.21492,1.678497,4.018692,3.828033,4.256989v38.377701c-2.150482,0.241074-3.828033,2.0439-3.828033,4.259857
			c0,2.377502,1.928101,4.304642,4.306549,4.304642c2.378571,0,4.306549-1.927139,4.306549-4.304642
			C481.544952,227.758652,479.867401,225.955826,477.716919,225.714752z"/>
		<path style="fill:#FFFFFF;" d="M451.9505,190.525909h38.377716c0.240112,2.151367,2.042938,3.828903,4.256989,3.828049
			c2.378448,0,4.306549-1.927139,4.307526-4.306549c-0.001923-2.378555-1.929077-4.306564-4.307526-4.306564
			c-2.21405,0-4.016876,1.678513-4.256989,3.828049H451.9505c-0.239227-2.149536-2.042999-3.828049-4.257935-3.828049
			c-2.379517,0.00087-4.306549,1.929932-4.306549,4.305603c0,2.37941,1.927032,4.306549,4.304657,4.30751
			C449.907501,194.354813,451.710297,192.677277,451.9505,190.525909z"/>
		<path style="fill:#FFFFFF;" d="M384.756897,122.407982l0.000946-38.376656c2.149445-0.240204,3.827087-2.043983,3.827087-4.258888
			c0-2.377586-1.92807-4.305695-4.305603-4.305695c-2.379517-0.000862-4.308441,1.928108-4.308441,4.30751
			c0,2.215004,1.678497,4.016869,3.829956,4.257072l-0.000977,38.376656c-2.150482,0.241173-3.828979,2.044945-3.828979,4.259857
			c0.000946,2.377602,1.928925,4.304726,4.307495,4.304726c2.378479,0.001831,4.306549-1.927124,4.306549-4.306549
			C388.58493,124.451012,386.907288,122.649155,384.756897,122.407982z"/>
		<path style="fill:#FFFFFF;" d="M400.069092,130.751953V92.37616c2.150391-0.241074,3.828033-2.042931,3.827087-4.258896
			c0.000946-2.378448-1.926178-4.305595-4.305603-4.305595c-2.378571,0-4.305603,1.927147-4.305603,4.305595
			c0,2.215965,1.675629,4.017822,3.826141,4.258034l0.000946,38.378563c-2.151459,0.239258-3.827087,2.042084-3.827087,4.25795
			c-0.000946,2.377594,1.927032,4.305588,4.306549,4.305588c2.377502,0.000961,4.304657-1.927032,4.305603-4.305588
			C403.896179,132.795944,402.219482,130.993118,400.069092,130.751953z"/>
		<path style="fill:#FFFFFF;" d="M399.064423,149.844528h38.375793c0.241058,2.151459,2.042908,3.82901,4.257935,3.82901
			c2.377594,0,4.306549-1.928955,4.306549-4.30751c0-2.378448-1.928009-4.305603-4.305603-4.305603
			c-2.215973,0-4.019653,1.677551-4.258881,3.827103l-38.37677,0.000946c-0.24115-2.151352-2.04303-3.828049-4.258881-3.828049
			c-2.378571,0-4.305603,1.927155-4.306549,4.305603c0.000946,2.378555,1.927979,4.305695,4.306549,4.30751
			C397.019562,153.673538,398.823242,151.995987,399.064423,149.844528z"/>
		<path style="fill:#FFFFFF;" d="M422.079407,132.570663v38.376755c-2.149567,0.240204-3.827087,2.043976-3.828064,4.257935
			c0.000977,2.378555,1.928955,4.30751,4.306549,4.306549c2.379425-0.000854,4.307526-1.927994,4.307526-4.307419
			c0-2.213089-1.677643-4.016861-3.82901-4.257065v-38.376755c2.151367-0.241074,3.82901-2.044846,3.82901-4.257935
			c0-2.37941-1.928101-4.307518-4.307526-4.306557c-2.377594,0-4.304626,1.927147-4.305573,4.306557
			C418.251343,130.526764,419.92984,132.32959,422.079407,132.570663z"/>
		<path style="fill:#FFFFFF;" d="M475.673035,131.942673l-27.136566,27.136551
			c-1.689697-1.351501-4.150452-1.263641-5.716797,0.302795c-1.684143,1.68129-1.683197,4.409332-0.000977,6.091568
			c1.681305,1.681274,4.408386,1.681274,6.090729,0c1.566345-1.566345,1.656006-4.029877,0.30365-5.717758l27.136566-27.136551
			c1.690643,1.349579,4.152374,1.261719,5.718719-0.305557c1.68042-1.682251,1.68042-4.408493-0.000977-6.088814
			c-1.681274-1.682236-4.408356-1.683197-6.088776-0.001915C474.412262,127.78933,474.323456,130.251053,475.673035,131.942673z"/>
		<path style="fill:#FFFFFF;" d="M462.274841,77.391075l-27.137482,27.137512
			c-1.687805-1.35054-4.149506-1.262688-5.716827,0.303749c-1.681274,1.682251-1.683197,4.408386-0.000946,6.090614
			c1.683197,1.683197,4.411255,1.683197,6.091675,0c1.565369-1.565384,1.65506-4.0271,0.30365-5.716805l27.137512-27.137505
			c1.690643,1.350533,4.151428,1.261726,5.716797-0.30365c1.683197-1.683205,1.682251-4.409447,0-6.091682
			c-1.681274-1.680321-4.407501-1.682236-6.088776,0C461.013123,73.239655,460.926239,75.701378,462.274841,77.391075z"/>
		<path style="fill:#FFFFFF;" d="M489.119812,137.404343h-38.377716c-0.240204-2.151367-2.042084-3.828049-4.256989-3.828049
			c-2.379517,0-4.306549,1.927139-4.307495,4.306549c0.000946,2.377594,1.929901,4.306549,4.30835,4.306549
			c2.21405,0,4.016876-1.67659,4.256134-3.828049h38.378571c0.239258,2.150497,2.04303,3.828049,4.258026,3.828049
			c2.377502-0.000961,4.305603-1.928955,4.304657-4.306549c0-2.37941-1.927155-4.306549-4.302826-4.305603
			C491.163696,133.576294,489.359924,135.252975,489.119812,137.404343z"/>
		<path style="fill:#FFFFFF;" d="M407.773804,105.821121l-38.378693,0.000862
			c-0.237335-2.150406-2.041107-3.828903-4.256012-3.828903c-2.37854,0-4.306549,1.928963-4.308472,4.307411
			c0.001923,2.378555,1.929932,4.30751,4.308472,4.306557c2.214905,0,4.018677-1.678505,4.256012-3.828049l38.377716-0.000862
			c0.242981,2.150406,2.044861,3.828911,4.259857,3.828911c2.378479-0.000862,4.304626-1.928001,4.305603-4.307419
			c0-2.379501-1.927124-4.306549-4.305603-4.304733C409.817688,101.99308,408.015808,103.670624,407.773804,105.821121z"/>
		<path style="fill:#FFFFFF;" d="M455.612244,120.494034l-27.136566-27.137512
			c1.350433-1.690659,1.261719-4.152283-0.302795-5.716805c-1.68222-1.682236-4.409332-1.682236-6.091583-0.000961
			c-1.682312,1.684151-1.682312,4.409439,0.000885,6.092529c1.563568,1.564529,4.026245,1.652382,5.716888,0.301956
			l27.136444,27.137398c-1.350433,1.689713-1.262573,4.151421,0.302826,5.717781
			c1.684143,1.682213,4.410278,1.680397,6.089752,0.000954c1.683167-1.683205,1.683167-4.408394,0.001892-6.089767
			C459.763641,119.231445,457.302887,119.142632,455.612244,120.494034z"/>
		<path style="fill:#FFFFFF;" d="M429.670044,180.338089v-38.37674c2.150482-0.239243,3.828033-2.042938,3.828979-4.25795
			c0.000977-2.378464-1.927979-4.306549-4.307495-4.30751c-2.378448,0.000961-4.306549,1.929047-4.306549,4.30751
			c0,2.215012,1.678497,4.018707,3.828033,4.25795v38.37674c-2.149536,0.242035-3.828033,2.043991-3.828033,4.258896
			c0.000946,2.377594,1.929047,4.306549,4.306549,4.305603c2.378571,0.000946,4.306549-1.928009,4.306549-4.305603
			C433.498077,182.38208,431.820526,180.580124,429.670044,180.338089z"/>
		<path style="fill:#FFFFFF;" d="M496.152496,150.795044l27.136566-27.136543
			c1.690674,1.351379,4.151306,1.263527,5.717773-0.302811c1.68219-1.682236,1.68219-4.408379,0-6.091576
			c-1.682251-1.681274-4.409424-1.682236-6.091675,0c-1.566345,1.566345-1.654236,4.028069-0.302795,5.717781l-27.136475,27.136528
			c-1.69162-1.349564-4.15332-1.261719-5.719666,0.304626c-1.68042,1.682236-1.68042,4.408478,0.001801,6.089752
			c1.682343,1.682236,4.407532,1.682236,6.088898,0.001907C497.414124,154.948273,497.50293,152.486649,496.152496,150.795044z"/>
		<path style="fill:#FFFFFF;" d="M500.212341,122.30529l27.136475,27.136436
			c-1.350464,1.689804-1.261658,4.151428,0.304688,5.717773c1.681274,1.682327,4.408508,1.682327,6.089783,0
			c1.68219-1.682251,1.68219-4.409348,0-6.090622c-1.566345-1.566345-4.027161-1.655151-5.717773-0.303757l-27.136566-27.136551
			c1.350433-1.691521,1.261719-4.152283-0.303741-5.717766c-1.682251-1.682236-4.408386-1.682236-6.090637,0
			c-1.68222,1.681374-1.68222,4.407516,0,6.089752C496.060913,123.566902,498.521667,123.654755,500.212341,122.30529z"/>
		<path style="fill:#FFFFFF;" d="M537.663879,83.964981v38.375793c-2.150513,0.240211-3.828064,2.042938-3.829041,4.258896
			c0,2.378464,1.928955,4.306549,4.307495,4.30751c2.378479-0.000961,4.307434-1.929047,4.307434-4.30751
			c-0.000854-2.215958-1.678528-4.018684-3.829834-4.257935l0.000916-38.376755
			c2.150391-0.242119,3.828064-2.044846,3.828064-4.25985c-0.000977-2.377602-1.928101-4.305595-4.30658-4.304642
			c-2.37854-0.000954-4.305664,1.92704-4.306519,4.304642C533.834839,81.920998,535.513367,83.722862,537.663879,83.964981z"/>
		<path style="fill:#FFFFFF;" d="M489.61792,54.866749V93.2435c-2.151459,0.23925-3.828979,2.042931-3.828979,4.25795
			c-0.000977,2.377586,1.927979,4.306557,4.307495,4.306557c2.378448,0,4.306549-1.92897,4.306549-4.306557
			c0-2.215874-1.678497-4.0187-3.828033-4.25795l-0.000977-38.377708c2.150513-0.24107,3.82901-2.042931,3.82901-4.258881
			c-0.000946-2.378475-1.929047-4.305595-4.306549-4.305595c-2.379517,0-4.306549,1.92712-4.306549,4.305595
			C485.78894,52.822861,487.466461,54.624722,489.61792,54.866749z"/>
		<path style="fill:#FFFFFF;" d="M551.034851,78.319183L523.8974,105.456596
			c-1.690613-1.352348-4.151367-1.263542-5.717712,0.302803c-1.681274,1.681274-1.681274,4.407516,0.000916,6.091568
			c1.682251,1.680435,4.408386,1.680435,6.089661-0.000862c1.566467-1.566437,1.654297-4.028061,0.304749-5.716896
			l27.136536-27.136459c1.689697,1.348526,4.151428,1.260674,5.717773-0.305672c1.682251-1.682228,1.680298-4.408379,0-6.088791
			c-1.682251-1.683197-4.407532-1.683197-6.089783-0.001823C549.772278,74.166809,549.683472,76.627571,551.034851,78.319183z"/>
		<path style="fill:#FFFFFF;" d="M515.384338,90.054733h-38.378571c-0.240234-2.150497-2.042084-3.828041-4.25708-3.828041
			c-2.378479,0-4.306549,1.927994-4.307526,4.306549c0.001923,2.379417,1.929047,4.306557,4.307526,4.307419
			c2.214996,0,4.016846-1.678505,4.25708-3.828911h38.378571c0.239258,2.149445,2.04303,3.828911,4.257935,3.828911
			c2.37854-0.000862,4.305603-1.929909,4.305603-4.305595c0-2.379425-1.927063-4.306557-4.303711-4.30751
			C517.427368,86.226692,515.623596,87.904236,515.384338,90.054733z"/>
		<path style="fill:#FFFFFF;" d="M185.217972,52.683491l0.000961-38.376656c2.149445-0.24021,3.827087-2.043986,3.827087-4.258894
			c0-2.377585-1.928085-4.305693-4.305588-4.305693c-2.379517-0.000861-4.308472,1.928107-4.308472,4.30751
			c0,2.215004,1.678497,4.016867,3.829956,4.257076l-0.000961,38.376656c-2.150497,0.241165-3.828995,2.044941-3.828995,4.25985
			c0.000961,2.377602,1.928955,4.304737,4.30751,4.304737c2.378464,0.001816,4.306549-1.927135,4.306549-4.306553
			C189.046021,54.726521,187.368378,52.924656,185.217972,52.683491z"/>
		<path style="fill:#FFFFFF;" d="M200.530167,60.339584V21.963791c2.150406-0.241072,3.828049-2.042933,3.827087-4.258894
			c0.000961-2.378447-1.926178-4.305597-4.305588-4.305597c-2.378571,0-4.305603,1.927151-4.305603,4.305597
			c0,2.215961,1.675629,4.017822,3.826141,4.258032l0.000946,38.378571c-2.151459,0.239254-3.827087,2.042072-3.827087,4.257935
			c-0.000961,2.377602,1.927032,4.305603,4.306549,4.305603c2.377502,0.000954,4.304642-1.92704,4.305603-4.305603
			C204.357254,62.383572,202.680573,60.580753,200.530167,60.339584z"/>
		<path style="fill:#FFFFFF;" d="M115.110245,69.827499l27.137512-27.136555c1.688736,1.351398,4.150467,1.262684,5.716812-0.303658
			c1.682236-1.681374,1.682236-4.408478,0-6.089756c-1.682236-1.683193-4.409348-1.683193-6.089752-0.000957
			c-1.566345,1.566341-1.656021,4.028065-0.303665,5.717766l-27.135597,27.136547
			c-1.693527-1.349556-4.153336-1.261719-5.719681,0.304619c-1.682236,1.682236-1.682236,4.408493,0,6.089752
			c1.681282,1.682236,4.407524,1.682236,6.08976,0C116.371971,73.979874,116.459824,71.519112,115.110245,69.827499z"/>
		<path style="fill:#FFFFFF;" d="M118.177567,47.849911h38.378662c0.239258,2.151363,2.041977,3.829865,4.256989,3.829865
			c2.377594,0,4.306549-1.928951,4.30751-4.308372c-0.000961-2.37854-1.928955-4.306553-4.30751-4.305691
			c-2.215012-0.000862-4.018692,1.678505-4.256989,3.827187h-38.378662c-0.23925-2.148682-2.042931-3.828049-4.257935-3.827187
			c-2.379417,0-4.304642,1.928108-4.306557,4.305691c0,2.379421,1.927139,4.306557,4.306557,4.306557
			C116.134636,51.679775,117.937355,50.001274,118.177567,47.849911z"/>
		<path style="fill:#FFFFFF;" d="M199.525497,79.432167h38.375793c0.241074,2.151459,2.042938,3.829002,4.257935,3.829002
			c2.377609,0,4.306549-1.928955,4.306549-4.30751c0-2.378448-1.927994-4.305595-4.305588-4.305595
			c-2.215958,0-4.019638,1.677544-4.258896,3.827087l-38.376755,0.000961c-0.241165-2.151367-2.04303-3.828049-4.258896-3.828049
			c-2.378555,0-4.305588,1.927147-4.306549,4.305595c0.000961,2.378555,1.927994,4.305695,4.306549,4.30751
			C197.480652,83.261169,199.284332,81.583626,199.525497,79.432167z"/>
		<path style="fill:#FFFFFF;" d="M151.686096,64.760216l27.137405,27.138367c-1.351395,1.689705-1.263535,4.151421,0.303757,5.71595
			c1.681381,1.682236,4.407532,1.682236,6.089767,0.000854c1.68222-1.683189,1.68222-4.409332,0-6.090614
			c-1.565399-1.566338-4.027115-1.65419-5.716812-0.302795l-27.137512-27.138367c1.35054-1.6898,1.26268-4.151424-0.304611-5.717861
			c-1.682343-1.681278-4.407516-1.680321-6.088806,0c-1.683182,1.682331-1.682327,4.407516-0.002869,6.088795
			C147.532761,66.022804,149.995438,66.11161,151.686096,64.760216z"/>
		<path style="fill:#FFFFFF;" d="M276.134094,61.5303l-27.136536,27.136547c-1.689697-1.351486-4.150467-1.263634-5.716812,0.302803
			c-1.684143,1.681297-1.683182,4.409332-0.000946,6.091568c1.681274,1.681282,4.408371,1.681282,6.090698,0
			c1.566345-1.566338,1.656021-4.029877,0.303665-5.717758l27.136566-27.136555
			c1.690643,1.349579,4.152374,1.261726,5.718719-0.305557c1.680389-1.682251,1.680389-4.408489-0.000977-6.088814
			c-1.681274-1.682232-4.408386-1.683189-6.088776-0.001911C274.873352,57.376965,274.784515,59.838684,276.134094,61.5303z"/>
		<path style="fill:#FFFFFF;" d="M262.735931,6.978707l-27.137497,27.137508c-1.68779-1.350536-4.149506-1.26268-5.716812,0.303757
			c-1.681274,1.682251-1.683182,4.408379-0.000946,6.090614c1.683182,1.683193,4.41124,1.683193,6.09166,0
			c1.565384-1.565384,1.65506-4.027107,0.303665-5.716805l27.137512-27.13751
			c1.690643,1.350535,4.151428,1.261725,5.716797-0.303645c1.683197-1.683208,1.682251-4.409448,0-6.091683
			c-1.681274-1.680322-4.407501-1.682236-6.088806,0C261.474213,2.827285,261.387329,5.289007,262.735931,6.978707z"/>
		<path style="fill:#FFFFFF;" d="M289.580902,66.991966h-38.377716c-0.240219-2.15136-2.042084-3.828049-4.256989-3.828049
			c-2.379517,0-4.306549,1.927155-4.30751,4.306557c0.000961,2.377602,1.929916,4.306549,4.30838,4.306549
			c2.214035,0,4.016861-1.67659,4.256119-3.828049h38.378571c0.239258,2.150505,2.04303,3.828049,4.258026,3.828049
			c2.377502-0.000954,4.305603-1.928947,4.304657-4.306549c0-2.379402-1.927155-4.306557-4.302826-4.305599
			C291.624786,63.163918,289.821014,64.840607,289.580902,66.991966z"/>
		<path style="fill:#FFFFFF;" d="M208.234879,35.408756l-38.378662,0.000862c-0.23735-2.150406-2.041122-3.828911-4.256027-3.828911
			c-2.378555,0-4.306549,1.92897-4.308472,4.307415c0.001923,2.378559,1.929916,4.30751,4.308472,4.306553
			c2.214905,0,4.018677-1.678501,4.256027-3.828049l38.377701-0.000858c0.242996,2.150406,2.044846,3.828907,4.259857,3.828907
			c2.378464-0.000862,4.304642-1.927994,4.305588-4.307415c0-2.379498-1.927124-4.306553-4.305588-4.304735
			C210.278763,31.580708,208.476913,33.258255,208.234879,35.408756z"/>
		<path style="fill:#FFFFFF;" d="M256.073334,50.081661l-27.136566-27.137506
			c1.350433-1.690659,1.261719-4.152285-0.302795-5.716806c-1.682236-1.682237-4.409332-1.682237-6.091568-0.000957
			c-1.682343,1.684149-1.682343,4.409431,0.000854,6.092529c1.563568,1.564522,4.026245,1.652376,5.716904,0.301952
			l27.136459,27.137398c-1.350449,1.689716-1.262589,4.151421,0.302795,5.717777
			c1.684158,1.68222,4.410294,1.680401,6.089767,0.000957c1.683167-1.683208,1.683167-4.408394,0.001892-6.089767
			C260.224731,48.819077,257.763977,48.730267,256.073334,50.081661z"/>
	</g>
</g>
</svg>
