<?xml version="1.0" encoding="iso-8859-1"?>
<!-- Generator: Adobe Illustrator 17.1.0, SVG Export Plug-In . SVG Version: 6.00 Build 0)  -->
<!DOCTYPE svg PUBLIC "-//W3C//DTD SVG 1.1//EN" "http://www.w3.org/Graphics/SVG/1.1/DTD/svg11.dtd">
<svg version="1.1" id="Layer_1" xmlns="http://www.w3.org/2000/svg" xmlns:xlink="http://www.w3.org/1999/xlink" x="0px" y="0px"
	 viewBox="0 0 32 32" style="enable-background:new 0 0 32 32;" xml:space="preserve">
<g>
	<path d="M24.643799,0.025247c-3.595337-0.281372-6.734497,1.817383-8.019653,4.886169
		c-0.325195,0.776611-1.138611,1.217407-1.978027,1.151733c0,0-0.000549,0-0.000793,0
		c-0.509766-0.038208-1.035156-0.059265-1.577881-0.060852c-0.020447-0.000061-0.038879-0.002319-0.059387-0.002319
		l0.000305,0.000305c-0.002869,0-0.005493-0.000305-0.008362-0.000305c-8.504578,0-13,4.495422-13,12.999999s4.495422,13,13,13
		s13-4.495422,13-13c0-0.002869-0.000305-0.005493-0.000305-0.008362L26,18.99192c0-0.020508-0.002258-0.03894-0.002319-0.059387
		c-0.001587-0.542725-0.022644-1.068115-0.060852-1.577881c0-0.000244,0-0.000549,0-0.000549
		c-0.065674-0.839661,0.375122-1.653075,1.151733-1.978271c3.068787-1.285156,5.167542-4.424316,4.886169-8.019653
		C31.673157,3.501687,28.498291,0.326821,24.643799,0.025247z"/>
</g>
</svg>
