<?xml version="1.0" encoding="iso-8859-1"?>
<!-- Generator: Adobe Illustrator 17.1.0, SVG Export Plug-In . SVG Version: 6.00 Build 0)  -->
<!DOCTYPE svg PUBLIC "-//W3C//DTD SVG 1.1//EN" "http://www.w3.org/Graphics/SVG/1.1/DTD/svg11.dtd">
<svg version="1.1" id="Layer_1" xmlns="http://www.w3.org/2000/svg" xmlns:xlink="http://www.w3.org/1999/xlink" x="0px" y="0px"
	 viewBox="0 0 640 1136" style="enable-background:new 0 0 640 1136;" xml:space="preserve">
<g>
	<g style="opacity:0.1;">
		<path style="fill:#FFFFFF;" d="M293.789124,458.729523v-27.476227c1.540375-0.171295,2.741425-1.462677,2.741425-3.048523
			c0.000671-1.702271-1.380371-3.083344-3.084015-3.083344c-1.702881,0-3.083313,1.381073-3.083313,3.083344
			c0,1.586456,1.201752,2.877228,2.740723,3.048523l0.000702,27.476898c-1.539673,0.172607-2.741425,1.462646-2.741425,3.049194
			c0.000671,1.702881,1.381104,3.082642,3.083313,3.082642c1.703644,0,3.083313-1.379761,3.083313-3.082642
			C296.530548,460.192841,295.329498,458.902802,293.789124,458.729523z"/>
		<path style="fill:#FFFFFF;" d="M249.817062,441.938507l19.429306-19.429321c1.210449,0.968231,2.97226,0.904663,4.093689-0.216797
			c1.203735-1.203705,1.203735-3.155609-0.000671-4.361328c-1.204407-1.203094-3.156219-1.203094-4.359955,0.000641
			c-1.121521,1.12149-1.184418,2.883911-0.21817,4.093079L249.332565,441.4534
			c-1.209747-0.965515-2.972244-0.902588-4.093689,0.218842c-1.204407,1.204407-1.203033,3.156219,0,4.359344
			c1.204422,1.205078,3.155609,1.205078,4.360031,0.001282C250.721024,444.911438,250.784607,443.149628,249.817062,441.938507z"/>
		<path style="fill:#FFFFFF;" d="M275.3414,433.536316h27.477539c0.171997,1.539673,1.462036,2.740723,3.047913,2.740723
			c1.702881,0,3.083313-1.380371,3.083984-3.083313c-0.001373-1.703583-1.381104-3.083313-3.083984-3.083954
			c-1.585876,0-2.875916,1.201752-3.047913,2.741364H275.3414c-0.171295-1.53894-1.462708-2.741364-3.048492-2.741364
			c-1.702972,0.000641-3.082642,1.381744-3.082642,3.082642c0,1.703583,1.379669,3.083313,3.081268,3.084015
			C273.878693,436.277039,275.170105,435.075989,275.3414,433.536316z"/>
		<path style="fill:#FFFFFF;" d="M268.791412,487.309174l19.429321,19.429291
			c-0.966858,1.209808-0.903961,2.97226,0.217468,4.093689c1.204407,1.203796,3.156921,1.203796,4.360718,0
			c1.203705-1.204407,1.203705-3.156891,0-4.361328c-1.12146-1.121429-2.88327-1.184326-4.093719-0.216766l-19.429352-19.429321
			c0.967529-1.21051,0.904022-2.972961-0.216797-4.09375c-1.204407-1.204437-3.156921-1.203735-4.361328,0
			c-1.203796,1.203796-1.204407,3.156281,0,4.360687C265.819153,488.213135,267.581665,488.276001,268.791412,487.309174z"/>
		<path style="fill:#FFFFFF;" d="M257.164062,491.185364l19.429321,19.428711
			c-0.96756,1.210449-0.904663,2.972229,0.216797,4.093689c1.204407,1.204407,3.156891,1.204407,4.361389,0
			c1.203735-1.204407,1.203033-3.156311-0.000702-4.360016c-1.121429-1.12146-2.88324-1.18573-4.093048-0.21817
			l-19.429321-19.428619c0.966858-1.211121,0.903351-2.97226-0.21817-4.093689c-1.203735-1.204437-3.156219-1.204437-4.35994,0
			c-1.204483,1.204407-1.204483,3.155518-0.000687,4.359955C254.191132,492.088715,255.953629,492.152222,257.164062,491.185364z"/>
		<path style="fill:#FFFFFF;" d="M305.178375,455.816864l-19.428711,19.429321
			c-1.210419-0.968231-2.972229-0.904663-4.093689,0.216797c-1.204407,1.203796-1.204407,3.156281,0,4.362
			c1.204437,1.203125,3.156921,1.203125,4.360657-0.001312c1.12149-1.121429,1.184387-2.883911,0.217468-4.092377
			l19.42868-19.429321c1.210449,0.965576,2.972961,0.902679,4.094391-0.218842
			c1.203735-1.204407,1.203033-3.155548-0.000671-4.359344c-1.204437-1.205078-3.155609-1.205078-4.359344-0.00061
			C304.275024,452.843933,304.211456,454.605743,305.178375,455.816864z"/>
		<path style="fill:#FFFFFF;" d="M248.007095,481.010681l-19.428696,19.42868
			c-1.210449-0.967529-2.972183-0.904633-4.093689,0.216797c-1.204422,1.204437-1.204422,3.15625,0,4.361328
			c1.204407,1.203735,3.156967,1.204437,4.361389,0c1.121429-1.121429,1.184341-2.883911,0.216797-4.093689l19.428619-19.42868
			c1.211121,0.966248,2.973618,0.903351,4.095062-0.218109c1.20311-1.204407,1.20311-3.156281-0.001312-4.360016
			c-1.204483-1.204407-3.155609-1.204407-4.359406-0.001373C247.103806,478.03714,247.040222,479.799561,248.007095,481.010681z"/>
		<path style="fill:#FFFFFF;" d="M232.50415,418.994965l-19.429306,19.430054
			c-1.210449-0.968903-2.97226-0.904694-4.093689,0.216125c-1.203796,1.203705-1.204422,3.156189,0,4.361298
			c1.204407,1.203796,3.156906,1.203796,4.361313-0.000671c1.121445-1.120758,1.184341-2.88324,0.216797-4.092316
			l19.429382-19.429993c1.210434,0.966156,2.97287,0.903259,4.094376-0.217468
			c1.203033-1.205109,1.203033-3.156311-0.000687-4.360718c-1.205109-1.204407-3.156296-1.204407-4.359344-0.000702
			C231.600189,416.022095,231.537292,417.783905,232.50415,418.994965z"/>
		<path style="fill:#FFFFFF;" d="M279.653961,464.219666h-27.476913c-0.171921-1.540283-1.462662-2.741333-3.047836-2.740723
			c-1.702881,0-3.083328,1.379761-3.084,3.083313c0.001358,1.702942,1.381119,3.083344,3.084,3.083344
			c1.585175,0,2.875916-1.201752,3.047836-2.740753h27.476913c0.171295,1.539001,1.462708,2.740753,3.048492,2.740753
			c1.703644-0.000641,3.083344-1.381775,3.083344-3.082642c0-1.703583-1.3797-3.083313-3.08197-3.084015
			C281.116669,461.478333,279.825928,462.679382,279.653961,464.219666z"/>
		<path style="fill:#FFFFFF;" d="M245.100403,501.408203l-19.428619-19.428589
			c0.966858-1.209839,0.903275-2.97226-0.218155-4.093719c-1.203735-1.204468-3.156296-1.204468-4.360031,0
			c-1.204407,1.204437-1.204407,3.156921,0,4.360657c1.121445,1.121429,2.883255,1.185028,4.093689,0.217468l19.428696,19.428711
			c-0.966858,1.21106-0.903351,2.97287,0.217484,4.093689c1.204407,1.204407,3.156219,1.204407,4.360626,0
			c1.204422-1.203796,1.204422-3.155609,0-4.360016C248.072662,500.504944,246.310852,500.442047,245.100403,501.408203z"/>
		<path style="fill:#FFFFFF;" d="M218.286621,528.858337v-27.475525c1.539673-0.171997,2.740723-1.462677,2.741409-3.049194
			c0-1.702881-1.381058-3.083344-3.084015-3.084015c-1.702881,0.000671-3.083923,1.381134-3.083923,3.084015
			c0.00061,1.586517,1.201736,2.877197,2.74202,3.048492l-0.000687,27.476227c-1.539597,0.17334-2.740723,1.46405-2.740723,3.049927
			c0.000687,1.702209,1.380432,3.082581,3.083313,3.081909c1.702957,0.000671,3.082718-1.3797,3.083328-3.081909
			C221.02803,530.321777,219.826294,529.031677,218.286621,528.858337z"/>
		<path style="fill:#FFFFFF;" d="M252.685577,535.888184v-13.672913c1.540359-0.171265,2.741425-1.462646,2.741425-3.048523
			c0.000687-1.702209-1.380371-3.083313-3.084015-3.083313c-1.702881,0-3.083313,1.381104-3.083313,3.083313
			c0,1.586487,1.201736,2.877258,2.740723,3.048523l0.000687,13.673584c-1.539673,0.172607-2.741409,1.462646-2.741409,3.049194
			c0.000687,1.702881,1.381119,3.082642,3.083313,3.082642c1.703644,0,3.083328-1.379761,3.083328-3.082642
			C255.427002,537.351501,254.225937,536.061462,252.685577,535.888184z"/>
		<path style="fill:#FFFFFF;" d="M265.884735,507.707397l19.42868-19.429382c1.211151,0.968201,2.97226,0.904694,4.093689-0.216797
			c1.204437-1.203735,1.204437-3.156219,0-4.361328c-1.204407-1.203735-3.156891-1.203735-4.360687,0.000702
			c-1.12146,1.121399-1.184357,2.883911-0.217499,4.092987l-19.428619,19.429382
			c-1.210449-0.966248-2.972931-0.903351-4.09436,0.218079c-1.203735,1.204437-1.203125,3.155609,0.000671,4.360016
			c1.204407,1.204437,3.155548,1.204437,4.359955,0.000702C266.788086,510.680328,266.852264,508.918518,265.884735,507.707397z"/>
		<path style="fill:#FFFFFF;" d="M234.237869,524.498352h27.477524c0.171997,1.539673,1.462036,2.740723,3.047913,2.740723
			c1.702881,0,3.083313-1.380371,3.083984-3.083313c-0.001373-1.703613-1.381104-3.083374-3.083984-3.083984
			c-1.585876,0-2.875916,1.201782-3.047913,2.741394h-27.477524c-0.171295-1.53894-1.462723-2.741394-3.048523-2.741394
			c-1.702942,0.00061-3.082626,1.381775-3.082626,3.082642c0,1.703613,1.379684,3.083313,3.081268,3.084045
			C232.775146,527.239075,234.066574,526.038025,234.237869,524.498352z"/>
		<path style="fill:#FFFFFF;" d="M183.188416,463.157166l-0.000687,27.476166
			c-1.538925,0.171967-2.740036,1.463409-2.740036,3.049194c0,1.70224,1.380432,3.082703,3.082626,3.082703
			c1.703644,0.00061,3.084702-1.380463,3.084702-3.084015c0-1.585846-1.201752-2.875916-2.742111-3.047882l0.000687-27.476166
			c1.539673-0.172668,2.741425-1.464111,2.741425-3.049896c-0.000687-1.702271-1.381058-3.082001-3.084015-3.082001
			c-1.702881-0.001312-3.083313,1.37973-3.083313,3.083313C180.447693,461.694427,181.648804,462.984497,183.188416,463.157166z"/>
		<path style="fill:#FFFFFF;" d="M172.225494,457.67572v27.475525c-1.539597,0.172607-2.740723,1.462646-2.740036,3.049194
			c-0.000687,1.702881,1.379059,3.082642,3.082626,3.082642c1.702957,0,3.082642-1.379761,3.082642-3.082642
			c0-1.586548-1.199692-2.876587-2.739365-3.048584l-0.000687-27.477509c1.540359-0.171295,2.740051-1.462067,2.740051-3.048523
			c0.000687-1.702271-1.379684-3.082642-3.083328-3.082642c-1.702194-0.000671-3.08194,1.3797-3.082626,3.082642
			C169.485458,456.21228,170.685898,457.503052,172.225494,457.67572z"/>
		<path style="fill:#FFFFFF;" d="M233.382767,450.882751l-19.429382,19.42868
			c-1.209076-0.96756-2.971573-0.904022-4.093002,0.217407c-1.204422,1.203796-1.204422,3.156281,0,4.360016
			c1.204407,1.205109,3.156906,1.205109,4.360016,0.000702c1.121445-1.12146,1.185638-2.883942,0.217407-4.093689
			l19.428009-19.428711c1.212494,0.966248,2.973618,0.903351,4.095062-0.218079c1.204407-1.204437,1.204407-3.156311,0-4.360046
			c-1.203735-1.204407-3.155609-1.204407-4.360016,0C232.479416,447.90979,232.416519,449.6716,233.382767,450.882751z"/>
		<path style="fill:#FFFFFF;" d="M211.96608,423.650787l-19.428619,19.428619c-1.210449-0.966187-2.972946-0.90329-4.093765,0.21817
			c-1.205032,1.203705-1.20372,3.156219,0,4.361298c1.204483,1.203125,3.156296,1.203796,4.360703-0.000671
			c1.122131-1.122131,1.185028-2.884552,0.217484-4.094299l19.428696-19.428711
			c1.21106,0.966187,2.973557,0.903259,4.094986-0.21814c1.20311-1.203064,1.20311-3.155548-0.001297-4.360046
			c-1.203796-1.203705-3.155609-1.203033-4.360703,0C211.062805,420.678528,210.999222,422.440338,211.96608,423.650787z"/>
		<path style="fill:#FFFFFF;" d="M231.186676,466.617828h-27.4776c-0.171295-1.540314-1.46196-2.742035-3.047821-2.742035
			c-1.702271,0-3.083328,1.381042-3.084,3.084625c0.000671,1.702942,1.381042,3.083313,3.084,3.082703
			c1.585861,0.00061,2.877213-1.201752,3.047821-2.740112h27.4776c0.171295,1.538361,1.462662,2.740723,3.048523,2.740112
			c1.703568,0,3.08194-1.380463,3.083313-3.082703c0-1.703583-1.379745-3.083344-3.083313-3.083344
			C232.649338,463.875793,231.358658,465.077515,231.186676,466.617828z"/>
		<path style="fill:#FFFFFF;" d="M172.944794,444.006165h-27.47554c-0.172592-1.540344-1.462662-2.741394-3.048508-2.741394
			c-1.702271,0-3.083328,1.381042-3.083328,3.083984c0,1.702881,1.380371,3.082642,3.082642,3.082642
			c1.586533,0,2.877899-1.20105,3.049194-2.740021l27.476227-0.000702c0.172668,1.540283,1.462738,2.740723,3.04921,2.740723
			c1.702942,0,3.082626-1.379761,3.083313-3.082642c-0.000687-1.702942-1.380371-3.082703-3.083313-3.083984
			C174.408829,441.264771,173.117462,442.46582,172.944794,444.006165z"/>
		<path style="fill:#FFFFFF;" d="M207.195908,454.510712l-19.429306-19.429993
			c0.967545-1.209747,0.904648-2.97226-0.217484-4.092377c-1.203796-1.204437-3.155609-1.204437-4.360016-0.000641
			c-1.204422,1.205109-1.204422,3.156921,0,4.360657c1.120758,1.121429,2.88324,1.184326,4.093002,0.216797l19.429382,19.429993
			c-0.966934,1.209808-0.904037,2.972229,0.218094,4.09375c1.204483,1.203735,3.155609,1.203033,4.359329,0
			c1.205109-1.204498,1.204483-3.155609,0.00206-4.359344C210.169525,453.60675,208.406357,453.543152,207.195908,454.510712z"/>
		<path style="fill:#FFFFFF;" d="M156.46698,456.373596v-27.476227c1.538986-0.171997,2.740051-1.46344,2.740738-3.048523
			c-0.000687-1.702942-1.381058-3.084015-3.083328-3.083313c-1.703568,0.00061-3.084,1.380371-3.084,3.083923
			c0,1.584473,1.201126,2.875916,2.741409,3.047913v27.476227c-1.540283,0.172577-2.741409,1.46402-2.741409,3.048492
			c0,1.703552,1.380432,3.084015,3.084,3.083344c1.702271,0,3.081955-1.379791,3.082642-3.083344
			C159.207718,457.836914,158.005966,456.546173,156.46698,456.373596z"/>
		<path style="fill:#FFFFFF;" d="M127.688637,495.879974l19.429375-19.429382
			c1.208389,0.966919,2.970886,0.904022,4.093002-0.217468c1.203735-1.204437,1.205109-3.156219,0.000687-4.360657
			c-1.205093-1.205078-3.158279-1.205078-4.361389,0c-1.120758,1.120758-1.184952,2.88327-0.217407,4.093018l-19.429375,19.429382
			c-1.210449-0.966949-2.972252-0.903351-4.09301,0.217407c-1.205101,1.205109-1.204414,3.156982,0,4.361389
			c1.203728,1.203033,3.155609,1.204407,4.359337,0C128.59198,498.852234,128.65419,497.089722,127.688637,495.879974z"/>
		<path style="fill:#FFFFFF;" d="M166.709229,475.525177l27.4776-0.00061c0.169922,1.539612,1.461349,2.741364,3.04715,2.741364
			c1.702942,0,3.083313-1.381073,3.084686-3.083954c-0.001373-1.702942-1.381744-3.084015-3.084686-3.083313
			c-1.5858,0-2.877228,1.201752-3.04715,2.740723l-27.476913,0.00061c-0.173965-1.539581-1.464035-2.741333-3.049881-2.741333
			c-1.702881,0.00061-3.081955,1.380371-3.082642,3.083923c0,1.703644,1.379761,3.083344,3.082642,3.082031
			C165.24588,478.26593,166.53595,477.06485,166.709229,475.525177z"/>
		<path style="fill:#FFFFFF;" d="M132.458801,465.019958l19.428696,19.429382
			c-0.966858,1.210449-0.903336,2.97287,0.216797,4.093018c1.204407,1.204407,3.156906,1.204407,4.361328,0.000671
			c1.204468-1.20578,1.204468-3.156982-0.000626-4.362c-1.119446-1.120148-2.882629-1.183044-4.093079-0.216187
			l-19.428619-19.429291c0.966858-1.209778,0.903961-2.97226-0.216797-4.093719
			c-1.20578-1.204407-3.157593-1.203094-4.360016-0.000671c-1.205101,1.205109-1.205101,3.156219-0.001373,4.360016
			C129.486557,465.92392,131.248367,465.987518,132.458801,465.019958z"/>
		<path style="fill:#FFFFFF;" d="M109.164658,417.87085l19.429306,19.42868c-0.967545,1.210449-0.90464,2.97226,0.216797,4.093689
			c1.204407,1.204407,3.156906,1.204407,4.361389,0c1.203735-1.204407,1.203049-3.156281-0.000687-4.360016
			c-1.121429-1.121429-2.88324-1.185699-4.093079-0.21814l-19.429298-19.42865
			c0.966858-1.211121,0.903343-2.972229-0.218163-4.093689c-1.203728-1.204407-3.156227-1.204407-4.359955,0
			c-1.204483,1.204437-1.204483,3.155548-0.000687,4.359955C106.191719,418.7742,107.954216,418.837708,109.164658,417.87085z"/>
		<path style="fill:#FFFFFF;" d="M66.708084,466.894867v-27.475555c1.539673-0.171967,2.74073-1.462646,2.741417-3.049194
			c0-1.702881-1.381058-3.083313-3.084007-3.083984c-1.702888,0.000671-3.083939,1.381104-3.083939,3.083984
			c0.000614,1.586548,1.201736,2.877228,2.742027,3.048523l-0.000679,27.476227
			c-1.539612,0.17334-2.740734,1.46402-2.740734,3.049896c0.000687,1.702271,1.380436,3.082611,3.083324,3.08194
			c1.70295,0.000671,3.082703-1.379669,3.083321-3.08194C69.449501,468.358276,68.247757,467.068207,66.708084,466.894867z"/>
		<path style="fill:#FFFFFF;" d="M101.107048,487.728058v-27.476227c1.540359-0.171295,2.741417-1.462677,2.741417-3.048523
			c0.000687-1.702271-1.380363-3.083344-3.084007-3.083344c-1.702881,0-3.083321,1.381073-3.083321,3.083344
			c0,1.586456,1.201744,2.877228,2.74073,3.048523l0.000687,27.476898c-1.539673,0.172607-2.741417,1.462646-2.741417,3.049194
			c0.000687,1.702881,1.381126,3.082642,3.083321,3.082642c1.703644,0,3.083321-1.379761,3.083321-3.082642
			C103.848465,489.191376,102.647408,487.901337,101.107048,487.728058z"/>
		<path style="fill:#FFFFFF;" d="M57.134987,470.937042l19.429306-19.429321c1.210449,0.968231,2.972252,0.904663,4.093697-0.216797
			c1.203728-1.203705,1.203728-3.155609-0.000687-4.361328c-1.204414-1.203094-3.156227-1.203094-4.359955,0.000641
			c-1.121506,1.12149-1.184402,2.883911-0.218163,4.093079l-19.428692,19.428619
			c-1.209759-0.965515-2.972252-0.902588-4.093689,0.218842c-1.204414,1.204407-1.203045,3.156219,0,4.359344
			c1.204414,1.205078,3.155605,1.205078,4.36002,0.001282C58.038948,473.909973,58.102535,472.148163,57.134987,470.937042z"/>
		<path style="fill:#FFFFFF;" d="M82.659332,462.534851h27.477531c0.171982,1.539673,1.462044,2.740723,3.047897,2.740723
			c1.702888,0,3.083321-1.380371,3.084007-3.083313c-0.001366-1.703583-1.381119-3.083313-3.084007-3.083954
			c-1.585854,0-2.875916,1.201752-3.047897,2.741364H82.659332c-0.171295-1.53894-1.462723-2.741364-3.048508-2.741364
			c-1.702957,0.000641-3.082642,1.381744-3.082642,3.082642c0,1.703583,1.379684,3.083313,3.081268,3.084015
			C81.196609,465.275574,82.488037,464.074524,82.659332,462.534851z"/>
		<g>
			<path style="fill:#FFFFFF;" d="M82.48983,541.620544v-27.476257c1.540359-0.171265,2.741417-1.462646,2.741417-3.048523
				c0.000687-1.70224-1.380371-3.083313-3.084007-3.083313c-1.702881,0-3.083321,1.381073-3.083321,3.083313
				c0,1.586487,1.201744,2.877258,2.74073,3.048523l0.000687,27.476929c-1.539673,0.172607-2.741417,1.462646-2.741417,3.049194
				c0.000687,1.702881,1.381119,3.082642,3.083321,3.082642c1.703636,0,3.083321-1.379761,3.083321-3.082642
				C85.231247,543.083862,84.03019,541.793823,82.48983,541.620544z"/>
			<path style="fill:#FFFFFF;" d="M64.042114,516.427307h27.477531c0.171982,1.539673,1.462044,2.740723,3.047897,2.740723
				c1.702881,0,3.083321-1.380371,3.084007-3.083313c-0.001373-1.703552-1.381126-3.083313-3.084007-3.083923
				c-1.585854,0-2.875916,1.201721-3.047897,2.741333H64.042114c-0.171295-1.538879-1.462727-2.741333-3.048512-2.741333
				c-1.702953,0.00061-3.082638,1.381714-3.082638,3.082642c0,1.703552,1.379684,3.083313,3.081268,3.083984
				C62.579388,519.16803,63.870819,517.96698,64.042114,516.427307z"/>
			<path style="fill:#FFFFFF;" d="M27.9737,514.547119v27.476929c-1.538988,0.170593-2.74073,1.461365-2.74073,3.047791
				c-0.000685,1.702942,1.379753,3.083313,3.083323,3.084045c1.703568-0.000732,3.084005-1.381104,3.083321-3.084045
				c0-1.585754-1.201742-2.877197-2.74073-3.047791v-27.476929c1.539673-0.172607,2.74073-1.463379,2.74073-3.049896
				c0-1.702179-1.380438-3.08194-3.083321-3.08194c-1.702953,0-3.083323,1.379761-3.083323,3.08194
				C25.232969,513.08374,26.434027,514.374512,27.9737,514.547119z"/>
			<path style="fill:#FFFFFF;" d="M46.421417,539.740906H18.944502c-0.171911-1.540283-1.462658-2.741333-3.047829-2.740723
				c-1.702884,0-3.083321,1.379761-3.084006,3.083313c0.00137,1.702942,1.381123,3.083374,3.084006,3.083374
				c1.585171,0,2.875917-1.201782,3.047829-2.740784h27.476915c0.171295,1.539001,1.462727,2.740784,3.048512,2.740784
				c1.70364-0.000671,3.083321-1.381775,3.083321-3.082642c0-1.703613-1.379681-3.083374-3.081951-3.084045
				C47.884144,536.999573,46.593395,538.200623,46.421417,539.740906z"/>
			<path style="fill:#FFFFFF;" d="M94.529381,588.510681l-0.000687,27.476135
				c-1.538918,0.171997-2.740044,1.463379-2.740044,3.049194c0,1.702271,1.380432,3.082703,3.082634,3.082703
				c1.703636,0.00061,3.084694-1.380432,3.084694-3.083984c0-1.585876-1.201744-2.875916-2.742104-3.047913l0.000687-27.476135
				c1.539673-0.172668,2.741417-1.464111,2.741417-3.049927c-0.000687-1.702271-1.381058-3.082031-3.084007-3.082031
				c-1.702888-0.001282-3.083321,1.379761-3.083321,3.083374C91.788651,587.047913,92.989777,588.338013,94.529381,588.510681z"/>
			<path style="fill:#FFFFFF;" d="M83.56646,582.536682v27.475586c-1.539604,0.172546-2.74073,1.462646-2.740044,3.049194
				c-0.000687,1.702881,1.379066,3.082642,3.082634,3.082642c1.70295,0,3.082634-1.379761,3.082634-3.082642
				c0-1.586548-1.199684-2.876648-2.739357-3.048584l-0.000687-27.477539c1.540359-0.171326,2.740044-1.462036,2.740044-3.048523
				c0.000687-1.702271-1.379684-3.082642-3.083321-3.082642c-1.702194-0.000671-3.081947,1.3797-3.082634,3.082642
				C80.826416,581.073303,82.026855,582.364014,83.56646,582.536682z"/>
			<path style="fill:#FFFFFF;" d="M84.285767,568.867188H56.810219c-0.172596-1.540344-1.462658-2.741455-3.048512-2.741455
				c-1.702267,0-3.083321,1.381104-3.083321,3.084045c0,1.702881,1.380367,3.082642,3.082634,3.082642
				c1.58654,0,2.877903-1.20105,3.049198-2.740051l27.476227-0.000671c0.172668,1.540283,1.46273,2.740723,3.049202,2.740723
				c1.70295,0,3.082634-1.379761,3.083321-3.082642c-0.000687-1.702942-1.380371-3.082703-3.083321-3.084045
				C85.749794,566.125732,84.458427,567.326843,84.285767,568.867188z"/>
			<path style="fill:#FFFFFF;" d="M67.807945,581.234558v-27.476196c1.538994-0.171997,2.740044-1.46344,2.74073-3.048523
				c-0.000687-1.702942-1.38105-3.083984-3.083321-3.083313c-1.703568,0.00061-3.084007,1.380371-3.084007,3.083923
				c0,1.584473,1.201126,2.875916,2.741417,3.047913v27.476196c-1.540291,0.172607-2.741417,1.46405-2.741417,3.048523
				c0,1.703552,1.38044,3.084045,3.084007,3.083313c1.702271,0,3.081955-1.379761,3.082634-3.083313
				C70.548676,582.697937,69.346939,581.407166,67.807945,581.234558z"/>
			<path style="fill:#FFFFFF;" d="M29.437044,581.684204l19.42869-19.428711c1.209759,0.967651,2.971569,0.904724,4.093006-0.216797
				c1.205784-1.203735,1.205101-3.15686,0.000687-4.361328c-1.203728-1.203674-3.156223-1.203674-4.360706,0
				c-1.121437,1.12146-1.185642,2.885254-0.217411,4.093689l-19.42869,19.428711
				c-1.210443-0.966248-2.972939-0.90332-4.094376,0.21875c-1.203112,1.204468-1.203112,3.156311,0.000685,4.359375
				c1.203728,1.204407,3.156225,1.205078,4.359337,0.001343C30.339703,584.657837,30.403288,582.895325,29.437044,581.684204z"/>
			<path style="fill:#FFFFFF;" d="M39.029598,620.740967l19.429379-19.429382
				c1.208385,0.966919,2.970882,0.904053,4.093006-0.217468c1.203728-1.204407,1.205097-3.15625,0.000683-4.360657
				c-1.205097-1.205078-3.158279-1.205078-4.361393,0c-1.12075,1.120789-1.184952,2.88324-0.217407,4.093018l-19.429375,19.429382
				c-1.210445-0.966919-2.972256-0.90332-4.093006,0.217407c-1.205101,1.205078-1.204414,3.156982,0,4.361389
				c1.203728,1.203064,3.155605,1.204407,4.359337,0C39.932941,623.713196,39.995159,621.950745,39.029598,620.740967z"/>
			<path style="fill:#FFFFFF;" d="M19.809683,577.773865h27.476912c0.171982,1.540283,1.462044,2.740723,3.047829,2.740723
				c1.70364,0,3.083321-1.379761,3.084007-3.083313c-0.000687-1.702271-1.381741-3.083313-3.084621-3.083313
				c-1.585171,0-2.875919,1.200378-3.047215,2.740723h-27.47753c-0.171295-1.539673-1.462727-2.740723-3.048582-2.740723
				c-1.702198,0.000671-3.082636,1.381042-3.08195,3.083313c0,1.703552,1.379752,3.083313,3.080649,3.082642
				C18.346338,580.514587,19.63777,579.314148,19.809683,577.773865z"/>
			<path style="fill:#FFFFFF;" d="M78.050194,600.386169l27.4776-0.00061c0.169922,1.539612,1.461357,2.741333,3.047142,2.741333
				c1.70295,0,3.083321-1.381042,3.084686-3.083923c-0.001366-1.702942-1.381737-3.083984-3.084686-3.083313
				c-1.585785,0-2.87722,1.201721-3.047142,2.740723l-27.476913,0.00061c-0.173973-1.539612-1.464035-2.741333-3.049889-2.741333
				c-1.702881,0.00061-3.081947,1.380371-3.082634,3.083923c0,1.703613,1.379753,3.083313,3.082634,3.082031
				C76.586845,603.126892,77.876907,601.925842,78.050194,600.386169z"/>
			<path style="fill:#FFFFFF;" d="M43.79977,589.880981l19.428692,19.429382
				c-0.966862,1.210449-0.903347,2.972839,0.216793,4.092957c1.204411,1.204468,3.15691,1.204468,4.361324,0.000732
				c1.204483-1.205811,1.204483-3.156982-0.000618-4.362c-1.119453-1.120178-2.882629-1.183044-4.093075-0.216187
				l-19.428623-19.429321c0.966862-1.209778,0.903961-2.972229-0.216793-4.093689
				c-1.205784-1.204407-3.157593-1.203125-4.36002-0.000671c-1.205101,1.205078-1.205101,3.156189-0.001373,4.359985
				C40.827518,590.784912,42.589329,590.848511,43.79977,589.880981z"/>
			<path style="fill:#FFFFFF;" d="M62.373352,547.034973v27.476257c-1.539673,0.171265-2.740726,1.462646-2.741413,3.048523
				c-0.000687,1.702881,1.380367,3.083313,3.084007,3.083984c1.702885-0.000671,3.083317-1.381104,3.083317-3.083984
				c0-1.585876-1.201736-2.877258-2.740726-3.048523v-27.476257c1.53899-0.173279,2.740726-1.463379,2.740726-3.049194
				c-0.000679-1.702271-1.381119-3.083313-3.083317-3.082642c-1.702953-0.000671-3.083321,1.380371-3.083321,3.082642
				C59.632626,545.571594,60.833679,546.861694,62.373352,547.034973z"/>
			<path style="fill:#FFFFFF;" d="M14.77455,568.186646l-19.428692,19.428711
				c-1.210443-0.96759-2.972184-0.904663-4.093691,0.216797c-1.204413,1.204407-1.204413,3.156189,0,4.361328
				c1.204414,1.203674,3.156978,1.204407,4.361392,0c1.121438-1.12146,1.184338-2.883972,0.216792-4.09375l19.428623-19.42865
				c1.211128,0.966248,2.973623,0.90332,4.095062-0.218079c1.203112-1.204407,1.203112-3.156311-0.001303-4.360046
				c-1.204481-1.204407-3.155607-1.204407-4.359405-0.001343C13.871274,565.213074,13.80769,566.975525,14.77455,568.186646z"/>
			<path style="fill:#FFFFFF;" d="M11.867869,588.584167l-19.428623-19.428589
				c0.966861-1.209839,0.903276-2.97229-0.218162-4.093689c-1.203728-1.204468-3.156293-1.204468-4.360021,0
				c-1.204414,1.204407-1.204414,3.156921,0,4.360596c1.121438,1.12146,2.883247,1.185059,4.093691,0.217529l19.428692,19.42865
				c-0.966861,1.21106-0.903344,2.9729,0.217477,4.093689c1.204414,1.204407,3.156225,1.204407,4.360639,0
				c1.204413-1.203796,1.204413-3.155579,0-4.359985C14.840122,587.680908,13.078313,587.618042,11.867869,588.584167z"/>
			<path style="fill:#FFFFFF;" d="M-14.945925,616.034302v-27.475525c1.539674-0.171997,2.74073-1.462646,2.741415-3.049194
				c0-1.702881-1.381053-3.083313-3.084006-3.084045c-1.702884,0.000732-3.083938,1.381165-3.083938,3.084045
				c0.000616,1.586548,1.201742,2.877197,2.742032,3.048523l-0.000686,27.476196
				c-1.539604,0.17334-2.74073,1.46405-2.74073,3.049866c0.000687,1.702271,1.380438,3.082642,3.083322,3.08197
				c1.702953,0.000671,3.082705-1.3797,3.083322-3.08197C-12.20451,617.497742-13.406251,616.207642-14.945925,616.034302z"/>
			<path style="fill:#FFFFFF;" d="M19.453045,636.867493v-27.476257c1.540358-0.171265,2.741415-1.462646,2.741415-3.048523
				c0.000685-1.702209-1.380369-3.083313-3.084007-3.083313c-1.702883,0-3.083321,1.381104-3.083321,3.083313
				c0,1.586487,1.201742,2.877258,2.74073,3.048523l0.000685,27.476929c-1.539673,0.172607-2.741415,1.462646-2.741415,3.049194
				C16.027817,641.620239,17.408255,643,19.110453,643c1.703638,0,3.083323-1.379761,3.083323-3.082642
				C22.19446,638.330811,20.993402,637.040771,19.453045,636.867493z"/>
			<path style="fill:#FFFFFF;" d="M-24.51902,620.076477l19.429308-19.429321
				c1.210443,0.968262,2.972253,0.904663,4.093691-0.216797c1.203729-1.203735,1.203729-3.155579-0.000685-4.361328
				c-1.204414-1.203125-3.156224-1.203125-4.359953,0.00061c-1.121507,1.121521-1.184406,2.883972-0.218162,4.093079
				l-19.42869,19.42865c-1.209759-0.965515-2.972254-0.902588-4.093693,0.218872c-1.204412,1.204407-1.203043,3.156189,0,4.359314
				c1.204414,1.205078,3.155609,1.205078,4.360022,0.001282C-23.615059,623.049438-23.551474,621.287598-24.51902,620.076477z"/>
			<path style="fill:#FFFFFF;" d="M1.005329,611.674316h27.47753c0.171982,1.539673,1.462042,2.740723,3.047897,2.740723
				c1.702883,0,3.083323-1.380371,3.084005-3.083313c-0.001369-1.703613-1.381123-3.083374-3.084005-3.083984
				c-1.585855,0-2.875916,1.201782-3.047897,2.741394H1.005329c-0.171296-1.53894-1.462728-2.741394-3.048514-2.741394
				c-1.702952,0.00061-3.082636,1.381775-3.082636,3.082642c0,1.703613,1.379683,3.083313,3.081265,3.084045
				C-0.457399,614.415039,0.834033,613.213989,1.005329,611.674316z"/>
		</g>
		<path style="fill:#FFFFFF;" d="M178.050934,545.280701l-0.000687,27.476135
			c-1.538925,0.171997-2.740051,1.46344-2.740051,3.049255c0,1.702209,1.380432,3.082703,3.082642,3.082703
			c1.703629,0.00061,3.084686-1.380493,3.084686-3.084045c0-1.585815-1.201736-2.875916-2.742096-3.047913l0.000687-27.476135
			c1.539673-0.172668,2.741409-1.464111,2.741409-3.049866c-0.000687-1.702271-1.381058-3.082031-3.084-3.082031
			c-1.702896-0.001282-3.083328,1.379761-3.083328,3.083313C175.310196,543.817993,176.511322,545.108032,178.050934,545.280701z"/>
		<path style="fill:#FFFFFF;" d="M167.088013,539.799255v27.475525c-1.539612,0.172607-2.740738,1.462646-2.740051,3.049194
			c-0.000687,1.702881,1.379074,3.082642,3.082642,3.082642c1.702942,0,3.082626-1.379761,3.082626-3.082642
			c0-1.586548-1.199677-2.876587-2.739349-3.048584l-0.000687-27.477539c1.540359-0.171265,2.740036-1.462036,2.740036-3.048462
			c0.000687-1.702271-1.379684-3.082642-3.083313-3.082642c-1.702194-0.000732-3.081955,1.379639-3.082642,3.082642
			C164.347961,538.335815,165.548401,539.626587,167.088013,539.799255z"/>
		<path style="fill:#FFFFFF;" d="M228.24527,533.006287l-19.429382,19.428711
			c-1.209061-0.96759-2.971558-0.904053-4.093002,0.217407c-1.204407,1.203796-1.204407,3.15625,0,4.359985
			c1.204422,1.205078,3.156906,1.205078,4.360031,0.000671c1.121429-1.121399,1.185638-2.883911,0.217407-4.093689
			l19.427994-19.42865c1.212509,0.966187,2.973633,0.90332,4.095062-0.21814c1.204422-1.204407,1.204422-3.15625,0-4.359985
			c-1.20372-1.204407-3.155594-1.204407-4.360016,0C227.341919,530.033325,227.279022,531.795166,228.24527,533.006287z"/>
		<path style="fill:#FFFFFF;" d="M226.049194,548.741333h-27.4776c-0.171295-1.540283-1.461975-2.742004-3.047821-2.742004
			c-1.702271,0-3.083328,1.381042-3.084015,3.084595c0.000687,1.702942,1.381058,3.083374,3.084015,3.082703
			c1.585846,0.000671,2.877213-1.201721,3.047821-2.740112h27.4776c0.171295,1.538391,1.462662,2.740784,3.048508,2.740112
			c1.703568,0,3.081955-1.380432,3.083328-3.082703c0-1.703552-1.379761-3.083313-3.083328-3.083313
			C227.511856,545.999329,226.221176,547.20105,226.049194,548.741333z"/>
		<path style="fill:#FFFFFF;" d="M167.807312,526.1297h-27.47554c-0.172592-1.540344-1.462662-2.741394-3.048523-2.741394
			c-1.702255,0-3.083313,1.381042-3.083313,3.083984c0,1.702881,1.380371,3.082642,3.082642,3.082642
			c1.586533,0,2.877899-1.20105,3.049194-2.740051l27.476227-0.000671c0.172668,1.540283,1.462723,2.740723,3.049194,2.740723
			c1.702957,0,3.082642-1.379761,3.083328-3.082642c-0.000687-1.702942-1.380371-3.082703-3.083328-3.083984
			C169.271347,523.388306,167.97998,524.589355,167.807312,526.1297z"/>
		<path style="fill:#FFFFFF;" d="M202.058426,536.634277l-19.429321-19.429993c0.96756-1.209778,0.904648-2.97229-0.217468-4.092407
			c-1.203796-1.204437-3.155609-1.204437-4.360031-0.00061c-1.204407,1.205078-1.204407,3.156921,0,4.360596
			c1.120758,1.12146,2.883255,1.184387,4.093018,0.216797l19.429367,19.429993
			c-0.966919,1.209839-0.904022,2.97229,0.218094,4.093811c1.204483,1.203674,3.155609,1.203003,4.359344,0
			c1.205093-1.204529,1.204483-3.15564,0.00206-4.359375C205.032043,535.730286,203.26886,535.666687,202.058426,536.634277z"/>
		<path style="fill:#FFFFFF;" d="M112.958595,538.946716l19.428688-19.42865c1.209763,0.96759,2.971573,0.904724,4.093002-0.216797
			c1.205795-1.203735,1.205109-3.156921,0.000687-4.361328c-1.20372-1.203735-3.156219-1.203735-4.360703,0
			c-1.121445,1.12146-1.185638,2.885254-0.217407,4.093689l-19.428696,19.428711
			c-1.210442-0.966248-2.972939-0.903381-4.094376,0.21875c-1.20311,1.204407-1.20311,3.156311,0.000687,4.359314
			c1.203728,1.204468,3.156227,1.205139,4.359337,0.001404C113.861252,541.920349,113.924835,540.157898,112.958595,538.946716z"/>
		<path style="fill:#FFFFFF;" d="M122.551147,578.00354l19.429382-19.429382c1.208389,0.966919,2.970871,0.903992,4.093002-0.217529
			c1.20372-1.204407,1.205093-3.156189,0.000687-4.360596c-1.205109-1.205139-3.158279-1.205139-4.361389,0
			c-1.120758,1.120728-1.184967,2.88324-0.217407,4.093018l-19.429382,19.429382
			c-1.210442-0.96698-2.972252-0.903381-4.09301,0.217346c-1.205093,1.205139-1.204414,3.156982,0,4.36145
			c1.203728,1.203003,3.155609,1.204407,4.359337,0C123.454491,580.975769,123.516708,579.213257,122.551147,578.00354z"/>
		<path style="fill:#FFFFFF;" d="M103.33123,535.036377h27.476921c0.171982,1.540344,1.462036,2.740784,3.047821,2.740784
			c1.703644,0,3.083328-1.379761,3.084015-3.083374c-0.000687-1.702209-1.381744-3.083313-3.084625-3.083313
			c-1.585175,0-2.875916,1.200378-3.047211,2.740723h-27.477539c-0.171295-1.539673-1.462723-2.740723-3.048576-2.740723
			c-1.702202,0.000732-3.082642,1.381104-3.081955,3.083313c0,1.703613,1.379753,3.083374,3.08065,3.082642
			C101.867889,537.777161,103.159317,536.576721,103.33123,535.036377z"/>
		<path style="fill:#FFFFFF;" d="M161.571747,557.648743l27.4776-0.00061c0.169922,1.539612,1.461349,2.741333,3.047134,2.741333
			c1.702957,0,3.083328-1.381042,3.084686-3.083923c-0.001358-1.703003-1.381729-3.084045-3.084686-3.083313
			c-1.585785,0-2.877213,1.201721-3.047134,2.740723l-27.476913,0.00061c-0.173981-1.539612-1.464035-2.741333-3.049896-2.741333
			c-1.702881,0.00061-3.08194,1.38031-3.082626,3.083923c0,1.703613,1.379745,3.083313,3.082626,3.082031
			C160.108398,560.389465,161.398453,559.188416,161.571747,557.648743z"/>
		<path style="fill:#FFFFFF;" d="M127.32132,547.143494l19.428696,19.429382c-0.966858,1.210449-0.903351,2.9729,0.216782,4.093018
			c1.204422,1.204407,3.156921,1.204407,4.361328,0.000671c1.204483-1.20575,1.204483-3.156982-0.00061-4.362
			c-1.119461-1.120117-2.882629-1.183044-4.093079-0.216187l-19.428627-19.429321
			c0.966866-1.209717,0.903969-2.972229-0.216789-4.093689c-1.20578-1.204407-3.157593-1.203064-4.360023-0.000671
			c-1.205093,1.205139-1.205093,3.15625-0.001366,4.360046C124.349068,548.047485,126.110878,548.111084,127.32132,547.143494z"/>
		<path style="fill:#FFFFFF;" d="M562.789124,599.340088v-27.476196c1.540344-0.171326,2.741394-1.462708,2.741394-3.048523
			c0.000732-1.702271-1.380371-3.083374-3.083984-3.083374c-1.702881,0-3.083313,1.381104-3.083313,3.083374
			c0,1.586426,1.201721,2.877197,2.740723,3.048523l0.000671,27.476868c-1.539673,0.172607-2.741394,1.462646-2.741394,3.049194
			c0.000671,1.702881,1.381104,3.082642,3.083313,3.082642c1.703613,0,3.083313-1.379761,3.083313-3.082642
			C565.530518,600.803406,564.329468,599.513367,562.789124,599.340088z"/>
		<path style="fill:#FFFFFF;" d="M518.817078,582.549072l19.429321-19.429321
			c1.210388,0.968262,2.972229,0.904663,4.093689-0.216797c1.203674-1.203674,1.203674-3.155579-0.000732-4.361328
			c-1.204407-1.203064-3.156189-1.203064-4.359924,0.000671c-1.121521,1.12146-1.184387,2.883911-0.21814,4.093079
			l-19.428711,19.428589c-1.209778-0.965515-2.97229-0.902588-4.093689,0.218872c-1.204407,1.204407-1.203064,3.156189,0,4.359314
			c1.204407,1.205078,3.155579,1.205078,4.359985,0.001282C519.721008,585.522034,519.784607,583.760193,518.817078,582.549072z"/>
		<path style="fill:#FFFFFF;" d="M544.341431,574.146912h27.477539c0.171936,1.539673,1.462036,2.740723,3.047852,2.740723
			c1.702881,0,3.083313-1.380371,3.084045-3.083313c-0.001404-1.703613-1.381165-3.083313-3.084045-3.083984
			c-1.585815,0-2.875916,1.201782-3.047852,2.741394h-27.477539c-0.171326-1.53894-1.462769-2.741394-3.048523-2.741394
			c-1.702942,0.000671-3.082642,1.381775-3.082642,3.082642c0,1.703613,1.3797,3.083313,3.081238,3.084045
			C542.878662,576.887634,544.170105,575.686584,544.341431,574.146912z"/>
		<path style="fill:#FFFFFF;" d="M537.791443,627.919739l19.42926,19.429321
			c-0.966858,1.209778-0.903931,2.972229,0.217468,4.093689c1.204468,1.203796,3.156921,1.203796,4.360718,0
			c1.203735-1.204407,1.203735-3.156921,0-4.361328c-1.121399-1.12146-2.88324-1.184326-4.093689-0.216797l-19.429382-19.429321
			c0.96759-1.21051,0.904053-2.972961-0.216797-4.09375c-1.204407-1.204407-3.15686-1.203735-4.361328,0
			c-1.203796,1.203796-1.204407,3.156311,0,4.360718C534.819153,628.82373,536.581665,628.886597,537.791443,627.919739z"/>
		<path style="fill:#FFFFFF;" d="M526.164062,631.795959l19.429321,19.428711
			c-0.967529,1.210449-0.904663,2.972229,0.216797,4.093689c1.204407,1.204407,3.156921,1.204407,4.361389,0
			c1.203735-1.204407,1.203064-3.156311-0.000671-4.360046c-1.12146-1.12146-2.88324-1.18573-4.093079-0.21814l-19.429321-19.42865
			c0.966858-1.211121,0.90332-2.972229-0.21814-4.093689c-1.203735-1.204407-3.15625-1.204407-4.359985,0
			c-1.204468,1.204407-1.204468,3.155518-0.000671,4.359985C523.191162,632.69928,524.953613,632.762817,526.164062,631.795959z"/>
		<path style="fill:#FFFFFF;" d="M574.178345,596.427429l-19.42865,19.429321
			c-1.210449-0.968201-2.97229-0.904663-4.093689,0.216797c-1.204407,1.203796-1.204407,3.156311,0,4.362
			c1.204407,1.203125,3.156921,1.203125,4.360596-0.001282c1.121521-1.12146,1.184448-2.883911,0.217529-4.092407
			l19.42865-19.429321c1.210449,0.965576,2.972961,0.90271,4.09436-0.218811c1.203735-1.204407,1.203064-3.155579-0.000671-4.359375
			c-1.204407-1.205078-3.155579-1.205078-4.359314-0.00061C573.275024,593.454529,573.211426,595.216309,574.178345,596.427429z"/>
		<path style="fill:#FFFFFF;" d="M517.00708,621.621277l-19.42868,19.42865c-1.210449-0.967529-2.972198-0.904602-4.093689,0.216797
			c-1.204407,1.204468-1.204407,3.15625,0,4.361328c1.204407,1.203735,3.156982,1.204468,4.361389,0
			c1.121429-1.121399,1.184326-2.883911,0.216797-4.093689l19.428619-19.42865c1.211121,0.966248,2.973633,0.90332,4.095032-0.21814
			c1.203125-1.204407,1.203125-3.15625-0.001282-4.359985c-1.204468-1.204407-3.155579-1.204407-4.359375-0.001404
			C516.103821,618.647705,516.040222,620.410156,517.00708,621.621277z"/>
		<path style="fill:#FFFFFF;" d="M501.50415,559.60553l-19.429321,19.430054
			c-1.210419-0.968872-2.972229-0.904663-4.093689,0.216125c-1.203796,1.203735-1.204407,3.156189,0,4.361328
			c1.204437,1.203796,3.156921,1.203796,4.361328-0.000671c1.121429-1.120789,1.184357-2.88324,0.216797-4.092346
			l19.429382-19.429993c1.210449,0.966187,2.97287,0.903259,4.09436-0.217468
			c1.203064-1.205078,1.203064-3.156311-0.000671-4.360718c-1.205109-1.204407-3.156311-1.204407-4.359344-0.000671
			C500.600189,556.63269,500.537292,558.39447,501.50415,559.60553z"/>
		<path style="fill:#FFFFFF;" d="M548.653931,604.830261h-27.476868c-0.171936-1.540283-1.462708-2.741333-3.047852-2.740723
			c-1.702881,0-3.083313,1.379761-3.083984,3.083313c0.001343,1.702942,1.381104,3.083313,3.083984,3.083313
			c1.585144,0,2.875916-1.201721,3.047852-2.740723h27.476868c0.171326,1.539001,1.462769,2.740723,3.048523,2.740723
			c1.703674-0.00061,3.083313-1.381775,3.083313-3.082642c0-1.703552-1.379639-3.083313-3.081909-3.083984
			C550.116699,602.088928,548.825928,603.289978,548.653931,604.830261z"/>
		<path style="fill:#FFFFFF;" d="M514.100403,642.018799l-19.428619-19.428589c0.966858-1.209839,0.90329-2.97229-0.21817-4.09375
			c-1.203705-1.204468-3.156281-1.204468-4.360016,0c-1.204407,1.204468-1.204407,3.156921,0,4.360657
			c1.121429,1.12146,2.88324,1.185059,4.093689,0.217468l19.42868,19.428711c-0.966858,1.21106-0.90332,2.9729,0.217468,4.093689
			c1.204468,1.204407,3.15625,1.204407,4.360657,0c1.204407-1.203796,1.204407-3.155579,0-4.359985
			C517.072632,641.11554,515.310852,641.052612,514.100403,642.018799z"/>
		<path style="fill:#FFFFFF;" d="M487.286621,669.468933v-27.475525c1.539673-0.171997,2.740723-1.462708,2.741394-3.049194
			c0-1.702881-1.381042-3.083374-3.083984-3.084045c-1.702881,0.000671-3.083954,1.381165-3.083954,3.084045
			c0.00061,1.586487,1.201752,2.877197,2.742035,3.048462l-0.000671,27.476257
			c-1.539612,0.17334-2.740753,1.46405-2.740753,3.049866c0.000702,1.702271,1.380463,3.082642,3.083344,3.08197
			c1.702942,0.000671,3.082703-1.3797,3.083313-3.08197C490.028015,670.932373,488.826294,669.642273,487.286621,669.468933z"/>
		<path style="fill:#FFFFFF;" d="M521.685608,676.498779v-13.672913c1.540344-0.171265,2.741394-1.462646,2.741394-3.048523
			c0.000671-1.702271-1.380371-3.083313-3.083984-3.083313c-1.702881,0-3.083374,1.381042-3.083374,3.083313
			c0,1.586487,1.201782,2.877258,2.740784,3.048523l0.000671,13.673584c-1.539673,0.172607-2.741455,1.462646-2.741455,3.049194
			c0.000732,1.702881,1.381165,3.082642,3.083374,3.082642c1.703613,0,3.083313-1.379761,3.083313-3.082642
			C524.427002,677.962097,523.225952,676.672058,521.685608,676.498779z"/>
		<path style="fill:#FFFFFF;" d="M477.713531,673.511108l19.429291-19.429321c1.210449,0.968262,2.97226,0.904663,4.093689-0.216797
			c1.203735-1.203735,1.203735-3.155579-0.000671-4.361328c-1.204407-1.203125-3.156219-1.203125-4.359955,0.00061
			c-1.121521,1.121521-1.184418,2.883972-0.21817,4.093079l-19.42868,19.42865
			c-1.209778-0.965515-2.97226-0.902588-4.093689,0.218811c-1.204437,1.204407-1.203064,3.15625,0,4.359375
			c1.204407,1.205078,3.155609,1.205078,4.360016,0.001282C478.617493,676.484009,478.681061,674.722229,477.713531,673.511108z"/>
		<path style="fill:#FFFFFF;" d="M534.884705,648.317993l19.428711-19.429382c1.211121,0.968201,2.97229,0.904663,4.093689-0.216797
			c1.204407-1.203735,1.204407-3.15625,0-4.361328c-1.204407-1.203735-3.156921-1.203735-4.360718,0.000671
			c-1.121399,1.121399-1.184326,2.883911-0.217468,4.093018l-19.428589,19.429382
			c-1.210449-0.966248-2.972961-0.903381-4.094421,0.218079c-1.203674,1.204407-1.203064,3.155579,0.000732,4.359985
			c1.204407,1.204468,3.155518,1.204468,4.359924,0.000732C535.788086,651.290894,535.852295,649.529114,534.884705,648.317993z"/>
		<path style="fill:#FFFFFF;" d="M503.237854,665.108887h27.477539c0.171997,1.539673,1.462036,2.740723,3.047913,2.740723
			c1.702881,0,3.083313-1.38031,3.083984-3.083313c-0.001343-1.703552-1.381104-3.083313-3.083984-3.083923
			c-1.585876,0-2.875916,1.201721-3.047913,2.741333h-27.477539c-0.171295-1.538879-1.462708-2.741333-3.048492-2.741333
			c-1.702972,0.00061-3.082642,1.381775-3.082642,3.082642c0,1.703552,1.379669,3.083313,3.081268,3.083984
			C501.775146,667.849609,503.066559,666.64856,503.237854,665.108887z"/>
		<path style="fill:#FFFFFF;" d="M452.188416,603.767761l-0.000671,27.476135c-1.53894,0.171997-2.740051,1.46344-2.740051,3.049194
			c0,1.702271,1.380432,3.082703,3.082642,3.082703c1.703613,0.00061,3.084686-1.380432,3.084686-3.083984
			c0-1.585876-1.201752-2.875916-2.742096-3.047913l0.000671-27.476135c1.539673-0.172668,2.741425-1.464111,2.741425-3.049927
			c-0.000702-1.702271-1.381073-3.08197-3.084015-3.08197c-1.702881-0.001343-3.083313,1.3797-3.083313,3.083313
			C449.447693,602.304993,450.648804,603.595093,452.188416,603.767761z"/>
		<path style="fill:#FFFFFF;" d="M441.225494,598.286316v27.475525c-1.539612,0.172607-2.740723,1.462646-2.740051,3.049194
			c-0.000671,1.702881,1.379089,3.082642,3.082642,3.082642c1.702942,0,3.082642-1.379761,3.082642-3.082642
			c0-1.586548-1.199677-2.876587-2.739349-3.048584l-0.000702-27.477539c1.540375-0.171265,2.740051-1.462036,2.740051-3.048523
			c0.000671-1.702271-1.3797-3.082642-3.083313-3.082642c-1.702209-0.000671-3.08197,1.3797-3.082642,3.082642
			C438.485443,596.822876,439.685883,598.113647,441.225494,598.286316z"/>
		<path style="fill:#FFFFFF;" d="M502.382751,591.493347l-19.429382,19.42865
			c-1.209045-0.967529-2.971558-0.903992-4.092987,0.217407c-1.204407,1.203796-1.204407,3.156311,0,4.360046
			c1.204407,1.205078,3.156891,1.205078,4.360016,0.000671c1.121429-1.12146,1.185638-2.883911,0.217407-4.093689
			l19.428009-19.428711c1.212494,0.966248,2.973633,0.903381,4.095062-0.218079c1.204407-1.204407,1.204407-3.156311,0-4.360046
			c-1.203735-1.204407-3.155609-1.204407-4.360016,0C501.479401,588.520386,501.416504,590.282166,502.382751,591.493347z"/>
		<path style="fill:#FFFFFF;" d="M480.966064,564.261353l-19.428619,19.42865c-1.210419-0.966187-2.972931-0.90332-4.09375,0.21814
			c-1.205017,1.203735-1.203735,3.15625,0,4.361328c1.204498,1.203125,3.156281,1.203796,4.360718-0.000671
			c1.122101-1.122131,1.185028-2.884583,0.217468-4.094299l19.42868-19.428711c1.21106,0.966187,2.973572,0.903259,4.095001-0.21814
			c1.203125-1.203064,1.203125-3.155579-0.001312-4.360046c-1.203796-1.203735-3.155609-1.203064-4.360687,0
			C480.062805,561.289124,479.999207,563.050903,480.966064,564.261353z"/>
		<path style="fill:#FFFFFF;" d="M500.186676,607.228394h-27.4776c-0.171295-1.540283-1.461975-2.742004-3.047821-2.742004
			c-1.702271,0-3.083313,1.381042-3.084015,3.084595c0.000702,1.702942,1.381073,3.083313,3.084015,3.082703
			c1.585846,0.00061,2.877228-1.201721,3.047821-2.740112h27.4776c0.171295,1.538391,1.462677,2.740723,3.048523,2.740112
			c1.703552,0,3.08194-1.380432,3.083313-3.082703c0-1.703552-1.379761-3.083313-3.083313-3.083313
			C501.649353,604.486389,500.358673,605.68811,500.186676,607.228394z"/>
		<path style="fill:#FFFFFF;" d="M441.944794,584.61676h-27.475525c-0.172607-1.540344-1.462677-2.741394-3.048523-2.741394
			c-1.702271,0-3.083313,1.381042-3.083313,3.083984c0,1.702881,1.380371,3.082642,3.082642,3.082642
			c1.586517,0,2.877899-1.20105,3.049194-2.740051l27.476227-0.000671c0.172668,1.540283,1.462708,2.740723,3.049194,2.740723
			c1.702942,0,3.082642-1.379761,3.083313-3.082642c-0.000671-1.702942-1.380371-3.082703-3.083313-3.083984
			C443.408844,581.875366,442.117462,583.076416,441.944794,584.61676z"/>
		<path style="fill:#FFFFFF;" d="M476.195923,595.121277l-19.429321-19.429993
			c0.967529-1.209717,0.904633-2.972229-0.217468-4.092346c-1.203796-1.204468-3.155609-1.204468-4.360046-0.000671
			c-1.204407,1.205139-1.204407,3.156921,0,4.360657c1.120758,1.12146,2.88327,1.184326,4.093018,0.216797l19.429382,19.429993
			c-0.966919,1.209839-0.904022,2.972229,0.218079,4.09375c1.204498,1.203735,3.155609,1.203064,4.359344,0
			c1.205109-1.204468,1.204498-3.155579,0.002045-4.359314C479.169525,594.217346,477.406342,594.153748,476.195923,595.121277z"/>
		<path style="fill:#FFFFFF;" d="M425.46698,596.984192v-27.476257c1.539001-0.171997,2.740051-1.46344,2.740723-3.048523
			c-0.000671-1.702942-1.381042-3.083984-3.083313-3.083313c-1.703552,0.00061-3.084015,1.380371-3.084015,3.083923
			c0,1.584473,1.201141,2.875916,2.741425,3.047913v27.476257c-1.540283,0.172546-2.741425,1.463989-2.741425,3.048462
			c0,1.703552,1.380463,3.084045,3.084015,3.083374c1.702271,0,3.08194-1.379822,3.082642-3.083374
			C428.207703,598.44751,427.005981,597.156738,425.46698,596.984192z"/>
		<path style="fill:#FFFFFF;" d="M396.688629,636.49054l19.429382-19.429382c1.208374,0.966919,2.970886,0.904053,4.093018-0.217468
			c1.203705-1.204407,1.205078-3.156189,0.000671-4.360657c-1.205109-1.205078-3.158264-1.205078-4.361389,0
			c-1.120758,1.120789-1.184967,2.883301-0.217407,4.093018l-19.429382,19.429382
			c-1.210449-0.966919-2.97226-0.90332-4.092987,0.217407c-1.205109,1.205139-1.204437,3.156982,0,4.361389
			c1.203705,1.203064,3.155609,1.204407,4.359314,0C397.59198,639.46283,397.654205,637.700317,396.688629,636.49054z"/>
		<path style="fill:#FFFFFF;" d="M435.709229,616.135742l27.4776-0.00061c0.169922,1.539612,1.461365,2.741394,3.04715,2.741394
			c1.702942,0,3.083313-1.381104,3.084686-3.083984c-0.001373-1.702942-1.381744-3.083984-3.084686-3.083313
			c-1.585785,0-2.877228,1.201782-3.04715,2.740723l-27.476929,0.00061c-0.17395-1.539551-1.46402-2.741333-3.049866-2.741333
			c-1.702881,0.00061-3.08194,1.380371-3.082642,3.083923c0,1.703674,1.379761,3.083374,3.082642,3.082031
			C434.24588,618.876526,435.53595,617.675415,435.709229,616.135742z"/>
		<path style="fill:#FFFFFF;" d="M401.458801,605.630554l19.428711,19.429382
			c-0.966888,1.210449-0.903351,2.972839,0.216766,4.093018c1.204437,1.204407,3.156921,1.204407,4.361328,0.000671
			c1.204498-1.205811,1.204498-3.156982-0.00061-4.362c-1.119446-1.120178-2.882629-1.183044-4.093079-0.216187
			l-19.428619-19.429321c0.966858-1.209778,0.903961-2.972229-0.216797-4.093689
			c-1.20578-1.204407-3.157593-1.203125-4.360016-0.000671c-1.205109,1.205078-1.205109,3.156189-0.001373,4.359985
			C398.486542,606.534485,400.248352,606.598083,401.458801,605.630554z"/>
		<path style="fill:#FFFFFF;" d="M378.164673,558.481445l19.429291,19.42865c-0.967529,1.210449-0.904633,2.97229,0.216797,4.093689
			c1.204407,1.204407,3.156921,1.204407,4.361389,0c1.203735-1.204407,1.203033-3.15625-0.000671-4.359985
			c-1.12146-1.12146-2.88327-1.18573-4.093079-0.21814l-19.429321-19.42865c0.966858-1.211121,0.903351-2.972229-0.21817-4.093689
			c-1.203705-1.204407-3.156219-1.204407-4.359955,0c-1.204468,1.204407-1.204468,3.155518-0.000671,4.359924
			C375.191711,559.384766,376.954224,559.448303,378.164673,558.481445z"/>
		<path style="fill:#FFFFFF;" d="M335.708069,607.505432v-27.475525c1.539673-0.171997,2.740753-1.462646,2.741425-3.049194
			c0-1.702881-1.381042-3.083313-3.084015-3.083984c-1.702881,0.000671-3.083923,1.381104-3.083923,3.083984
			c0.00061,1.586548,1.201752,2.877197,2.742035,3.048523l-0.000702,27.476196
			c-1.539581,0.17334-2.740723,1.46405-2.740723,3.049927c0.000702,1.702271,1.380432,3.082581,3.083313,3.081909
			c1.702972,0.000671,3.082703-1.379639,3.083344-3.081909C338.449493,608.968872,337.247742,607.678772,335.708069,607.505432z"/>
		<path style="fill:#FFFFFF;" d="M370.107056,628.338623v-27.476196c1.540344-0.171326,2.741425-1.462708,2.741425-3.048523
			c0.000671-1.702271-1.380371-3.083374-3.084015-3.083374c-1.702881,0-3.083313,1.381104-3.083313,3.083374
			c0,1.586426,1.201721,2.877197,2.740723,3.048523l0.000671,27.476868c-1.539673,0.172607-2.741394,1.462646-2.741394,3.049194
			c0.000671,1.702881,1.381104,3.082642,3.083313,3.082642c1.703644,0,3.083313-1.379761,3.083313-3.082642
			C372.84848,629.801941,371.6474,628.511902,370.107056,628.338623z"/>
		<path style="fill:#FFFFFF;" d="M326.134979,611.547607l19.429321-19.429321c1.210449,0.968262,2.97226,0.904663,4.093689-0.216797
			c1.203735-1.203674,1.203735-3.155579-0.000702-4.361328c-1.204407-1.203064-3.156219-1.203064-4.359924,0.000671
			c-1.121521,1.12146-1.184418,2.883911-0.21817,4.093079L325.650482,611.0625
			c-1.209747-0.965515-2.972229-0.902588-4.093689,0.218872c-1.204407,1.204407-1.203033,3.156189,0,4.359314
			c1.204437,1.205078,3.155609,1.205078,4.360046,0.001282C327.03894,614.520569,327.102539,612.758728,326.134979,611.547607z"/>
		<path style="fill:#FFFFFF;" d="M351.659332,603.145447h27.477539c0.171967,1.539673,1.462036,2.740723,3.047882,2.740723
			c1.702881,0,3.083344-1.380371,3.084015-3.083313c-0.001373-1.703613-1.381134-3.083313-3.084015-3.083984
			c-1.585846,0-2.875916,1.201782-3.047882,2.741394h-27.477539c-0.171295-1.53894-1.462738-2.741394-3.048523-2.741394
			c-1.702942,0.000671-3.082611,1.381775-3.082611,3.082642c0,1.703613,1.379669,3.083313,3.081268,3.084045
			C350.196594,605.886169,351.488037,604.68512,351.659332,603.145447z"/>
		<path style="fill:#FFFFFF;" d="M292.149445,589.081177V561.60498c1.540375-0.171326,2.741425-1.462708,2.741425-3.048523
			c0.000702-1.702271-1.380371-3.083313-3.084015-3.083313c-1.702881,0-3.083313,1.381042-3.083313,3.083313
			c0,1.586487,1.201752,2.877197,2.740723,3.048523l0.000702,27.476868c-1.539673,0.172607-2.741425,1.462708-2.741425,3.049194
			c0.000702,1.702942,1.381134,3.082642,3.083313,3.082642c1.703644,0,3.083344-1.3797,3.083344-3.082642
			C294.890869,590.544556,293.689819,589.254456,292.149445,589.081177z"/>
		<path style="fill:#FFFFFF;" d="M273.701752,563.888h27.477509c0.171997,1.539673,1.462067,2.740723,3.047913,2.740723
			c1.702881,0,3.083313-1.380371,3.084015-3.083313c-0.001373-1.703552-1.381134-3.083313-3.084015-3.083923
			c-1.585846,0-2.875916,1.201721-3.047913,2.741333h-27.477509c-0.171295-1.53894-1.462738-2.741333-3.048523-2.741333
			c-1.702942,0.00061-3.082642,1.381714-3.082642,3.082581c0,1.703613,1.3797,3.083374,3.081268,3.084045
			C272.239014,566.628723,273.530457,565.427673,273.701752,563.888z"/>
		<path style="fill:#FFFFFF;" d="M237.633331,562.007812v27.476868c-1.539001,0.170654-2.740738,1.461365-2.740738,3.047852
			c-0.000687,1.702942,1.379761,3.083313,3.083328,3.083984c1.703568-0.000671,3.084-1.381042,3.083313-3.083984
			c0-1.585815-1.201736-2.877197-2.740723-3.047852v-27.476868c1.539673-0.172607,2.740723-1.463379,2.740723-3.049927
			c0-1.702209-1.380432-3.081909-3.083313-3.081909c-1.702957,0-3.083328,1.3797-3.083328,3.081909
			C234.892593,560.544434,236.093658,561.835205,237.633331,562.007812z"/>
		<path style="fill:#FFFFFF;" d="M256.081055,587.201599h-27.476929c-0.171906-1.540283-1.462662-2.741333-3.047821-2.740723
			c-1.702896,0-3.083328,1.379761-3.084015,3.083313c0.001373,1.702942,1.381119,3.083313,3.084015,3.083313
			c1.585159,0,2.875916-1.201721,3.047821-2.740723h27.476929c0.171295,1.539001,1.462708,2.740723,3.048492,2.740723
			c1.703644-0.00061,3.083344-1.381714,3.083344-3.082642c0-1.703552-1.3797-3.083313-3.08197-3.083984
			C257.543762,584.460266,256.253021,585.661316,256.081055,587.201599z"/>
		<path style="fill:#FFFFFF;" d="M304.188995,635.971313l-0.000671,27.476196
			c-1.53894,0.171936-2.740051,1.463379-2.740051,3.049194c0,1.702209,1.380432,3.082703,3.082642,3.082703
			c1.703644,0.00061,3.084686-1.380493,3.084686-3.084045c0-1.585815-1.201752-2.875916-2.742096-3.047852l0.000671-27.476196
			c1.539673-0.172668,2.741425-1.464111,2.741425-3.049866c-0.000671-1.702271-1.381042-3.082031-3.084015-3.082031
			c-1.702881-0.001282-3.083313,1.379761-3.083313,3.083313C301.448273,634.508606,302.649384,635.798645,304.188995,635.971313z"/>
		<path style="fill:#FFFFFF;" d="M293.226074,629.997375V657.4729c-1.539581,0.172607-2.740723,1.462646-2.740021,3.049194
			c-0.000702,1.702881,1.379059,3.082642,3.082611,3.082642c1.702972,0,3.082642-1.379761,3.082642-3.082642
			c0-1.586548-1.199677-2.876587-2.739349-3.048584l-0.000702-27.477539c1.540375-0.171265,2.740051-1.462036,2.740051-3.048462
			c0.000702-1.702271-1.379669-3.082642-3.083313-3.082642c-1.702209-0.000671-3.08194,1.379639-3.082642,3.082642
			C290.486053,628.533936,291.686493,629.824707,293.226074,629.997375z"/>
		<path style="fill:#FFFFFF;" d="M293.945374,616.32782h-27.475525c-0.172607-1.540344-1.462677-2.741394-3.048523-2.741394
			c-1.702271,0-3.083313,1.381042-3.083313,3.083984c0,1.702881,1.380371,3.082642,3.082642,3.082642
			c1.586517,0,2.877899-1.20105,3.049194-2.740051l27.476227-0.000671c0.172668,1.540283,1.462738,2.740723,3.049194,2.740723
			c1.702942,0,3.082642-1.379761,3.083313-3.082642c-0.000671-1.702942-1.380371-3.082703-3.083313-3.083984
			C295.409424,613.586426,294.118042,614.787476,293.945374,616.32782z"/>
		<path style="fill:#FFFFFF;" d="M277.46756,628.695251v-27.476257c1.539001-0.171936,2.740051-1.463379,2.740753-3.048462
			c-0.000702-1.703003-1.381073-3.084045-3.083344-3.083374c-1.703552,0.000671-3.083984,1.380371-3.083984,3.083984
			c0,1.584473,1.201111,2.875916,2.741394,3.047852v27.476257c-1.540283,0.172607-2.741394,1.46405-2.741394,3.048523
			c0,1.703552,1.380432,3.083984,3.083984,3.083313c1.702271,0,3.08197-1.379761,3.082642-3.083313
			C280.208313,630.158569,279.006561,628.867859,277.46756,628.695251z"/>
		<path style="fill:#FFFFFF;" d="M239.096664,629.144897l19.428696-19.428711c1.209747,0.96759,2.971558,0.904724,4.093018-0.216797
			c1.20578-1.203735,1.205078-3.156921,0.000671-4.361328c-1.203735-1.203735-3.156219-1.203735-4.360718,0
			c-1.121429,1.12146-1.185638,2.885254-0.217407,4.093689l-19.42868,19.428711
			c-1.210449-0.966248-2.972931-0.903381-4.094376,0.21875c-1.20311,1.204407-1.20311,3.156311,0.000687,4.359375
			c1.20372,1.204407,3.156219,1.205078,4.359329,0.001343C239.999329,632.118469,240.062912,630.356018,239.096664,629.144897z"/>
		<path style="fill:#FFFFFF;" d="M248.689224,668.20166l19.429367-19.429382c1.208405,0.966919,2.970886,0.903992,4.093018-0.217468
			c1.203735-1.204468,1.205109-3.15625,0.000671-4.360657c-1.205078-1.205078-3.158264-1.205078-4.361389,0
			c-1.120758,1.120728-1.184937,2.88324-0.217407,4.093018l-19.429367,19.429382
			c-1.210449-0.96698-2.97226-0.903381-4.093002,0.217346c-1.205109,1.205139-1.204422,3.157043,0,4.36145
			c1.20372,1.203003,3.155609,1.204407,4.359329,0C249.592575,671.173889,249.654785,669.411377,248.689224,668.20166z"/>
		<path style="fill:#FFFFFF;" d="M229.469315,625.234558h27.476913c0.171967,1.540283,1.462036,2.740723,3.047821,2.740723
			c1.703644,0,3.083313-1.379761,3.084015-3.083313c-0.000702-1.702271-1.381744-3.083374-3.084625-3.083374
			c-1.585175,0-2.875916,1.200378-3.047211,2.740784h-27.477539c-0.171295-1.539673-1.462723-2.740784-3.048584-2.740784
			c-1.702194,0.000732-3.082626,1.381104-3.081955,3.083374c0,1.703552,1.379761,3.083313,3.080658,3.082581
			C228.005966,627.975281,229.297394,626.774841,229.469315,625.234558z"/>
		<path style="fill:#FFFFFF;" d="M287.709808,647.846863l27.4776-0.00061c0.169922,1.539612,1.461365,2.741333,3.04715,2.741333
			c1.702942,0,3.083313-1.381042,3.084686-3.083923c-0.001373-1.702942-1.381744-3.084045-3.084686-3.083313
			c-1.585785,0-2.877228,1.201721-3.04715,2.740723l-27.476898,0.00061c-0.173981-1.539612-1.46405-2.741333-3.049896-2.741333
			c-1.702881,0.00061-3.08194,1.380371-3.082642,3.083923c0,1.703613,1.379761,3.083313,3.082642,3.082031
			C286.24646,650.587585,287.53653,649.386536,287.709808,647.846863z"/>
		<path style="fill:#FFFFFF;" d="M253.459396,637.341614l19.428696,19.429382c-0.966858,1.210449-0.903351,2.9729,0.216797,4.093018
			c1.204407,1.204407,3.156891,1.204407,4.361328,0.000671c1.204468-1.20575,1.204468-3.156982-0.000641-4.362
			c-1.119446-1.120117-2.882629-1.183044-4.093079-0.216187l-19.428604-19.42926
			c0.966858-1.209778,0.903961-2.97229-0.216797-4.09375c-1.20578-1.204407-3.157593-1.203064-4.360016-0.000671
			c-1.205109,1.205139-1.205109,3.15625-0.001373,4.360046C250.487137,638.245605,252.248947,638.309204,253.459396,637.341614z"/>
		<path style="fill:#FFFFFF;" d="M272.03299,594.495667v27.476196c-1.539673,0.171326-2.740753,1.462708-2.741425,3.048523
			c-0.000671,1.702881,1.380371,3.083374,3.084015,3.084045c1.702881-0.000671,3.083313-1.381165,3.083313-3.084045
			c0-1.585815-1.201752-2.877197-2.740723-3.048523v-27.476196c1.538971-0.173279,2.740723-1.46344,2.740723-3.049194
			c-0.000702-1.702271-1.381134-3.083313-3.083313-3.082642c-1.702972-0.000671-3.083344,1.380371-3.083344,3.082642
			C269.292236,593.032227,270.493317,594.322388,272.03299,594.495667z"/>
		<path style="fill:#FFFFFF;" d="M224.434174,615.647339l-19.428696,19.42865
			c-1.210434-0.967529-2.972183-0.904602-4.093689,0.216797c-1.204407,1.204407-1.204407,3.15625,0,4.361328
			c1.204422,1.203735,3.156982,1.204407,4.361389,0c1.121445-1.121399,1.184341-2.883911,0.216797-4.093689l19.428619-19.42865
			c1.211136,0.966187,2.973633,0.90332,4.095062-0.21814c1.20311-1.204407,1.20311-3.15625-0.001297-4.359985
			c-1.204483-1.204407-3.155609-1.204407-4.359406-0.001404C223.530899,612.673767,223.467316,614.436218,224.434174,615.647339z"/>
		<path style="fill:#FFFFFF;" d="M221.527496,636.044861l-19.428619-19.42865c0.966858-1.209778,0.903275-2.972229-0.21817-4.093689
			c-1.20372-1.204468-3.156296-1.204468-4.360016,0c-1.204422,1.204468-1.204422,3.156921,0,4.360657
			c1.121429,1.12146,2.88324,1.185059,4.093689,0.217468l19.428696,19.428711
			c-0.966873,1.21106-0.903351,2.972839,0.217468,4.093689c1.204422,1.204407,3.156235,1.204407,4.360641,0
			c1.204407-1.203796,1.204407-3.15564,0-4.360046C224.499741,635.141602,222.73793,635.078674,221.527496,636.044861z"/>
		<path style="fill:#FFFFFF;" d="M194.713699,663.494995v-27.475586c1.539673-0.171936,2.740738-1.462646,2.741409-3.049194
			c0-1.702881-1.381042-3.083313-3.084-3.083984c-1.702881,0.000671-3.083939,1.381104-3.083939,3.083984
			c0.00061,1.586548,1.201736,2.877258,2.742035,3.048523l-0.000687,27.476257
			c-1.539612,0.17334-2.740738,1.463989-2.740738,3.049866c0.000687,1.702271,1.380447,3.082642,3.083328,3.08197
			c1.702957,0.000671,3.082703-1.3797,3.083328-3.08197C197.455109,664.958374,196.253372,663.668335,194.713699,663.494995z"/>
		<path style="fill:#FFFFFF;" d="M229.112671,684.328186v-27.476257c1.540359-0.171265,2.741409-1.462646,2.741409-3.048523
			c0.000687-1.702271-1.380371-3.083313-3.084-3.083313c-1.702881,0-3.083328,1.381042-3.083328,3.083313
			c0,1.586487,1.201752,2.877258,2.740738,3.048523l0.000687,27.476929c-1.539673,0.172607-2.741425,1.462646-2.741425,3.049194
			c0.000687,1.702881,1.381134,3.082642,3.083328,3.082642c1.703629,0,3.083313-1.379761,3.083313-3.082642
			C231.85408,685.791504,230.65303,684.501465,229.112671,684.328186z"/>
		<path style="fill:#FFFFFF;" d="M185.14061,667.53717l19.429306-19.429321c1.210434,0.968201,2.972244,0.904663,4.093689-0.216797
			c1.203735-1.203735,1.203735-3.15564-0.000687-4.361328c-1.204407-1.203125-3.156219-1.203125-4.359955,0.00061
			c-1.121506,1.121521-1.184402,2.883911-0.218155,4.093079l-19.428696,19.42865
			c-1.209763-0.965515-2.97226-0.902588-4.093689,0.218811c-1.204422,1.204407-1.203049,3.15625,0,4.359375
			c1.204407,1.205078,3.155609,1.205078,4.360016,0.001282C186.044571,670.510071,186.108154,668.748291,185.14061,667.53717z"/>
		<path style="fill:#FFFFFF;" d="M210.664948,659.134949h27.477539c0.171982,1.539673,1.462036,2.740723,3.047897,2.740723
			c1.702881,0,3.083313-1.380371,3.084-3.083313c-0.001373-1.703552-1.381119-3.083313-3.084-3.083923
			c-1.585861,0-2.875916,1.201721-3.047897,2.741333h-27.477539c-0.171295-1.53894-1.462723-2.741333-3.048508-2.741333
			c-1.702957,0.00061-3.082642,1.381714-3.082642,3.082642c0,1.703552,1.379684,3.083313,3.081268,3.083984
			C209.202225,661.875671,210.493652,660.674622,210.664948,659.134949z"/>
		<path style="fill:#FFFFFF;" d="M447.050934,685.891296l-0.000702,27.476135c-1.53891,0.171997-2.740021,1.46344-2.740021,3.049194
			c0,1.702271,1.380432,3.082703,3.082611,3.082703c1.703644,0.00061,3.084717-1.380432,3.084717-3.083984
			c0-1.585876-1.201752-2.875916-2.742126-3.047913l0.000702-27.476135c1.539673-0.172668,2.741425-1.464111,2.741425-3.049866
			c-0.000702-1.702271-1.381073-3.082031-3.084015-3.082031c-1.702881-0.001343-3.083313,1.379761-3.083313,3.083313
			C444.310211,684.428528,445.511322,685.718628,447.050934,685.891296z"/>
		<path style="fill:#FFFFFF;" d="M436.088013,680.409851v27.475525c-1.539612,0.172607-2.740723,1.462646-2.740051,3.049194
			c-0.000671,1.702881,1.379059,3.082642,3.082642,3.082642c1.702942,0,3.082642-1.379761,3.082642-3.082642
			c0-1.586548-1.199707-2.876587-2.73938-3.048584l-0.000671-27.477539c1.540344-0.171265,2.740051-1.462036,2.740051-3.048523
			c0.000671-1.702271-1.3797-3.082642-3.083344-3.082642c-1.702179-0.000671-3.08194,1.3797-3.082611,3.082642
			C433.347961,678.946411,434.548401,680.237183,436.088013,680.409851z"/>
		<path style="fill:#FFFFFF;" d="M497.24527,673.616882l-19.429382,19.42865
			c-1.209076-0.967529-2.971558-0.903992-4.092987,0.217407c-1.204437,1.203796-1.204437,3.156311,0,4.360046
			c1.204407,1.205078,3.156891,1.205078,4.360016,0.000671c1.121429-1.12146,1.185638-2.883911,0.217407-4.093689
			l19.428009-19.428711c1.212494,0.966248,2.973602,0.903381,4.095062-0.218079c1.204407-1.204407,1.204407-3.156311,0-4.359985
			c-1.203735-1.204468-3.155609-1.204468-4.360016,0C496.341919,670.643921,496.279022,672.405701,497.24527,673.616882z"/>
		<path style="fill:#FFFFFF;" d="M495.049194,689.351929h-27.4776c-0.171295-1.540283-1.461975-2.742004-3.047821-2.742004
			c-1.702271,0-3.083344,1.381042-3.084015,3.084595c0.000671,1.702942,1.381042,3.083313,3.084015,3.082703
			c1.585846,0.00061,2.877197-1.201721,3.047821-2.740112h27.4776c0.171295,1.538391,1.462646,2.740723,3.048523,2.740112
			c1.703552,0,3.08194-1.380432,3.083313-3.082703c0-1.703552-1.379761-3.083313-3.083313-3.083313
			C496.511841,686.609924,495.221161,687.811646,495.049194,689.351929z"/>
		<path style="fill:#FFFFFF;" d="M436.807312,666.740295h-27.475555c-0.172577-1.540344-1.462646-2.741394-3.048492-2.741394
			c-1.702271,0-3.083344,1.381042-3.083344,3.083984c0,1.702881,1.380371,3.082642,3.082642,3.082642
			c1.586548,0,2.877899-1.20105,3.049194-2.740051l27.476227-0.000671c0.172668,1.540283,1.462738,2.740723,3.049225,2.740723
			c1.702942,0,3.082611-1.379761,3.083313-3.082642c-0.000702-1.702942-1.380371-3.082703-3.083313-3.083984
			C438.271332,663.998901,436.97998,665.199951,436.807312,666.740295z"/>
		<path style="fill:#FFFFFF;" d="M471.058411,677.244812l-19.429291-19.429993
			c0.967529-1.209717,0.904633-2.972229-0.217499-4.092346c-1.203796-1.204468-3.155609-1.204468-4.360016-0.00061
			c-1.204407,1.205078-1.204407,3.15686,0,4.360596c1.120758,1.12146,2.88327,1.184326,4.093018,0.216797l19.429382,19.429993
			c-0.966949,1.209839-0.904053,2.97229,0.218079,4.09375c1.204498,1.203735,3.155609,1.203064,4.359344,0
			c1.205109-1.204468,1.204468-3.155579,0.002045-4.359314C474.032043,676.340881,472.26886,676.277283,471.058411,677.244812z"/>
		<path style="fill:#FFFFFF;" d="M381.958588,679.557312l19.428711-19.428711
			c1.209747,0.967651,2.971558,0.904724,4.092987-0.216736c1.20578-1.203796,1.205109-3.156921,0.000702-4.361328
			c-1.203735-1.203735-3.15625-1.203735-4.360718,0c-1.121429,1.121399-1.185638,2.885193-0.217407,4.093689l-19.42868,19.42865
			c-1.210449-0.966248-2.972961-0.90332-4.094391,0.218811c-1.203125,1.204407-1.203125,3.156311,0.000702,4.359314
			c1.203705,1.204407,3.156219,1.205139,4.359314,0.001404C382.861267,682.530945,382.924835,680.768433,381.958588,679.557312z"/>
		<path style="fill:#FFFFFF;" d="M391.551147,718.614075l19.429382-19.429382c1.208374,0.96698,2.970886,0.904053,4.092987-0.217468
			c1.203735-1.204407,1.205109-3.156189,0.000702-4.360596c-1.205109-1.205139-3.158295-1.205139-4.361389,0
			c-1.120758,1.120728-1.184967,2.88324-0.217407,4.092957l-19.429382,19.429382
			c-1.210449-0.966919-2.97226-0.90332-4.093018,0.217407c-1.205078,1.205139-1.204407,3.156982,0,4.361389
			c1.203735,1.203064,3.155609,1.204407,4.359344,0C392.454498,721.586365,392.516693,719.823853,391.551147,718.614075z"/>
		<path style="fill:#FFFFFF;" d="M372.331238,675.646973h27.476898c0.171997,1.540283,1.462036,2.740723,3.047852,2.740723
			c1.703613,0,3.083313-1.379761,3.083984-3.083313c-0.000671-1.702271-1.381744-3.083313-3.084625-3.083313
			c-1.585175,0-2.875916,1.200378-3.047211,2.740723h-27.477509c-0.171295-1.539673-1.462738-2.740723-3.048584-2.740723
			c-1.702209,0.000671-3.082642,1.381042-3.08197,3.083313c0,1.703552,1.379761,3.083313,3.080658,3.082642
			C370.867889,678.387695,372.159332,677.187256,372.331238,675.646973z"/>
		<path style="fill:#FFFFFF;" d="M430.571747,698.259338l27.4776-0.000671c0.169922,1.539612,1.461365,2.741394,3.04715,2.741394
			c1.702942,0,3.083313-1.381104,3.084686-3.083984c-0.001373-1.702942-1.381744-3.083984-3.084686-3.083313
			c-1.585785,0-2.877228,1.201782-3.04715,2.740723l-27.476929,0.00061c-0.17395-1.539551-1.46402-2.741333-3.049866-2.741333
			c-1.702881,0.00061-3.08197,1.380371-3.082642,3.083923c0,1.703674,1.379761,3.083374,3.082642,3.082031
			C429.108398,701.000061,430.398468,699.799011,430.571747,698.259338z"/>
		<path style="fill:#FFFFFF;" d="M396.32132,687.754089L415.75,707.183472c-0.966858,1.210449-0.90332,2.972839,0.216797,4.093018
			c1.204407,1.204407,3.156921,1.204407,4.361328,0.000671c1.204498-1.205811,1.204498-3.156982-0.00061-4.362
			c-1.119446-1.120117-2.882629-1.183044-4.093079-0.216187l-19.428619-19.429321
			c0.966858-1.209778,0.903961-2.972229-0.216797-4.093689c-1.20578-1.204407-3.157593-1.203125-4.360016-0.000671
			c-1.205109,1.205078-1.205109,3.15625-0.001373,4.360046C393.34906,688.658081,395.11087,688.721619,396.32132,687.754089z"/>
	</g>
</g>
</svg>
