<?xml version="1.0" encoding="iso-8859-1"?>
<!-- Generator: Adobe Illustrator 17.1.0, SVG Export Plug-In . SVG Version: 6.00 Build 0)  -->
<!DOCTYPE svg PUBLIC "-//W3C//DTD SVG 1.1//EN" "http://www.w3.org/Graphics/SVG/1.1/DTD/svg11.dtd">
<svg version="1.1" id="Layer_1" xmlns="http://www.w3.org/2000/svg" xmlns:xlink="http://www.w3.org/1999/xlink" x="0px" y="0px"
	 viewBox="0 0 32 32" style="enable-background:new 0 0 32 32;" xml:space="preserve">
<g>
	<g>
		<g>
			<g>
				<g>
					<g>
						<g>
							<path d="M19.209505,4.758798L7.242031,16.726389c-0.485225,0.485229-0.829455,1.09321-0.995887,1.758938l-2.231582,8.926327
								c-0.086655,0.346619,0.227314,0.660587,0.573933,0.573933l8.926328-2.231581
								c0.665728-0.166433,1.273707-0.510662,1.758938-0.995888l11.96759-11.967475L19.209505,4.758798z M6.425928,25.574221
								l1.657625-6.630386l4.97276,4.972761L6.425928,25.574221z"/>
						</g>
					</g>
					<path d="M21.258142,2.710071l-0.710072,0.710071l8.031788,8.031788l0.71007-0.710071
						c0.946762-0.946761,0.946762-2.481764,0-3.428525l-4.603262-4.603263C23.739906,1.76331,22.204903,1.76331,21.258142,2.710071z
						"/>
				</g>
			</g>
		</g>
	</g>
</g>
</svg>
