<?xml version="1.0" encoding="iso-8859-1"?>
<!-- Generator: Adobe Illustrator 17.1.0, SVG Export Plug-In . SVG Version: 6.00 Build 0)  -->
<!DOCTYPE svg PUBLIC "-//W3C//DTD SVG 1.1//EN" "http://www.w3.org/Graphics/SVG/1.1/DTD/svg11.dtd">
<svg version="1.1" id="Layer_1" xmlns="http://www.w3.org/2000/svg" xmlns:xlink="http://www.w3.org/1999/xlink" x="0px" y="0px"
	 viewBox="0 0 32 32" style="enable-background:new 0 0 32 32;" xml:space="preserve">
<g>
	<polygon points="16.913115,7.844151 15.698118,7.844151 15.161811,15.352224 11.365912,19.753988 12.212568,20.62534 
		17.520613,16.349123 	"/>
	<path d="M26.470757,7.741225c-4.863914-6.127409-13.680867-6.69946-19.308603-1.750561L5.037319,3.86583l-1.214996,7.289976
		l7.289976-1.214995L8.877934,7.706445c4.291121-3.668199,10.766479-3.480729,14.826896,0.576797
		c4.263165,4.263758,4.263165,11.200744,0,15.465095c-2.132175,2.132175-4.932362,3.198263-7.732548,3.198263v0.004154
		c-5.672527,0-10.350529-4.341846-10.88424-9.877256c-0.058288-0.604607-0.580431-1.057709-1.187928-1.057709H3.87579
		c-0.711986,0-1.273284,0.617361-1.203205,1.325863c0.667714,6.749441,6.377616,12.039093,13.299697,12.039093v-0.005932
		c4.110697,0,8.219614-1.878706,10.915312-5.63619C30.306179,18.973486,30.11693,12.334538,26.470757,7.741225z"/>
</g>
</svg>
