<?xml version="1.0" encoding="iso-8859-1"?>
<!-- Generator: Adobe Illustrator 17.1.0, SVG Export Plug-In . SVG Version: 6.00 Build 0)  -->
<!DOCTYPE svg PUBLIC "-//W3C//DTD SVG 1.1//EN" "http://www.w3.org/Graphics/SVG/1.1/DTD/svg11.dtd">
<svg version="1.1" id="Layer_1" xmlns="http://www.w3.org/2000/svg" xmlns:xlink="http://www.w3.org/1999/xlink" x="0px" y="0px"
	 viewBox="0 0 32 32" style="enable-background:new 0 0 32 32;" xml:space="preserve">
<g>
	<path d="M16,21.333334v-2.666668h1.333334v-1.333332H16v-2.666667h1.333334v-1.333334H16v-2.666666h4v2.666666h1.333334v-2.666666
		h4v2.666666H28v-8C28,4.597005,27.403076,4,26.666666,4H4C3.263591,4,2.666667,4.597005,2.666667,5.333333v21.333332
		C2.666667,27.402994,3.263591,28,4,28h13.333334v-2.666666h-6.666667v-2.666668h4L16,21.333334z M21.333334,7.333333h4V8h-4
		V7.333333z M21.333334,8.666667h4v0.666666h-4V8.666667z M16,7.333333h4V8h-4V7.333333z M16,8.666667h4v0.666666h-4V8.666667z
		 M10.666667,7.333333h4V8h-4V7.333333z M10.666667,8.666667h4v0.666666h-4V8.666667z M10.666667,10.666667h4v2.666666h-4V10.666667
		z M10.666667,14.666667h4v2.666667h-4V14.666667z M10.666667,18.666666h4v2.666668h-4V18.666666z M6.666667,25.333334H6v-2.666668
		h0.666667V25.333334z M6.666667,21.333334H6v-2.666668h0.666667V21.333334z M6.666667,17.333334H6v-2.666667h0.666667V17.333334z
		 M6.666667,13.333333H6v-2.666666h0.666667V13.333333z M6.666667,9.333333H6V6.666667h0.666667V9.333333z M8,25.333334H7.333333
		v-2.666668H8V25.333334z M8,21.333334H7.333333v-2.666668H8V21.333334z M8,17.333334H7.333333v-2.666667H8V17.333334z M8,13.333333
		H7.333333v-2.666666H8V13.333333z M8,9.333333H7.333333V6.666667H8V9.333333z M9.333333,25.333334H8.666667v-2.666668h0.666666
		V25.333334z M9.333333,21.333334H8.666667v-2.666668h0.666666V21.333334z M9.333333,17.333334H8.666667v-2.666667h0.666666
		V17.333334z M9.333333,13.333333H8.666667v-2.666666h0.666666V13.333333z M9.333333,9.333333H8.666667V6.666667h0.666666V9.333333z
		"/>
	<g>
		<path d="M21.333334,17.333334h5.333332v1.333332H24l4,4l4-4h-2.666666v-1.333332c0-1.470053-1.196615-2.666667-2.666668-2.666667
			h-5.333332c-1.470053,0-2.666668,1.196614-2.666668,2.666667v1.333332h2.666668V17.333334z"/>
		<path d="M26.666666,25.333334h-5.333332V24H24l-4-4l-4,4h2.666666v1.333334C18.666666,26.803385,19.863281,28,21.333334,28
			h5.333332c1.470053,0,2.666668-1.196615,2.666668-2.666666V24h-2.666668V25.333334z"/>
	</g>
</g>
</svg>
