<?xml version="1.0" encoding="iso-8859-1"?>
<!-- Generator: Adobe Illustrator 17.1.0, SVG Export Plug-In . SVG Version: 6.00 Build 0)  -->
<!DOCTYPE svg PUBLIC "-//W3C//DTD SVG 1.1//EN" "http://www.w3.org/Graphics/SVG/1.1/DTD/svg11.dtd">
<svg version="1.1" id="Layer_1" xmlns="http://www.w3.org/2000/svg" xmlns:xlink="http://www.w3.org/1999/xlink" x="0px" y="0px"
	 viewBox="0 0 32 32" style="enable-background:new 0 0 32 32;" xml:space="preserve">
<g>
	<g>
		<polygon points="24,30.666666 23.996744,30.664469 23.99707,30.667643 		"/>
		<path d="M26.666178,12.152507l1.301758-4.021484c0.20166-0.622966-0.078857-1.30013-0.661945-1.598063l-3.763998-1.922933
			l-1.923096-3.764079c-0.297934-0.583089-0.975098-0.863607-1.598063-0.661947L15.999512,1.48584l-4.021403-1.301839
			c-0.622884-0.20166-1.300049,0.078776-1.597981,0.661865l-1.923096,3.76416L4.693034,6.532959
			C4.109945,6.830892,3.829427,7.508057,4.031087,8.131022l1.301758,4.021484l-1.30249,4.023601
			c-0.201498,0.622477,0.079427,1.299072,0.662598,1.595783l3.565267,1.813721c0.490315,0.249432,0.7771,0.774334,0.722086,1.321697
			L8,30.666666l7.999023-5.333332l7.997721,5.331135l-0.97998-9.756184c-0.055012-0.547363,0.231771-1.072266,0.722088-1.321697
			l3.565266-1.813721c0.584311-0.297363,0.865723-0.97526,0.663818-1.598957L26.666178,12.152507z M16,20
			c-4.418294,0-8-3.581705-8-8s3.581706-8,8-8s8,3.581706,8,8S20.418295,20,16,20z"/>
		<path d="M14.635417,12.744141l-2.509571-2.196466c-0.138535-0.121251-0.349136-0.107233-0.470379,0.031311l-1.31743,1.505425
			c-0.121247,0.13855-0.107208,0.34916,0.031358,0.47039l4.101284,3.588187c0.128971,0.112835,0.322484,0.109499,0.447489-0.007713
			l6.722864-6.303828c0.134264-0.125895,0.141081-0.336782,0.015228-0.471085L20.289158,7.90147
			c-0.125893-0.134346-0.336864-0.141183-0.471191-0.015269L14.635417,12.744141z"/>
	</g>
</g>
</svg>
