<?xml version="1.0" encoding="iso-8859-1"?>
<!-- Generator: Adobe Illustrator 17.1.0, SVG Export Plug-In . SVG Version: 6.00 Build 0)  -->
<!DOCTYPE svg PUBLIC "-//W3C//DTD SVG 1.1//EN" "http://www.w3.org/Graphics/SVG/1.1/DTD/svg11.dtd">
<svg version="1.1" id="Layer_1" xmlns="http://www.w3.org/2000/svg" xmlns:xlink="http://www.w3.org/1999/xlink" x="0px" y="0px"
	 viewBox="0 0 32 32" style="enable-background:new 0 0 32 32;" xml:space="preserve">
<g>
	<g>
		<path d="M25.306641,17.333334V16c0-1.458008-1.181967-2.639974-2.639975-2.639974V9.619792
			c0-3.481771-2.545572-6.591309-6.011799-6.921875C12.67863,2.318685,9.333333,5.435221,9.333333,9.333333v4.026693
			c-1.458007,0-2.639974,1.181966-2.639974,2.639974v1.333334H25.306641z M12,9.333333c0-2.205566,1.794434-4,4-4
			c2.205648,0,4,1.794434,4,4v4.026693h-8V9.333333z"/>
		<path d="M6.693359,22v4c0,0.368164,0.298502,0.666666,0.666667,0.666666h17.279949
			c0.368164,0,0.666666-0.298502,0.666666-0.666666v-4H6.693359z"/>
		<rect x="6.693359" y="18.000021" width="18.613281" height="3.333333"/>
	</g>
</g>
</svg>
