<?xml version="1.0" encoding="iso-8859-1"?>
<!-- Generator: Adobe Illustrator 17.1.0, SVG Export Plug-In . SVG Version: 6.00 Build 0)  -->
<!DOCTYPE svg PUBLIC "-//W3C//DTD SVG 1.1//EN" "http://www.w3.org/Graphics/SVG/1.1/DTD/svg11.dtd">
<svg version="1.1" id="Layer_1" xmlns="http://www.w3.org/2000/svg" xmlns:xlink="http://www.w3.org/1999/xlink" x="0px" y="0px"
	 viewBox="0 0 32 32" style="enable-background:new 0 0 32 32;" xml:space="preserve">
<path d="M28,6H4C2.895386,6,2,6.895386,2,8v16c0,1.104614,0.895386,2,2,2h24c1.104614,0,2-0.895386,2-2V8
	C30,6.895386,29.104614,6,28,6z M18.124023,18.094604C17.518555,18.577026,16.764648,18.843628,16,18.843628
	c-0.765625,0-1.518555-0.266602-2.123047-0.749023L4.8125,10.843628l1.75-2.1875l9.063477,7.250977
	C15.734375,15.994995,15.864258,16.040894,16,16.040894s0.265625-0.045898,0.375-0.133789l9.0625-7.250977l1.75,2.1875
	L18.124023,18.094604z"/>
</svg>
