<?xml version="1.0" encoding="iso-8859-1"?>
<!-- Generator: Adobe Illustrator 17.1.0, SVG Export Plug-In . SVG Version: 6.00 Build 0)  -->
<!DOCTYPE svg PUBLIC "-//W3C//DTD SVG 1.1//EN" "http://www.w3.org/Graphics/SVG/1.1/DTD/svg11.dtd">
<svg version="1.1" id="Layer_1" xmlns="http://www.w3.org/2000/svg" xmlns:xlink="http://www.w3.org/1999/xlink" x="0px" y="0px"
	 viewBox="0 0 32 32" style="enable-background:new 0 0 32 32;" xml:space="preserve">
<g>
	<g>
		<path d="M25.055124,23.65625c-0.700624-1.226749-6.115623-1.953125-6.728498-2.478001
			c-0.46875-0.399124-0.163502-1.402624-0.212376-2.302258c0.334499-0.414999,1.162125-1.053492,1.335501-1.341492
			c0.212374-0.348,0.432123-0.949759,0.602999-1.598c0.300251-0.003625,0.693375-0.599375,0.693375-0.599375
			c0.224627-0.336876,0.969252-2.1875,0.07325-2.221625c-0.244123-0.285625-0.090374-0.94975-0.043999-1.276875
			c0.036625-0.26125,0.085499-0.52125,0.136749-0.78c0.437-2.146-1.745625-3.826875-3.476625-4.599625
			c-0.375874-0.1685-0.7715-0.31375-1.176748-0.401625C14.86225,5.755876,13.063,6.6555,11.766625,8.252242
			C10.63375,9.643875,11.376,12.629625,11.51275,13.373125c0.026751,0.140368-0.197875,0.11225-0.244249,0.169625
			c-0.400375,0.49925-0.1025,1.596625,0.20025,2.096c0.297875,0.49925,0.798375,0.698126,0.798375,0.698126L12.289,16.30275
			c0.141625,1.073,1.020625,1.888376,1.401376,2.503626c-0.13175,0.631124-0.092751,1.777374-0.46875,2.213125
			c-0.188001,0.2185-4.79975,1.411125-5.939875,2.376749C7.11325,23.539125,6.61525,24.5205,6,26h20
			C25.555626,24.931875,25.209,23.925993,25.055124,23.65625z"/>
	</g>
</g>
</svg>
