<?xml version="1.0" encoding="iso-8859-1"?>
<!-- Generator: Adobe Illustrator 17.1.0, SVG Export Plug-In . SVG Version: 6.00 Build 0)  -->
<!DOCTYPE svg PUBLIC "-//W3C//DTD SVG 1.1//EN" "http://www.w3.org/Graphics/SVG/1.1/DTD/svg11.dtd">
<svg version="1.1" id="Layer_1" xmlns="http://www.w3.org/2000/svg" xmlns:xlink="http://www.w3.org/1999/xlink" x="0px" y="0px"
	 viewBox="0 0 31.999954 31.999954" style="enable-background:new 0 0 31.999954 31.999954;" xml:space="preserve">
<path d="M7.99999,5.99999c0-2.209226,1.790892-3.999995,3.999995-3.999995s3.999994,1.790769,3.999994,3.999995
	c0,1.476805-0.809447,2.752316-1.999997,3.445186v10.297595c2.471311-0.615967,4.48449-2.380247,5.421258-4.708368
	c-0.862427-0.733642-1.421263-1.813353-1.421263-3.03442c0-2.209226,1.79089-3.999995,3.999994-3.999995
	s3.999994,1.790769,3.999994,3.999995c0,1.710935-1.079344,3.159908-2.590206,3.731318
	c-1.3645,4.223016-4.981195,7.386098-9.409778,8.102162v6.166496H9.999987V9.445176
	C8.809437,8.752306,7.99999,7.476795,7.99999,5.99999z"/>
</svg>
