<?xml version="1.0" encoding="iso-8859-1"?>
<!-- Generator: Adobe Illustrator 17.1.0, SVG Export Plug-In . SVG Version: 6.00 Build 0)  -->
<!DOCTYPE svg PUBLIC "-//W3C//DTD SVG 1.1//EN" "http://www.w3.org/Graphics/SVG/1.1/DTD/svg11.dtd">
<svg version="1.1" id="Layer_1" xmlns="http://www.w3.org/2000/svg" xmlns:xlink="http://www.w3.org/1999/xlink" x="0px" y="0px"
	 viewBox="0 0 32 32" style="enable-background:new 0 0 32 32;" xml:space="preserve">
<path d="M20.69788,18.326828c1.179548-1.783432,1.708567-4.039174,1.199055-6.431282
	c-0.689299-3.23618-3.336874-5.815875-6.590939-6.415092C9.4434,4.400889,4.410342,9.426919,5.476956,15.287436
	c0.59259,3.255989,3.167095,5.910034,6.402559,6.606028c2.395829,0.515377,4.661077-0.012619,6.448724-1.197002l5.649672,5.651001
	c0.425352,0.425451,1.115078,0.425493,1.540482,0.000092l0.829247-0.829245c0.425333-0.425331,0.425375-1.11492,0.000093-1.540302
	L20.69788,18.326828z M13.711954,19.158146c-3.002898,0-5.446104-2.443205-5.446104-5.446103s2.443206-5.446104,5.446104-5.446104
	s5.446104,2.443206,5.446104,5.446104S16.714851,19.158146,13.711954,19.158146z"/>
</svg>
