<?xml version="1.0" encoding="iso-8859-1"?>
<!-- Generator: Adobe Illustrator 17.1.0, SVG Export Plug-In . SVG Version: 6.00 Build 0)  -->
<!DOCTYPE svg PUBLIC "-//W3C//DTD SVG 1.1//EN" "http://www.w3.org/Graphics/SVG/1.1/DTD/svg11.dtd">
<svg version="1.1" id="Layer_1" xmlns="http://www.w3.org/2000/svg" xmlns:xlink="http://www.w3.org/1999/xlink" x="0px" y="0px"
	 viewBox="0 0 32 32" style="enable-background:new 0 0 32 32;" xml:space="preserve">
<path d="M25,20c-1.136719,0-2.173828,0.395996-3.014648,1.037354l-10.032227-5.573364C11.967651,15.308838,12,15.158936,12,15
	c0-0.010986-0.003174-0.020996-0.003296-0.031982l9.646484-4.28772C22.532471,11.491943,23.703979,12,25,12
	c2.756836,0,5-2.242188,5-5s-2.243164-5-5-5s-5,2.242188-5,5c0,0.011108,0.003174,0.02124,0.003296,0.032349l-9.646729,4.287231
	C9.467285,10.508057,8.295898,10,7,10c-2.756836,0-5,2.242188-5,5s2.243164,5,5,5c1.136719,0,2.173828-0.395996,3.014648-1.037354
	l10.032227,5.573486C20.032349,24.691284,20,24.841187,20,25c0,2.757812,2.243164,5,5,5s5-2.242188,5-5S27.756836,20,25,20z"/>
</svg>
