<?xml version="1.0" encoding="iso-8859-1"?>
<!-- Generator: Adobe Illustrator 17.1.0, SVG Export Plug-In . SVG Version: 6.00 Build 0)  -->
<!DOCTYPE svg PUBLIC "-//W3C//DTD SVG 1.1//EN" "http://www.w3.org/Graphics/SVG/1.1/DTD/svg11.dtd">
<svg version="1.1" id="Layer_1" xmlns="http://www.w3.org/2000/svg" xmlns:xlink="http://www.w3.org/1999/xlink" x="0px" y="0px"
	 viewBox="0 0 31.999954 31.999954" style="enable-background:new 0 0 31.999954 31.999954;" xml:space="preserve">
<path d="M23.999968,3.999993H7.999989c-2.209104,0-3.999995,1.790769-3.999995,3.999995v15.999979
	c0,2.209103,1.790891,3.999994,3.999995,3.999994h15.999979c2.209105,0,3.999994-1.790892,3.999994-3.999994V7.999988
	C27.999962,5.790762,26.209072,3.999993,23.999968,3.999993z M23.999968,7.999988v3.999995h-3.999994V7.999988H23.999968z
	 M19.999973,13.99998h3.999994v3.999995h-3.999994V13.99998z M17.999975,17.999975h-3.999994V13.99998h3.999994V17.999975z
	 M17.999975,7.999988v3.999995h-3.999994V7.999988H17.999975z M7.999989,7.999988h3.999995v3.999995H7.999989V7.999988z
	 M7.999989,13.99998h3.999995v3.999995H7.999989V13.99998z M7.999989,23.999968v-3.999996h3.999995v3.999996H7.999989z
	 M13.999981,23.999968v-3.999996h3.999994v3.999996H13.999981z M19.999973,23.999968v-3.999996h3.999994v3.999996H19.999973z"/>
<rect x="8.999985" y="7.999965" width="0.499999" height="15.999979"/>
<rect x="10.499985" y="7.999965" width="0.499999" height="15.999979"/>
<rect x="13.999976" y="9.000016" width="9.999987" height="0.499999"/>
<rect x="13.999976" y="10.499955" width="9.999987" height="0.499999"/>
</svg>
