<?xml version="1.0" encoding="iso-8859-1"?>
<!-- Generator: Adobe Illustrator 17.1.0, SVG Export Plug-In . SVG Version: 6.00 Build 0)  -->
<!DOCTYPE svg PUBLIC "-//W3C//DTD SVG 1.1//EN" "http://www.w3.org/Graphics/SVG/1.1/DTD/svg11.dtd">
<svg version="1.1" id="Layer_1" xmlns="http://www.w3.org/2000/svg" xmlns:xlink="http://www.w3.org/1999/xlink" x="0px" y="0px"
	 viewBox="0 0 31.999954 31.999954" style="enable-background:new 0 0 31.999954 31.999954;" xml:space="preserve">
<path d="M26.637049,11.999739l1.298094-4.010127c0.20105-0.621215-0.078613-1.296507-0.660032-1.593626l-3.753414-1.917478
	l-1.917843-3.753535c-0.296997-0.581542-0.97229-0.861205-1.593504-0.660277l-4.010126,1.298338l-4.010005-1.298338
	c-0.621216-0.200927-1.296508,0.078735-1.593626,0.660155L8.478869,4.478508L4.725579,6.395986
	C4.143915,6.693105,3.864252,7.368397,4.065423,7.989612l1.297972,4.010127l-1.298704,4.012323
	c-0.200927,0.62085,0.079102,1.295652,0.660644,1.591307c0,0,4.876581,3.867304,4.903802,3.831903l-1.129149,10.56464
	l7.499868-6.50544l7.500112,6.503487L22.369598,21.43576l4.903559-3.831293c0.582762-0.296509,0.863279-0.972532,0.661985-1.594481
	L26.637049,11.999739z M15.999978,20.452852c-4.418329,0-7.99999-3.581659-7.99999-7.99999
	c0-4.418207,3.58166-7.999867,7.99999-7.999867s7.99999,3.58166,7.99999,7.999867
	C23.999968,16.871193,20.418308,20.452852,15.999978,20.452852z"/>
<path d="M19.697727,8.593493c-0.109619-0.116942-0.293213-0.122802-0.410156-0.013305l-4.510125,4.227655l-2.183957-1.911497
	c-0.120605-0.105469-0.303833-0.093262-0.409302,0.027344l-1.146605,1.310058
	c-0.105469,0.120605-0.093262,0.303832,0.027344,0.409423l3.569209,3.122555c0.112183,0.098267,0.28064,0.095337,0.389403-0.006714
	l5.850578-5.485955c0.116943-0.109497,0.122803-0.29309,0.013306-0.409911L19.697727,8.593493z"/>
</svg>
