<?xml version="1.0" encoding="iso-8859-1"?>
<!-- Generator: Adobe Illustrator 17.1.0, SVG Export Plug-In . SVG Version: 6.00 Build 0)  -->
<!DOCTYPE svg PUBLIC "-//W3C//DTD SVG 1.1//EN" "http://www.w3.org/Graphics/SVG/1.1/DTD/svg11.dtd">
<svg version="1.1" id="Layer_1" xmlns="http://www.w3.org/2000/svg" xmlns:xlink="http://www.w3.org/1999/xlink" x="0px" y="0px"
	 viewBox="0 0 32 32" style="enable-background:new 0 0 32 32;" xml:space="preserve">
<path d="M28,8.557958c-0.883009,0.391644-1.831991,0.656317-2.827969,0.77532c1.016485-0.609384,1.7973-1.574304,2.164921-2.724144
	c-0.951445,0.564312-2.005199,0.974064-3.126791,1.19484c-0.898129-0.956952-2.17782-1.55484-3.594025-1.55484
	c-2.719223,0-4.923923,2.204532-4.923923,4.923743c0,0.385908,0.043536,0.761724,0.127501,1.122132
	c-4.092192-0.205368-7.720379-2.165627-10.148855-5.144639c-0.423864,0.7272-0.666672,1.573008-0.666672,2.475408
	c0,1.708296,0.869232,3.215387,2.190468,4.098395c-0.807132-0.025608-1.566396-0.247092-2.2302-0.615876
	c-0.000468,0.020568-0.000468,0.041124-0.000468,0.061933c0,2.385648,1.697279,4.375655,3.949751,4.828128
	c-0.413148,0.112499-0.848147,0.172728-1.297212,0.172728c-0.31728,0-0.625728-0.030935-0.926424-0.088356
	c0.626604,1.956095,2.445,3.379799,4.59966,3.419411c-1.685148,1.320709-3.808236,2.107849-6.115188,2.107849
	c-0.39744,0-0.789372-0.023317-1.174572-0.068905c2.179044,1.397112,4.767252,2.212379,7.547867,2.212379
	c9.056783,0,14.009471-7.502926,14.009471-14.009638c0-0.213456-0.004801-0.425808-0.014292-0.637033
	C26.505161,10.41257,27.33988,9.545378,28,8.557958z"/>
</svg>
